<svg xmlns="http://www.w3.org/2000/svg" xmlns:xlink="http://www.w3.org/1999/xlink" viewBox="0 0 306.74 117"><defs><style>.cls-1{fill:none;}.cls-2{fill:#c37b52;}.cls-3{clip-path:url(#clip-path);}.cls-4{fill:#e1a942;}.cls-5{fill:#ad6130;}.cls-6{fill:#80241a;}.cls-7{fill:#e2af61;}.cls-8{fill:#a31218;}.cls-9{fill:#683313;}.cls-10{fill:#cb7729;}.cls-11{fill:#af1f16;}.cls-12{fill:#78765d;}.cls-13{fill:#602419;}</style><clipPath id="clip-path" transform="translate(0 21.21)"><path class="cls-1" d="M228,2.2c-14.84,0-26.87,11.66-26.87,26.05S213.18,54.3,228,54.3s26.87-11.66,26.87-26S242.86,2.2,228,2.2Zm-.3,42.19c-8.33,0-15.08-7.12-15.08-15.9s6.75-15.89,15.08-15.89,15.09,7.12,15.09,15.89S236.06,44.39,227.72,44.39Z"/></clipPath></defs><g id="Layer_2" data-name="Layer 2"><g id="Capa_1" data-name="Capa 1"><polyline class="cls-2" points="0.15 21.21 11.45 21.21 11.45 40.93 0.15 52.47"/><polygon class="cls-2" points="31.33 25.05 0.2 56.17 0.2 57.03 32.2 25.05 31.33 25.05"/><polygon class="cls-2" points="33.9 25.05 0.2 58.73 0.2 59.6 34.76 25.05 33.9 25.05"/><path class="cls-2" d="M11.68,21.32c0-.13,0-.26,0-.38L.21,32.4v.87l11.6-11.61A.46.46,0,0,1,11.68,21.32Z" transform="translate(0 21.21)"/><polygon class="cls-2" points="36.46 25.05 0.2 61.3 0.2 62.16 37.32 25.05 36.46 25.05"/><polygon class="cls-2" points="39.02 25.05 0.2 63.86 0.2 64.72 39.88 25.05 39.02 25.05"/><polygon class="cls-2" points="41.58 25.05 0.2 66.42 0.2 67.28 42.44 25.05 41.58 25.05"/><polygon class="cls-2" points="44.14 25.05 0.2 68.98 0.2 69.84 45.01 25.05 44.14 25.05"/><polygon class="cls-2" points="0.2 71.55 0.2 72.41 11.48 61.13 11.46 60.29 0.2 71.55"/><polygon class="cls-2" points="47.57 25.05 46.71 25.05 16.9 54.85 17.27 55.34 47.57 25.05"/><polygon class="cls-2" points="0.2 74.11 0.2 74.68 0.49 74.68 11.53 63.64 11.52 62.8 0.2 74.11"/><polygon class="cls-2" points="26.37 48.8 26.02 48.29 17.99 56.32 18.36 56.82 26.37 48.8"/><polygon class="cls-2" points="27.43 50.31 27.07 49.8 19.08 57.79 19.45 58.29 27.43 50.31"/><polygon class="cls-2" points="2.19 74.68 3.05 74.68 11.59 66.15 11.57 65.31 2.19 74.68"/><polygon class="cls-2" points="4.75 74.68 5.62 74.68 11.64 68.66 11.62 67.82 4.75 74.68"/><polygon class="cls-2" points="28.49 51.81 28.13 51.31 20.17 59.26 20.54 59.76 28.49 51.81"/><polygon class="cls-2" points="7.32 74.68 8.18 74.68 11.69 71.17 11.67 70.33 7.32 74.68"/><polygon class="cls-2" points="9.88 74.68 10.74 74.68 11.74 73.68 11.72 72.84 9.88 74.68"/><polygon class="cls-2" points="29.07 53.18 21.32 60.69 31.74 74.68 45.01 74.68 29.07 53.18"/><polygon class="cls-2" points="80.88 24.42 74.97 30.33 74.33 31.84 81.75 24.42 80.88 24.42"/><polygon class="cls-2" points="83.45 24.42 73.05 34.81 72.41 36.32 84.31 24.42 83.45 24.42"/><polygon class="cls-2" points="78.32 24.42 76.89 25.85 76.25 27.36 79.18 24.42 78.32 24.42"/><polygon class="cls-2" points="86.01 24.42 71.13 39.3 70.49 40.8 86.87 24.42 86.01 24.42"/><polygon class="cls-2" points="88.57 24.42 69.21 43.78 68.57 45.29 89.43 24.42 88.57 24.42"/><polygon class="cls-2" points="89.67 25.88 67.29 48.26 66.64 49.77 88.99 27.43 89.67 25.88"/><polygon class="cls-2" points="87.64 30.48 65.37 52.75 64.72 54.25 86.96 32.02 87.64 30.48"/><polygon class="cls-2" points="85.61 35.07 63.45 57.23 62.8 58.74 84.93 36.61 85.61 35.07"/><polygon class="cls-2" points="83.58 39.66 61.53 61.71 60.88 63.22 82.89 41.21 83.58 39.66"/><polygon class="cls-2" points="81.55 44.26 59.61 66.19 58.96 67.7 80.86 45.8 81.55 44.26"/><polygon class="cls-2" points="79.52 48.85 57.69 70.68 57.04 72.19 78.83 50.39 79.52 48.85"/><polygon class="cls-2" points="76.8 54.98 77.48 53.44 55.77 75.16 56.66 75.13 76.8 54.98"/><polygon class="cls-2" points="59.33 75.02 74.77 59.58 75.45 58.03 58.43 75.06 59.33 75.02"/><polygon class="cls-2" points="61.99 74.92 72.74 64.17 73.42 62.63 61.1 74.95 61.99 74.92"/><polygon class="cls-2" points="64.66 74.82 70.71 68.76 71.39 67.22 63.76 74.85 64.66 74.82"/><polygon class="cls-2" points="67.32 74.71 68.68 73.36 69.36 71.81 66.43 74.75 67.32 74.71"/><polygon class="cls-2" points="123.62 24.32 123.62 24.97 124.27 24.32 123.62 24.32"/><polygon class="cls-2" points="126.83 24.32 123.62 27.53 123.62 28.39 127.69 24.32 126.83 24.32"/><polygon class="cls-2" points="129.39 24.32 123.62 30.09 123.62 30.95 130.25 24.32 129.39 24.32"/><polygon class="cls-2" points="124.27 24.32 123.62 24.97 123.62 25.83 125.13 24.32 124.27 24.32"/><polygon class="cls-2" points="131.95 24.32 123.62 32.65 123.62 33.51 132.81 24.32 131.95 24.32"/><polygon class="cls-2" points="135.31 24.32 134.51 24.32 123.62 35.22 123.62 36.08 135.31 24.39 135.31 24.32"/><polygon class="cls-2" points="135.31 26.09 123.62 37.78 123.62 38.64 135.31 26.95 135.31 26.09"/><polygon class="cls-2" points="135.31 28.65 123.62 40.34 123.62 41.2 135.31 29.51 135.31 28.65"/><polygon class="cls-2" points="135.31 31.21 123.62 42.9 123.62 43.76 135.31 32.07 135.31 31.21"/><polygon class="cls-2" points="135.31 33.77 123.62 45.46 123.62 46.32 135.31 34.63 135.31 33.77"/><polygon class="cls-2" points="135.31 36.34 123.62 48.02 123.62 48.89 135.31 37.2 135.31 36.34"/><polygon class="cls-2" points="135.31 38.9 123.62 50.59 123.62 51.45 135.31 39.76 135.31 38.9"/><polygon class="cls-2" points="135.31 41.46 123.62 53.15 123.62 54.01 135.31 42.32 135.31 41.46"/><polygon class="cls-2" points="135.31 44.02 123.62 55.71 123.62 56.31 123.88 56.31 135.31 44.88 135.31 44.02"/><polygon class="cls-2" points="135.31 46.58 125.58 56.31 126.44 56.31 135.31 47.45 135.31 46.58"/><polygon class="cls-2" points="135.31 49.15 128.15 56.31 129.01 56.31 135.31 50.01 135.31 49.15"/><polygon class="cls-2" points="135.31 51.71 130.71 56.31 131.57 56.31 135.31 52.57 135.31 51.71"/><polygon class="cls-2" points="135.31 54.27 133.27 56.31 134.13 56.31 135.31 55.13 135.31 54.27"/><rect class="cls-2" x="123.62" y="56.31" width="11.69" height="18.83"/><polygon class="cls-2" points="151.98 24.32 148.61 27.69 148.61 28.55 152.84 24.32 151.98 24.32"/><polygon class="cls-2" points="154.54 24.32 148.61 30.25 148.61 31.11 155.41 24.32 154.54 24.32"/><polygon class="cls-2" points="149.42 24.32 148.61 25.13 148.61 25.99 150.28 24.32 149.42 24.32"/><polygon class="cls-2" points="157.11 24.32 148.61 32.81 148.61 33.67 157.97 24.32 157.11 24.32"/><polygon class="cls-2" points="160.35 24.33 160.35 24.32 159.67 24.32 148.61 35.38 148.61 36.24 160.51 24.34 160.35 24.33"/><polygon class="cls-2" points="162.17 24.38 148.61 37.94 148.61 38.8 163.01 24.4 162.17 24.38"/><polygon class="cls-2" points="164.67 24.44 148.61 40.5 148.61 41.36 165.51 24.46 164.67 24.44"/><polygon class="cls-2" points="167.17 24.5 148.61 43.06 148.61 43.92 168.01 24.52 167.17 24.5"/><path class="cls-2" d="M160.35,13.43h.11l10-10-.84,0L148.61,24.42v.86l11.74-11.74Z" transform="translate(0 21.21)"/><path class="cls-2" d="M163.09,13.36,173,3.44l-.84,0-10,10Z" transform="translate(0 21.21)"/><polygon class="cls-2" points="160.35 36.45 148.61 48.19 148.61 49.05 160.35 37.31 160.35 36.45"/><path class="cls-2" d="M165.72,13.29l9.58-9.58-.74-.12-9.72,9.73Z" transform="translate(0 21.21)"/><polygon class="cls-2" points="160.35 39.01 148.61 50.75 148.61 51.61 160.35 39.87 160.35 39.01"/><path class="cls-2" d="M168.35,13.23l9.07-9.07L176.73,4l-9.26,9.26Z" transform="translate(0 21.21)"/><polygon class="cls-2" points="160.35 41.57 148.61 53.31 148.61 54.17 160.35 42.43 160.35 41.57"/><polygon class="cls-2" points="160.35 44.13 148.61 55.87 148.61 56.73 160.35 45 160.35 44.13"/><path class="cls-2" d="M171,13.16h0l8.41-8.41-.65-.22-8.64,8.65Z" transform="translate(0 21.21)"/><path class="cls-2" d="M173.35,13.35l7.88-7.88-.6-.26-8,8C172.87,13.26,173.12,13.3,173.35,13.35Z" transform="translate(0 21.21)"/><polygon class="cls-2" points="160.35 46.7 148.61 58.43 148.61 59.29 160.35 47.56 160.35 46.7"/><polygon class="cls-2" points="160.89 48.72 148.61 60.99 148.61 61.86 161.75 48.72 160.89 48.72"/><path class="cls-2" d="M175.25,14l7.68-7.69L182.38,6l-7.72,7.72A5.34,5.34,0,0,1,175.25,14Z" transform="translate(0 21.21)"/><path class="cls-2" d="M176.67,15.15l7.82-7.82L184,7l-7.74,7.75A4.26,4.26,0,0,1,176.67,15.15Z" transform="translate(0 21.21)"/><polygon class="cls-2" points="162.86 49.31 148.61 63.56 148.61 64.42 162.86 50.17 162.86 49.31"/><path class="cls-2" d="M177.65,16.74l8.25-8.26h0l-8.24,8.24Z" transform="translate(0 21.21)"/><polygon class="cls-2" points="162.86 52.7 148.61 66.94 148.61 66.98 162.86 52.73 162.86 52.7"/><path class="cls-2" d="M178.14,18.77l9-9c-.13-.16-.26-.31-.4-.46L178,18A7.15,7.15,0,0,1,178.14,18.77Z" transform="translate(0 21.21)"/><polygon class="cls-2" points="162.86 54.4 148.61 68.65 148.61 69.51 162.86 55.26 162.86 54.4"/><polygon class="cls-2" points="161.79 58.89 162.86 57.82 162.86 56.96 160.93 58.89 161.79 58.89"/><polygon class="cls-2" points="160.35 59.47 148.61 71.21 148.61 72.07 160.35 60.33 160.35 59.47"/><path class="cls-2" d="M178.07,21.4,188.2,11.27c-.11-.18-.22-.35-.34-.52l-9.68,9.68A6.9,6.9,0,0,1,178.07,21.4Z" transform="translate(0 21.21)"/><path class="cls-2" d="M177.64,16.71l8.24-8.24-.45-.41-8.07,8.07C177.46,16.32,177.56,16.52,177.64,16.71Z" transform="translate(0 21.21)"/><polygon class="cls-2" points="162.86 51.84 148.61 66.08 148.61 66.94 162.86 52.7 162.86 51.84"/><polygon class="cls-2" points="160.35 62.03 148.61 73.77 148.61 74.63 160.35 62.9 160.35 62.03"/><path class="cls-2" d="M180.63,21.4,189.06,13c-.08-.2-.16-.4-.26-.6l-9,9Z" transform="translate(0 21.21)"/><polygon class="cls-2" points="150.96 74.84 160.35 65.46 160.35 64.6 150.1 74.84 150.96 74.84"/><path class="cls-2" d="M183.19,21.4l6.52-6.51c-.06-.23-.12-.45-.19-.67l-7.19,7.18Z" transform="translate(0 21.21)"/><polygon class="cls-2" points="153.52 74.84 160.35 68.02 160.35 67.16 152.66 74.84 153.52 74.84"/><path class="cls-2" d="M185.76,21.4l4.33-4.33c0-.26-.06-.51-.1-.76L184.9,21.4Z" transform="translate(0 21.21)"/><path class="cls-2" d="M188.32,21.4l1.84-1.84c0-.3,0-.59,0-.87l-2.71,2.71Z" transform="translate(0 21.21)"/><polygon class="cls-2" points="156.09 74.84 160.35 70.58 160.35 69.72 155.22 74.84 156.09 74.84"/><polygon class="cls-2" points="158.65 74.84 160.35 73.14 160.35 72.28 157.79 74.84 158.65 74.84"/><polygon class="cls-2" points="160.35 74.84 160.35 74.84 160.35 74.84 160.35 74.84"/><g class="cls-3"><rect class="cls-2" x="174.42" y="7.92" width="79" height="0.61" transform="translate(56.84 174.87) rotate(-45)"/><rect class="cls-2" x="175.7" y="9.2" width="79" height="0.61" transform="translate(56.31 176.15) rotate(-45)"/><rect class="cls-2" x="173.14" y="6.64" width="79" height="0.61" transform="translate(57.37 173.59) rotate(-45)"/><rect class="cls-2" x="176.98" y="10.48" width="79" height="0.61" transform="translate(55.78 177.43) rotate(-45)"/><rect class="cls-2" x="178.26" y="11.76" width="79" height="0.61" transform="translate(55.24 178.72) rotate(-45)"/><rect class="cls-2" x="179.54" y="13.04" width="79" height="0.61" transform="translate(54.71 180) rotate(-45)"/><rect class="cls-2" x="180.82" y="14.32" width="79" height="0.61" transform="translate(54.18 181.28) rotate(-45)"/><rect class="cls-2" x="182.11" y="15.6" width="79" height="0.61" transform="translate(53.65 182.56) rotate(-45)"/><rect class="cls-2" x="183.39" y="16.88" width="79" height="0.61" transform="translate(53.12 183.84) rotate(-45)"/><rect class="cls-2" x="184.67" y="18.16" width="79" height="0.61" transform="translate(52.59 185.12) rotate(-45)"/><rect class="cls-2" x="185.95" y="19.45" width="79" height="0.61" transform="translate(52.05 186.39) rotate(-45)"/><rect class="cls-2" x="187.23" y="20.73" width="79" height="0.61" transform="translate(51.52 187.67) rotate(-45)"/><rect class="cls-2" x="188.51" y="22.01" width="79" height="0.61" transform="translate(50.99 188.96) rotate(-45)"/><rect class="cls-2" x="189.79" y="23.29" width="79" height="0.61" transform="translate(50.46 190.24) rotate(-45)"/><rect class="cls-2" x="191.07" y="24.57" width="79" height="0.61" transform="translate(49.93 191.52) rotate(-45)"/><rect class="cls-2" x="192.35" y="25.85" width="79" height="0.61" transform="translate(49.4 192.8) rotate(-45)"/><rect class="cls-2" x="193.63" y="27.13" width="79" height="0.61" transform="translate(48.87 194.08) rotate(-45)"/><rect class="cls-2" x="194.88" y="28.38" width="79" height="0.61" transform="translate(48.36 195.33) rotate(-45)"/><rect class="cls-2" x="196.16" y="29.66" width="79" height="0.61" transform="translate(47.83 196.61) rotate(-45)"/><rect class="cls-2" x="193.6" y="27.1" width="79" height="0.61" transform="translate(48.89 194.05) rotate(-45)"/><rect class="cls-2" x="197.44" y="30.94" width="79" height="0.61" transform="translate(47.3 197.89) rotate(-45)"/><rect class="cls-2" x="198.72" y="32.22" width="79" height="0.61" transform="translate(46.77 199.18) rotate(-45)"/><rect class="cls-2" x="200" y="33.5" width="79" height="0.61" transform="translate(46.24 200.46) rotate(-45)"/><rect class="cls-2" x="201.29" y="34.78" width="79" height="0.61" transform="translate(45.71 201.74) rotate(-45)"/><rect class="cls-2" x="202.57" y="36.06" width="79" height="0.61" transform="translate(45.18 203.02) rotate(-45)"/><rect class="cls-2" x="203.85" y="37.34" width="79" height="0.61" transform="translate(44.65 204.3) rotate(-45)"/></g><path class="cls-2" d="M228,2.44h-.27v10.4c8.32,0,15.06,7.12,15.06,15.89s-6.74,15.88-15.06,15.89v9.91H228c14.84,0,26.87-11.67,26.87-26.06S242.86,2.44,228,2.44Z" transform="translate(0 21.21)"/><path class="cls-2" d="M302.57,49A9.31,9.31,0,0,0,304,47.5Z" transform="translate(0 21.21)"/><path class="cls-2" d="M294.29,13.38l7.28-7.28-1.12-.58-7.39,7.39Z" transform="translate(0 21.21)"/><path class="cls-2" d="M292.44,12.68l7.43-7.44-1.17-.53-7.52,7.53Z" transform="translate(0 21.21)"/><path class="cls-2" d="M298.15,15.51c.57,1.13,7.12-7.12,7.12-7.12h0l-7.12,7.12Z" transform="translate(0 21.21)"/><path class="cls-2" d="M297.72,15.07l7-7c-.25-.18-.6-.41-1-.68l-7.07,7.08A7.22,7.22,0,0,1,297.72,15.07Z" transform="translate(0 21.21)"/><path class="cls-2" d="M296.08,14.16,303.2,7l-1.07-.62-7.23,7.23C295.31,13.8,295.71,14,296.08,14.16Z" transform="translate(0 21.21)"/><path class="cls-2" d="M279.08,3l-10.9,10.91c-.05.31-.08.63-.1,1L280.16,2.76Q279.62,2.85,279.08,3Z" transform="translate(0 21.21)"/><path class="cls-2" d="M282.14,2.48,268,16.58h0a7,7,0,0,0,0,.92l15.1-15.1Z" transform="translate(0 21.21)"/><path class="cls-2" d="M275.26,4.23l-6.18,6.19a12.81,12.81,0,0,0-.47,1.32l8.1-8.09C276.21,3.82,275.73,4,275.26,4.23Z" transform="translate(0 21.21)"/><path class="cls-2" d="M284.86,2.32,268.1,19.07c0,.23.09.47.14.73L285.73,2.31Z" transform="translate(0 21.21)"/><path class="cls-2" d="M287.39,2.35,268.62,21.12c.07.2.15.41.24.62L288.21,2.39Z" transform="translate(0 21.21)"/><path class="cls-2" d="M289.78,2.53,269.41,22.9c.09.18.19.36.3.55L290.55,2.62Z" transform="translate(0 21.21)"/><path class="cls-2" d="M279.71,15.15l-9.32,9.33c.11.16.24.32.37.49l8.76-8.77A8.5,8.5,0,0,1,279.71,15.15Z" transform="translate(0 21.21)"/><path class="cls-2" d="M284,11.68l8.74-8.74-.75-.1L283,11.91A7.87,7.87,0,0,1,284,11.68Z" transform="translate(0 21.21)"/><path class="cls-2" d="M286.69,11.6l8.2-8.21-.69-.17-8.34,8.35Z" transform="translate(0 21.21)"/><path class="cls-2" d="M279.72,17.71l-8.18,8.18c.13.15.27.29.42.44l8-8A3.1,3.1,0,0,1,279.72,17.71Z" transform="translate(0 21.21)"/><path class="cls-2" d="M280.74,19.25l-7.91,7.91.46.4,7.89-7.89C281,19.53,280.88,19.4,280.74,19.25Z" transform="translate(0 21.21)"/><path class="cls-2" d="M289,11.85,296.85,4l-.64-.22-8,8C288.49,11.76,288.75,11.81,289,11.85Z" transform="translate(0 21.21)"/><path class="cls-2" d="M291.18,12.24l7.52-7.53-.61-.25-7.64,7.64C290.7,12.14,290.93,12.18,291.18,12.24Z" transform="translate(0 21.21)"/><path class="cls-2" d="M282.17,20.38l-7.93,7.93.51.35,8-8C282.53,20.6,282.35,20.5,282.17,20.38Z" transform="translate(0 21.21)"/><path class="cls-2" d="M283.85,21.26l-8.07,8.08.53.32,8.15-8.15Z" transform="translate(0 21.21)"/><path class="cls-2" d="M293.06,12.91l7.39-7.39-.58-.28-7.43,7.44Z" transform="translate(0 21.21)"/><path class="cls-2" d="M294.9,13.64l7.23-7.23-.56-.31-7.28,7.28Z" transform="translate(0 21.21)"/><path class="cls-2" d="M285.79,21.89l-8.39,8.38.58.29L286.49,22Z" transform="translate(0 21.21)"/><path class="cls-2" d="M296.66,14.44l7.07-7.08L303.2,7l-7.12,7.13C296.28,14.25,296.48,14.34,296.66,14.44Z" transform="translate(0 21.21)"/><path class="cls-2" d="M287.86,22.37l-8.73,8.74.6.26,8.82-8.82Z" transform="translate(0 21.21)"/><path class="cls-2" d="M274.28,38.52l-7.6,7.6.46.4,7.58-7.58Z" transform="translate(0 21.21)"/><path class="cls-2" d="M298.15,15.51l7.12-7.12L304.76,8l-7,7A1.58,1.58,0,0,1,298.15,15.51Z" transform="translate(0 21.21)"/><path class="cls-2" d="M289.88,22.92l-8.94,8.94.62.24,9-9Z" transform="translate(0 21.21)"/><path class="cls-2" d="M291.85,23.52l-9,9,.66.21,9-9Z" transform="translate(0 21.21)"/><path class="cls-2" d="M275.68,39.68l-7.62,7.62.49.38L276.19,40Z" transform="translate(0 21.21)"/><path class="cls-2" d="M277.25,40.67l-7.73,7.73.51.35L277.8,41Z" transform="translate(0 21.21)"/><path class="cls-2" d="M293.76,24.17l-9,9,.68.18,8.91-8.91Z" transform="translate(0 21.21)"/><path class="cls-2" d="M296.17,25.11l-8.61,8.61h.06l8.6-8.6Z" transform="translate(0 21.21)"/><path class="cls-2" d="M279.47,41.81l-7.92,7.92,0,0,7.92-7.92Z" transform="translate(0 21.21)"/><path class="cls-2" d="M280.65,42.33l-8,8,.56.3,8.06-8.07Z" transform="translate(0 21.21)"/><path class="cls-2" d="M297.36,25.62,289,34a6.19,6.19,0,0,1,.67.19L298,25.89Z" transform="translate(0 21.21)"/><path class="cls-2" d="M299.1,26.44l-8.2,8.2a6.19,6.19,0,0,1,.58.28l8.18-8.18Z" transform="translate(0 21.21)"/><path class="cls-2" d="M282.48,43.06l-8.16,8.16.59.27,8.2-8.2Z" transform="translate(0 21.21)"/><path class="cls-2" d="M278.88,41.53,271,49.4l.53.33,7.92-7.92Z" transform="translate(0 21.21)"/><path class="cls-2" d="M295.56,24.85l-8.78,8.79h0a7.79,7.79,0,0,1,.78.08l8.61-8.61Z" transform="translate(0 21.21)"/><path class="cls-2" d="M300.76,27.34l-8.25,8.25a4.33,4.33,0,0,1,.47.4l8.33-8.34Z" transform="translate(0 21.21)"/><path class="cls-2" d="M284.42,43.68,276.1,52l.63.24,8.39-8.39Z" transform="translate(0 21.21)"/><path class="cls-2" d="M302.31,28.35l-8.56,8.56a4.17,4.17,0,0,1,.32.55l8.6-8.6C302.55,28.69,302.44,28.52,302.31,28.35Z" transform="translate(0 21.21)"/><path class="cls-2" d="M286.55,44.11,278,52.67l.66.21,8.66-8.67Z" transform="translate(0 21.21)"/><path class="cls-2" d="M303.35,29.87l-8.85,8.86a6,6,0,0,1,.09.77l9.1-9.1Z" transform="translate(0 21.21)"/><path class="cls-2" d="M288.91,44.32,280,53.24l.7.16,9.1-9.1C289.5,44.32,289.2,44.32,288.91,44.32Z" transform="translate(0 21.21)"/><path class="cls-2" d="M304.31,31.47l-9.89,9.9a3.71,3.71,0,0,1-2.56,2.55l-9.74,9.75.75.11L304.62,32Z" transform="translate(0 21.21)"/><path class="cls-2" d="M305.18,33.17,284.42,53.93l.81,0,20.2-20.2Z" transform="translate(0 21.21)"/><path class="cls-2" d="M305.9,35l-19,19,.9,0,18.29-18.3C306.05,35.45,306,35.23,305.9,35Z" transform="translate(0 21.21)"/><path class="cls-2" d="M306.32,36.44,288.88,53.88l1-.12,16.62-16.62C306.44,36.91,306.38,36.67,306.32,36.44Z" transform="translate(0 21.21)"/><path class="cls-2" d="M306.69,38.63,291.92,53.4c.37-.08.75-.16,1.12-.26l13.7-13.7A7.34,7.34,0,0,0,306.69,38.63Z" transform="translate(0 21.21)"/><path class="cls-2" d="M306.68,41.21,295.48,52.4c.46-.16.91-.32,1.38-.51l9.67-9.67C306.59,41.89,306.64,41.55,306.68,41.21Z" transform="translate(0 21.21)"/><path class="cls-2" d="M305.57,45.1l-5.07,5.07c.68-.38,1.37-.78,2.07-1.22h0L304,47.5A12.17,12.17,0,0,0,305.57,45.1Z" transform="translate(0 21.21)"/><path class="cls-2" d="M288.66,44.58a21,21,0,0,1-4.94-.85s-7.63-2.46-10-5.64l-7.62,7.69s9,9.55,22.52,8.39Z" transform="translate(0 21.21)"/><path class="cls-2" d="M290.5,12.36l.76.15s6.41,2.14,7,3.27,7.11-7.12,7.11-7.12S299,3.92,292.11,3.11c0,0-.6-.12-1.61-.24Z" transform="translate(0 21.21)"/><path class="cls-2" d="M162.86,27.51h9.75s5.88-1.44,5.46-6.11h12s.19,11.89-9.65,13.7l12.89,18.32H179.39L167.61,37.15h-4.75Z" transform="translate(0 21.21)"/><polygon class="cls-2" points="89.43 24.42 111.27 74.71 98.4 74.92 93.55 63.82 73.05 63.46 77.48 53.44 89.67 54.01 83.19 40.05 89.43 24.42"/><polyline class="cls-4" points="0 89.01 0 117 28 117"/><polyline class="cls-5" points="28.45 116.1 28.45 88.1 0.45 88.1"/><polyline class="cls-6" points="40.59 89.01 40.59 117 68.59 117"/><polyline class="cls-7" points="69.04 116.1 69.04 88.1 41.04 88.1"/><polyline class="cls-8" points="96.79 116.77 116.59 102.44 96.79 88.1"/><polyline class="cls-9" points="95.83 88.33 76.04 102.67 95.83 117"/><polyline class="cls-10" points="124.04 89.01 124.04 117 152.03 117"/><polyline class="cls-11" points="152.49 116.1 152.49 88.1 124.49 88.1"/><polyline class="cls-12" points="164.63 89.01 164.63 117 192.63 117"/><polyline class="cls-13" points="193.08 116.1 193.08 88.1 165.08 88.1"/></g></g></svg>