<svg xmlns="http://www.w3.org/2000/svg" xmlns:xlink="http://www.w3.org/1999/xlink" viewBox="0 0 212.08 79.52"><defs><style>.cls-1{fill:none;}.cls-2{fill:#040406;}.cls-3{clip-path:url(#clip-path);}.cls-4{fill:#e1a942;}.cls-5{fill:#ad6130;}.cls-6{fill:#80241a;}.cls-7{fill:#e2af61;}.cls-8{fill:#a31218;}.cls-9{fill:#683313;}.cls-10{fill:#cb7729;}.cls-11{fill:#af1f16;}.cls-12{fill:#78765d;}.cls-13{fill:#602419;}</style><clipPath id="clip-path" transform="translate(0 14.66)"><path class="cls-1" d="M157.66,1.52c-10.26,0-18.57,8.06-18.57,18s8.31,18,18.57,18,18.57-8.07,18.57-18S167.92,1.52,157.66,1.52Zm-.2,29.16A10.72,10.72,0,0,1,147,19.7a10.72,10.72,0,0,1,10.43-11c5.76,0,10.42,4.92,10.42,11A10.71,10.71,0,0,1,157.46,30.68Z"/></clipPath></defs><g id="Layer_2" data-name="Layer 2"><g id="Capa_1" data-name="Capa 1"><polyline class="cls-2" points="0.15 14.66 7.96 14.66 7.96 28.3 0.15 36.27"/><polygon class="cls-2" points="21.7 17.31 0.19 38.83 0.19 39.42 22.3 17.31 21.7 17.31"/><polygon class="cls-2" points="23.48 17.31 0.19 40.6 0.19 41.2 24.07 17.31 23.48 17.31"/><path class="cls-2" d="M8.12,14.74a2.44,2.44,0,0,0,0-.27L.19,22.4V23l8-8A.39.39,0,0,1,8.12,14.74Z" transform="translate(0 14.66)"/><polygon class="cls-2" points="25.25 17.31 0.19 42.37 0.19 42.97 25.84 17.31 25.25 17.31"/><polygon class="cls-2" points="27.02 17.31 0.19 44.14 0.19 44.74 27.61 17.31 27.02 17.31"/><polygon class="cls-2" points="28.79 17.31 0.19 45.91 0.19 46.51 29.38 17.31 28.79 17.31"/><polygon class="cls-2" points="30.56 17.31 0.19 47.68 0.19 48.28 31.15 17.31 30.56 17.31"/><polygon class="cls-2" points="0.19 49.45 0.19 50.05 7.98 42.26 7.97 41.67 0.19 49.45"/><polygon class="cls-2" points="32.92 17.31 32.33 17.31 11.73 37.91 11.98 38.26 32.92 17.31"/><polygon class="cls-2" points="0.19 51.23 0.19 51.62 0.39 51.62 8.02 43.99 8.01 43.41 0.19 51.23"/><polygon class="cls-2" points="18.27 33.73 18.03 33.38 12.48 38.93 12.73 39.27 18.27 33.73"/><polygon class="cls-2" points="19 34.77 18.76 34.42 13.23 39.95 13.49 40.29 19 34.77"/><polygon class="cls-2" points="1.56 51.62 2.16 51.62 8.05 45.73 8.04 45.14 1.56 51.62"/><polygon class="cls-2" points="3.33 51.62 3.93 51.62 8.09 47.46 8.08 46.88 3.33 51.62"/><polygon class="cls-2" points="19.73 35.81 19.49 35.47 13.99 40.97 14.24 41.31 19.73 35.81"/><polygon class="cls-2" points="5.1 51.62 5.7 51.62 8.13 49.2 8.11 48.61 5.1 51.62"/><polygon class="cls-2" points="6.87 51.62 7.47 51.62 8.16 50.93 8.15 50.35 6.87 51.62"/><polygon class="cls-2" points="20.14 36.76 14.79 41.95 21.98 51.62 31.15 51.62 20.14 36.76"/><polygon class="cls-2" points="55.95 16.88 51.87 20.97 51.42 22.01 56.55 16.88 55.95 16.88"/><polygon class="cls-2" points="57.73 16.88 50.54 24.07 50.1 25.11 58.32 16.88 57.73 16.88"/><polygon class="cls-2" points="54.18 16.88 53.2 17.87 52.75 18.91 54.78 16.88 54.18 16.88"/><polygon class="cls-2" points="59.5 16.88 49.21 27.16 48.77 28.2 60.09 16.88 59.5 16.88"/><polygon class="cls-2" points="61.27 16.88 47.89 30.26 47.44 31.3 61.86 16.88 61.27 16.88"/><polygon class="cls-2" points="62.03 17.89 46.56 33.36 46.11 34.4 61.56 18.96 62.03 17.89"/><polygon class="cls-2" points="60.63 21.07 45.23 36.46 44.78 37.5 60.15 22.13 60.63 21.07"/><polygon class="cls-2" points="59.22 24.24 43.9 39.56 43.46 40.6 58.75 25.31 59.22 24.24"/><polygon class="cls-2" points="57.82 27.42 42.58 42.66 42.13 43.7 57.34 28.48 57.82 27.42"/><polygon class="cls-2" points="56.41 30.59 41.25 45.76 40.8 46.8 55.94 31.66 56.41 30.59"/><polygon class="cls-2" points="55.01 33.77 39.92 48.85 39.47 49.9 54.54 34.83 55.01 33.77"/><polygon class="cls-2" points="53.13 38.01 53.6 36.94 38.59 51.95 39.21 51.93 53.13 38.01"/><polygon class="cls-2" points="41.05 51.86 51.73 41.18 52.2 40.12 40.43 51.88 41.05 51.86"/><polygon class="cls-2" points="42.9 51.79 50.33 44.36 50.8 43.29 42.28 51.81 42.9 51.79"/><polygon class="cls-2" points="44.74 51.72 48.92 47.53 49.39 46.47 44.12 51.74 44.74 51.72"/><polygon class="cls-2" points="46.58 51.64 47.52 50.71 47.99 49.64 45.96 51.67 46.58 51.64"/><polygon class="cls-2" points="85.49 16.81 85.49 17.26 85.94 16.81 85.49 16.81"/><polygon class="cls-2" points="87.71 16.81 85.49 19.03 85.49 19.62 88.31 16.81 87.71 16.81"/><polygon class="cls-2" points="89.48 16.81 85.49 20.8 85.49 21.39 90.08 16.81 89.48 16.81"/><polygon class="cls-2" points="85.94 16.81 85.49 17.26 85.49 17.85 86.54 16.81 85.94 16.81"/><polygon class="cls-2" points="91.26 16.81 85.49 22.57 85.49 23.17 91.85 16.81 91.26 16.81"/><polygon class="cls-2" points="93.58 16.81 93.03 16.81 85.49 24.34 85.49 24.94 93.58 16.86 93.58 16.81"/><polygon class="cls-2" points="93.58 18.03 85.49 26.11 85.49 26.71 93.58 18.63 93.58 18.03"/><polygon class="cls-2" points="93.58 19.8 85.49 27.88 85.49 28.48 93.58 20.4 93.58 19.8"/><polygon class="cls-2" points="93.58 21.57 85.49 29.66 85.49 30.25 93.58 22.17 93.58 21.57"/><polygon class="cls-2" points="93.58 23.35 85.49 31.43 85.49 32.02 93.58 23.94 93.58 23.35"/><polygon class="cls-2" points="93.58 25.12 85.49 33.2 85.49 33.79 93.58 25.71 93.58 25.12"/><polygon class="cls-2" points="93.58 26.89 85.49 34.97 85.49 35.56 93.58 27.48 93.58 26.89"/><polygon class="cls-2" points="93.58 28.66 85.49 36.74 85.49 37.33 93.58 29.25 93.58 28.66"/><polygon class="cls-2" points="93.58 30.43 85.49 38.51 85.49 38.92 85.68 38.92 93.58 31.02 93.58 30.43"/><polygon class="cls-2" points="93.58 32.2 86.85 38.92 87.45 38.92 93.58 32.8 93.58 32.2"/><polygon class="cls-2" points="93.58 33.97 88.62 38.92 89.22 38.92 93.58 34.57 93.58 33.97"/><polygon class="cls-2" points="93.58 35.74 90.39 38.92 90.99 38.92 93.58 36.34 93.58 35.74"/><polygon class="cls-2" points="93.58 37.51 92.17 38.92 92.76 38.92 93.58 38.11 93.58 37.51"/><rect class="cls-2" x="85.49" y="38.92" width="8.08" height="13.02"/><polygon class="cls-2" points="105.1 16.81 102.77 19.14 102.77 19.73 105.7 16.81 105.1 16.81"/><polygon class="cls-2" points="106.87 16.81 102.77 20.91 102.77 21.51 107.47 16.81 106.87 16.81"/><polygon class="cls-2" points="103.33 16.81 102.77 17.37 102.77 17.96 103.93 16.81 103.33 16.81"/><polygon class="cls-2" points="108.64 16.81 102.77 22.68 102.77 23.28 109.24 16.81 108.64 16.81"/><polygon class="cls-2" points="110.88 16.82 110.88 16.81 110.42 16.81 102.77 24.45 102.77 25.05 111 16.82 110.88 16.82"/><polygon class="cls-2" points="112.14 16.85 102.77 26.22 102.77 26.82 112.72 16.87 112.14 16.85"/><polygon class="cls-2" points="113.87 16.89 102.77 28 102.77 28.59 114.45 16.91 113.87 16.89"/><polygon class="cls-2" points="115.6 16.94 102.77 29.77 102.77 30.36 116.18 16.95 115.6 16.94"/><path class="cls-2" d="M110.88,9.28H111l7-6.95h-.58L102.77,16.88v.59l8.11-8.11Z" transform="translate(0 14.66)"/><path class="cls-2" d="M112.78,9.24l6.86-6.87h-.58l-6.89,6.89Z" transform="translate(0 14.66)"/><polygon class="cls-2" points="110.88 25.2 102.77 33.31 102.77 33.9 110.88 25.79 110.88 25.2"/><path class="cls-2" d="M114.6,9.19l6.62-6.63-.51-.08L114,9.21Z" transform="translate(0 14.66)"/><polygon class="cls-2" points="110.88 26.97 102.77 35.08 102.77 35.67 110.88 27.56 110.88 26.97"/><path class="cls-2" d="M116.41,9.14l6.27-6.27-.48-.11-6.4,6.4Z" transform="translate(0 14.66)"/><polygon class="cls-2" points="110.88 28.74 102.77 36.85 102.77 37.44 110.88 29.33 110.88 28.74"/><polygon class="cls-2" points="110.88 30.51 102.77 38.62 102.77 39.22 110.88 31.1 110.88 30.51"/><path class="cls-2" d="M118.23,9.09h0l5.82-5.81-.45-.15-6,6Z" transform="translate(0 14.66)"/><path class="cls-2" d="M119.87,9.23l5.45-5.45-.42-.18-5.54,5.54A3.86,3.86,0,0,1,119.87,9.23Z" transform="translate(0 14.66)"/><polygon class="cls-2" points="110.88 32.28 102.77 40.39 102.77 40.99 110.88 32.87 110.88 32.28"/><polygon class="cls-2" points="111.26 33.67 102.77 42.16 102.77 42.76 111.85 33.67 111.26 33.67"/><path class="cls-2" d="M121.18,9.69l5.32-5.32-.39-.21L120.78,9.5A3.71,3.71,0,0,1,121.18,9.69Z" transform="translate(0 14.66)"/><path class="cls-2" d="M122.17,10.47l5.4-5.4-.34-.25-5.36,5.35Q122,10.32,122.17,10.47Z" transform="translate(0 14.66)"/><polygon class="cls-2" points="112.62 34.08 102.77 43.93 102.77 44.53 112.62 34.68 112.62 34.08"/><path class="cls-2" d="M122.84,11.57l5.71-5.7,0,0-5.7,5.7Z" transform="translate(0 14.66)"/><polygon class="cls-2" points="112.62 36.43 102.77 46.27 102.77 46.3 112.62 36.45 112.62 36.43"/><path class="cls-2" d="M123.19,13l6.21-6.21-.28-.32-6,6C123.14,12.63,123.17,12.81,123.19,13Z" transform="translate(0 14.66)"/><polygon class="cls-2" points="112.62 37.6 102.77 47.45 102.77 48.05 112.62 38.2 112.62 37.6"/><polygon class="cls-2" points="111.88 40.71 112.62 39.97 112.62 39.37 111.29 40.71 111.88 40.71"/><polygon class="cls-2" points="110.88 41.11 102.77 49.22 102.77 49.82 110.88 41.7 110.88 41.11"/><path class="cls-2" d="M123.13,14.8l7-7-.24-.36-6.69,6.69A4.71,4.71,0,0,1,123.13,14.8Z" transform="translate(0 14.66)"/><path class="cls-2" d="M122.83,11.55l5.7-5.7-.31-.28-5.58,5.58A3.62,3.62,0,0,1,122.83,11.55Z" transform="translate(0 14.66)"/><polygon class="cls-2" points="112.62 35.83 102.77 45.68 102.77 46.27 112.62 36.43 112.62 35.83"/><polygon class="cls-2" points="110.88 42.88 102.77 50.99 102.77 51.59 110.88 43.48 110.88 42.88"/><path class="cls-2" d="M124.91,14.8,130.73,9c-.06-.14-.11-.28-.18-.42l-6.24,6.25Z" transform="translate(0 14.66)"/><polygon class="cls-2" points="104.39 51.73 110.88 45.25 110.88 44.65 103.8 51.73 104.39 51.73"/><path class="cls-2" d="M126.68,14.8l4.5-4.51-.13-.46-5,5Z" transform="translate(0 14.66)"/><polygon class="cls-2" points="106.17 51.73 110.88 47.02 110.88 46.42 105.57 51.73 106.17 51.73"/><path class="cls-2" d="M128.45,14.8l3-3c0-.18,0-.35-.08-.52l-3.52,3.52Z" transform="translate(0 14.66)"/><path class="cls-2" d="M130.22,14.8l1.27-1.28c0-.2,0-.4,0-.6l-1.88,1.88Z" transform="translate(0 14.66)"/><polygon class="cls-2" points="107.94 51.73 110.88 48.79 110.88 48.19 107.34 51.73 107.94 51.73"/><polygon class="cls-2" points="109.71 51.73 110.88 50.56 110.88 49.96 109.11 51.73 109.71 51.73"/><polygon class="cls-2" points="110.88 51.73 110.88 51.73 110.88 51.73 110.88 51.73"/><g class="cls-3"><rect class="cls-2" x="120.61" y="5.47" width="54.61" height="0.42" transform="translate(39.3 120.91) rotate(-45)"/><rect class="cls-2" x="121.5" y="6.36" width="54.61" height="0.42" transform="translate(38.93 121.8) rotate(-45)"/><rect class="cls-2" x="119.72" y="4.59" width="54.61" height="0.42" transform="translate(39.67 120.03) rotate(-45)"/><rect class="cls-2" x="122.38" y="7.24" width="54.61" height="0.42" transform="translate(38.57 122.68) rotate(-45)"/><rect class="cls-2" x="123.27" y="8.13" width="54.61" height="0.42" transform="translate(38.2 123.57) rotate(-45)"/><rect class="cls-2" x="124.15" y="9.01" width="54.61" height="0.42" transform="translate(37.83 124.45) rotate(-45)"/><rect class="cls-2" x="125.04" y="9.9" width="54.61" height="0.42" transform="translate(37.47 125.34) rotate(-45)"/><rect class="cls-2" x="125.92" y="10.79" width="54.61" height="0.42" transform="translate(37.1 126.22) rotate(-45)"/><rect class="cls-2" x="126.81" y="11.67" width="54.61" height="0.42" transform="translate(36.73 127.11) rotate(-45)"/><rect class="cls-2" x="127.69" y="12.56" width="54.61" height="0.42" transform="translate(36.37 127.99) rotate(-45)"/><rect class="cls-2" x="128.58" y="13.44" width="54.61" height="0.42" transform="translate(36 128.87) rotate(-45)"/><rect class="cls-2" x="129.47" y="14.33" width="54.61" height="0.42" transform="translate(35.63 129.76) rotate(-45)"/><rect class="cls-2" x="130.35" y="15.21" width="54.61" height="0.42" transform="translate(35.26 130.64) rotate(-45)"/><rect class="cls-2" x="131.24" y="16.1" width="54.61" height="0.42" transform="translate(34.9 131.53) rotate(-45)"/><rect class="cls-2" x="132.12" y="16.98" width="54.61" height="0.42" transform="translate(34.53 132.42) rotate(-45)"/><rect class="cls-2" x="133.01" y="17.87" width="54.61" height="0.42" transform="translate(34.16 133.3) rotate(-45)"/><rect class="cls-2" x="133.89" y="18.75" width="54.61" height="0.42" transform="translate(33.79 134.19) rotate(-45)"/><rect class="cls-2" x="134.75" y="19.62" width="54.61" height="0.42" transform="translate(33.44 135.05) rotate(-45)"/><rect class="cls-2" x="135.64" y="20.5" width="54.61" height="0.42" transform="translate(33.08 135.94) rotate(-45)"/><rect class="cls-2" x="133.87" y="18.73" width="54.61" height="0.42" transform="translate(33.81 134.17) rotate(-45)"/><rect class="cls-2" x="136.52" y="21.39" width="54.61" height="0.42" transform="translate(32.71 136.82) rotate(-45)"/><rect class="cls-2" x="137.41" y="22.27" width="54.61" height="0.42" transform="translate(32.34 137.71) rotate(-45)"/><rect class="cls-2" x="138.3" y="23.16" width="54.61" height="0.42" transform="translate(31.98 138.59) rotate(-45)"/><rect class="cls-2" x="139.18" y="24.04" width="54.61" height="0.42" transform="translate(31.61 139.48) rotate(-45)"/><rect class="cls-2" x="140.07" y="24.93" width="54.61" height="0.42" transform="translate(31.24 140.37) rotate(-45)"/><rect class="cls-2" x="140.95" y="25.81" width="54.61" height="0.42" transform="translate(30.87 141.25) rotate(-45)"/></g><path class="cls-2" d="M157.66,1.69h-.19V8.88a10.72,10.72,0,0,1,10.41,11,10.71,10.71,0,0,1-10.41,11V37.7h.19c10.26,0,18.57-8.07,18.57-18S167.92,1.69,157.66,1.69Z" transform="translate(0 14.66)"/><path class="cls-2" d="M209.19,33.84a6.39,6.39,0,0,0,1-1Z" transform="translate(0 14.66)"/><path class="cls-2" d="M203.47,9.25l5-5c-.24-.13-.5-.27-.77-.4l-5.11,5.1Z" transform="translate(0 14.66)"/><path class="cls-2" d="M202.19,8.76l5.14-5.14-.81-.36-5.2,5.2Z" transform="translate(0 14.66)"/><path class="cls-2" d="M206.14,10.72c.39.78,4.92-4.92,4.92-4.92h0l-4.92,4.92Z" transform="translate(0 14.66)"/><path class="cls-2" d="M205.84,10.42l4.87-4.87L210,5.09,205.11,10A5,5,0,0,1,205.84,10.42Z" transform="translate(0 14.66)"/><path class="cls-2" d="M204.71,9.79l4.92-4.93-.74-.43-5,5C204.17,9.54,204.45,9.66,204.71,9.79Z" transform="translate(0 14.66)"/><path class="cls-2" d="M193,2.05l-7.54,7.54c0,.22,0,.44-.07.67l8.35-8.35Z" transform="translate(0 14.66)"/><path class="cls-2" d="M195.07,1.71l-9.75,9.75h0a4.3,4.3,0,0,0,0,.64L195.72,1.66Z" transform="translate(0 14.66)"/><path class="cls-2" d="M190.31,2.93,186,7.2a8.29,8.29,0,0,0-.32.92l5.59-5.6C191,2.64,190.64,2.78,190.31,2.93Z" transform="translate(0 14.66)"/><path class="cls-2" d="M197,1.6,185.37,13.18a4.91,4.91,0,0,0,.1.5L197.55,1.6Z" transform="translate(0 14.66)"/><path class="cls-2" d="M198.7,1.62l-13,13c.05.14.1.28.16.43L199.26,1.66Z" transform="translate(0 14.66)"/><path class="cls-2" d="M200.35,1.75,186.27,15.83l.21.38,14.4-14.4Z" transform="translate(0 14.66)"/><path class="cls-2" d="M193.39,10.47,187,16.92c.08.11.16.23.25.34l6.06-6.06A5.86,5.86,0,0,1,193.39,10.47Z" transform="translate(0 14.66)"/><path class="cls-2" d="M196.39,8.08l6-6L201.91,2l-6.28,6.27A5.38,5.38,0,0,1,196.39,8.08Z" transform="translate(0 14.66)"/><path class="cls-2" d="M198.22,8l5.67-5.67c-.16-.05-.32-.08-.48-.12L197.64,8Z" transform="translate(0 14.66)"/><path class="cls-2" d="M193.4,12.24l-5.66,5.66.29.3,5.56-5.56A1.84,1.84,0,0,1,193.4,12.24Z" transform="translate(0 14.66)"/><path class="cls-2" d="M194.1,13.31l-5.46,5.46.31.28,5.46-5.46Z" transform="translate(0 14.66)"/><path class="cls-2" d="M199.82,8.19l5.42-5.43-.44-.15-5.5,5.5Z" transform="translate(0 14.66)"/><path class="cls-2" d="M201.32,8.46l5.2-5.2-.42-.18-5.28,5.28Z" transform="translate(0 14.66)"/><path class="cls-2" d="M195.09,14.09l-5.48,5.48.35.24,5.5-5.5Z" transform="translate(0 14.66)"/><path class="cls-2" d="M196.25,14.7l-5.58,5.58.37.22,5.64-5.63Z" transform="translate(0 14.66)"/><path class="cls-2" d="M202.62,8.92l5.11-5.1-.4-.2-5.14,5.14Z" transform="translate(0 14.66)"/><path class="cls-2" d="M203.89,9.43l5-5-.39-.21-5,5Z" transform="translate(0 14.66)"/><path class="cls-2" d="M197.59,15.13l-5.79,5.8.39.19,5.89-5.88Z" transform="translate(0 14.66)"/><path class="cls-2" d="M205.11,10,210,5.09l-.37-.23-4.92,4.93Z" transform="translate(0 14.66)"/><path class="cls-2" d="M199,15.47l-6,6,.41.18,6.1-6.09Z" transform="translate(0 14.66)"/><path class="cls-2" d="M189.64,26.63l-5.25,5.25.31.28,5.24-5.25Z" transform="translate(0 14.66)"/><path class="cls-2" d="M206.14,10.72l4.92-4.92-.35-.25-4.87,4.87A1,1,0,0,1,206.14,10.72Z" transform="translate(0 14.66)"/><path class="cls-2" d="M200.42,15.84,194.24,22l.43.17L200.88,16Z" transform="translate(0 14.66)"/><path class="cls-2" d="M201.78,16.25l-6.23,6.24.45.14,6.23-6.23Z" transform="translate(0 14.66)"/><path class="cls-2" d="M190.6,27.43l-5.26,5.26.33.27L191,27.67Z" transform="translate(0 14.66)"/><path class="cls-2" d="M191.69,28.12l-5.34,5.34.35.24,5.37-5.37Z" transform="translate(0 14.66)"/><path class="cls-2" d="M203.1,16.71l-6.19,6.19.47.12,6.16-6.16Z" transform="translate(0 14.66)"/><path class="cls-2" d="M204.77,17.35l-6,6h0l5.94-5.94Z" transform="translate(0 14.66)"/><path class="cls-2" d="M193.22,28.9l-5.47,5.47,0,0,5.48-5.47Z" transform="translate(0 14.66)"/><path class="cls-2" d="M194,29.26,188.5,34.8l.38.21,5.58-5.58Z" transform="translate(0 14.66)"/><path class="cls-2" d="M205.59,17.71l-5.79,5.78.47.13L206,17.89Z" transform="translate(0 14.66)"/><path class="cls-2" d="M206.79,18.28l-5.66,5.66.4.2,5.65-5.66Z" transform="translate(0 14.66)"/><path class="cls-2" d="M195.31,29.76l-5.64,5.64.4.19,5.67-5.67C195.62,29.88,195.47,29.83,195.31,29.76Z" transform="translate(0 14.66)"/><path class="cls-2" d="M192.82,28.71l-5.44,5.44.37.22,5.47-5.47Z" transform="translate(0 14.66)"/><path class="cls-2" d="M204.35,17.18l-6.08,6.07h0s.21,0,.55.06l6-6Z" transform="translate(0 14.66)"/><path class="cls-2" d="M207.94,18.9l-5.7,5.7.32.27,5.76-5.75Z" transform="translate(0 14.66)"/><path class="cls-2" d="M196.65,30.19l-5.75,5.75.43.17,5.8-5.8Z" transform="translate(0 14.66)"/><path class="cls-2" d="M209,19.6l-5.91,5.91c.08.12.15.25.22.38L209.26,20Z" transform="translate(0 14.66)"/><path class="cls-2" d="M198.12,30.49l-5.92,5.92.46.14,6-6Z" transform="translate(0 14.66)"/><path class="cls-2" d="M209.73,20.65l-6.12,6.12a3.07,3.07,0,0,1,.07.53L210,21C209.89,20.89,209.81,20.77,209.73,20.65Z" transform="translate(0 14.66)"/><path class="cls-2" d="M199.75,30.63l-6.17,6.17.49.11,6.29-6.29C200.16,30.63,200,30.64,199.75,30.63Z" transform="translate(0 14.66)"/><path class="cls-2" d="M210.4,21.76l-6.84,6.84a2.57,2.57,0,0,1-1.77,1.76l-6.73,6.74.52.07,15-15Z" transform="translate(0 14.66)"/><path class="cls-2" d="M211,22.93,196.64,37.28l.57,0,14-14A3.79,3.79,0,0,0,211,22.93Z" transform="translate(0 14.66)"/><path class="cls-2" d="M211.5,24.2,198.37,37.32l.62,0,12.65-12.65C211.6,24.5,211.55,24.35,211.5,24.2Z" transform="translate(0 14.66)"/><path class="cls-2" d="M211.79,25.19,199.73,37.24l.68-.08L211.9,25.67C211.87,25.51,211.83,25.35,211.79,25.19Z" transform="translate(0 14.66)"/><path class="cls-2" d="M212,26.7,201.83,36.91l.78-.18,9.47-9.47C212.07,27.08,212.06,26.89,212,26.7Z" transform="translate(0 14.66)"/><path class="cls-2" d="M212,28.48l-7.74,7.74c.32-.11.63-.22,1-.35l6.69-6.69C212,29,212,28.72,212,28.48Z" transform="translate(0 14.66)"/><path class="cls-2" d="M211.26,31.17l-3.5,3.51c.47-.26,1-.54,1.43-.84h0l1-1A8,8,0,0,0,211.26,31.17Z" transform="translate(0 14.66)"/><path class="cls-2" d="M199.58,30.82a14.88,14.88,0,0,1-3.42-.59s-5.27-1.7-6.88-3.9L184,31.64s6.24,6.61,15.57,5.81Z" transform="translate(0 14.66)"/><path class="cls-2" d="M200.85,8.54l.53.1s4.42,1.49,4.82,2.27S211.12,6,211.12,6s-4.4-3.28-9.16-3.84c0,0-.41-.08-1.11-.17Z" transform="translate(0 14.66)"/><path class="cls-2" d="M112.62,19h6.74s4.07-1,3.77-4.22h8.26s.13,8.21-6.67,9.46l8.91,12.67h-9.58L115.9,25.68h-3.28Z" transform="translate(0 14.66)"/><polygon class="cls-2" points="61.86 16.88 76.96 51.64 68.06 51.79 64.71 44.11 50.54 43.87 53.6 36.94 62.03 37.33 57.55 27.68 61.86 16.88"/><polyline class="cls-4" points="0 64.89 0 79.52 14.62 79.52"/><polyline class="cls-5" points="14.86 79.04 14.86 64.42 0.24 64.42"/><polyline class="cls-6" points="21.2 64.89 21.2 79.52 35.82 79.52"/><polyline class="cls-7" points="36.06 79.04 36.06 64.42 21.44 64.42"/><polyline class="cls-8" points="50.55 79.4 60.89 71.91 50.55 64.42"/><polyline class="cls-9" points="50.05 64.54 39.71 72.03 50.05 79.52"/><polyline class="cls-10" points="64.78 64.89 64.78 79.52 79.4 79.52"/><polyline class="cls-11" points="79.64 79.04 79.64 64.42 65.02 64.42"/><polyline class="cls-12" points="85.98 64.89 85.98 79.52 100.6 79.52"/><polyline class="cls-13" points="100.84 79.04 100.84 64.42 86.22 64.42"/></g></g></svg>