<svg xmlns="http://www.w3.org/2000/svg" viewBox="0 0 46.43 37.87"><defs><style>.cls-1{fill:#efefef;}</style></defs><g id="Layer_2" data-name="Layer 2"><g id="Capa_1" data-name="Capa 1"><path class="cls-1" d="M21.81,25.73V36.26A1.34,1.34,0,0,0,23,37.6a1.3,1.3,0,0,0,1.45-1.29V23.14h0A2.59,2.59,0,0,0,21.81,25.73Z"/><path class="cls-1" d="M24.4,19.26V3.09a1.33,1.33,0,0,0-1.25-1.35A1.3,1.3,0,0,0,21.81,3V21.84h0A2.59,2.59,0,0,0,24.4,19.26Z"/><path class="cls-1" d="M24.11,2.86,23.11,0,10.65,9.22,10.8,30,2,17.85a1.09,1.09,0,0,0-2,.64V29.32l1.79.86c.24.13.5.3.78.47l0-7.59,10.8,14.81-.15-27.73Z"/><path class="cls-1" d="M21.81,25.73v9.9c1.15,1.3,2.59.51,2.59-.62V23.14h0A2.59,2.59,0,0,0,21.81,25.73Z"/><path class="cls-1" d="M24.4,19.26V2.93a1.32,1.32,0,0,0-1.25-1.34,1.29,1.29,0,0,0-1.34,1.29v19h0A2.59,2.59,0,0,0,24.4,19.26Z"/><path class="cls-1" d="M43.84,32.08a11.28,11.28,0,0,1,2.59-1.2V18.12a1.09,1.09,0,0,0-2-.64L35.41,29.82l0-20.66L23.11,0l-1,2.71,10.66,7.37.06,27.36a.09.09,0,0,0,.16.06L43.84,22.69Z"/><path class="cls-1" d="M15.33,11.11l4.16-2.55v26c0,1.71-1.8,3.14-4.16,3.3h0Z"/><path class="cls-1" d="M30.59,11.07,26.43,8.32v26.1c0,1.72,1.8,3.16,4.16,3.32h0Z"/><path class="cls-1" d="M4.17,28.11l.08,8A1.79,1.79,0,0,0,6,37.86h5.42Z"/><path class="cls-1" d="M0,28.94H2.59a0,0,0,0,1,0,0v6.84A2.09,2.09,0,0,1,.5,37.87H0a0,0,0,0,1,0,0V28.94A0,0,0,0,1,0,28.94Z"/><path class="cls-1" d="M43.84,28.52h.5a2.09,2.09,0,0,1,2.09,2.09v6.84a0,0,0,0,1,0,0H43.84a0,0,0,0,1,0,0V28.52A0,0,0,0,1,43.84,28.52Z" transform="translate(90.27 65.97) rotate(-180)"/><path class="cls-1" d="M42.2,27.84l-.08,8a1.78,1.78,0,0,1-1.79,1.77H34.92Z"/></g></g></svg>