<svg xmlns="http://www.w3.org/2000/svg" viewBox="0 0 223.39 257.94"><defs><style>.cls-1{fill:#eeeded;}.cls-2{fill:none;stroke:#eeeded;stroke-miterlimit:10;stroke-width:5px;}</style></defs><g id="Layer_2" data-name="Layer 2"><g id="Capa_1" data-name="Capa 1"><path class="cls-1" d="M105.76,135.73V171.5a4.51,4.51,0,0,0,3.85,4.54,4.39,4.39,0,0,0,4.93-4.36V127h0A8.78,8.78,0,0,0,105.76,135.73Z"/><path class="cls-1" d="M114.54,113.73V58.8a4.51,4.51,0,0,0-4.26-4.57,4.39,4.39,0,0,0-4.52,4.39v63.9h0A8.78,8.78,0,0,0,114.54,113.73Z"/><path class="cls-1" d="M113.55,58l-3.4-9.72L67.84,79.65l.49,70.48L38.34,109a3.71,3.71,0,0,0-6.7,2.19v36.77c2,1,4.06,1.94,6.07,3,.82.41,1.73,1,2.67,1.59l0-25.8L77.12,177l-.5-94.19Z"/><path class="cls-1" d="M105.76,135.73v33.64c3.87,4.41,8.78,1.72,8.78-2.11V127h0A8.78,8.78,0,0,0,105.76,135.73Z"/><path class="cls-1" d="M114.54,113.73V58.28a4.52,4.52,0,0,0-4.26-4.58,4.39,4.39,0,0,0-4.52,4.39v64.43h0A8.78,8.78,0,0,0,114.54,113.73Z"/><path class="cls-1" d="M180.6,157.3a37.31,37.31,0,0,1,8.78-4.07V109.89a3.71,3.71,0,0,0-6.7-2.19L152,149.61l-.19-70.17L110.15,48.32l-3.41,9.2,36.24,25,.2,93a.3.3,0,0,0,.54.17l36.88-50.31Z"/><path class="cls-1" d="M83.72,86.05,97.85,77.4v88.34c0,5.8-6.12,10.65-14.13,11.2h0Z"/><path class="cls-1" d="M135.57,85.92l-14.13-9.33v88.66c0,5.84,6.12,10.72,14.13,11.28h0Z"/><path class="cls-1" d="M45.82,143.81l.25,27.1a6.09,6.09,0,0,0,6.09,6H70.57Z"/><path class="cls-1" d="M31.64,146.64h8.79a0,0,0,0,1,0,0v23.23A7.09,7.09,0,0,1,33.34,177h-1.7a0,0,0,0,1,0,0V146.64A0,0,0,0,1,31.64,146.64Z"/><path class="cls-1" d="M180.6,145.22h1.7a7.09,7.09,0,0,1,7.09,7.09v23.23a0,0,0,0,1,0,0H180.6a0,0,0,0,1,0,0V145.22A0,0,0,0,1,180.6,145.22Z" transform="translate(369.98 320.76) rotate(-180)"/><path class="cls-1" d="M175,142.9l-.25,27.1a6.09,6.09,0,0,1-6.09,6H150.26Z"/><polygon class="cls-2" points="220.88 192.01 220.88 65.93 111.69 2.89 2.5 65.93 2.5 192.01 111.69 255.06 220.88 192.01"/></g></g></svg>