<svg xmlns="http://www.w3.org/2000/svg" viewBox="0 0 148.95 175.48"><defs><style>.cls-1{fill:#efefef;}</style></defs><g id="Layer_2" data-name="Layer 2"><g id="Capa_1" data-name="Capa 1"><path class="cls-1" d="M4.87,174.15a2.82,2.82,0,0,0,1.22-.24,4.18,4.18,0,0,0,1.07-.76l.88.91a4.06,4.06,0,0,1-3.13,1.42,4.15,4.15,0,0,1-3-1.18,4.3,4.3,0,0,1,0-6A4.25,4.25,0,0,1,5,167.09a4.09,4.09,0,0,1,3.14,1.39l-.87,1a3.6,3.6,0,0,0-1.09-.77A3,3,0,0,0,5,168.44a2.85,2.85,0,0,0-2.06.79,2.68,2.68,0,0,0-.84,2,2.8,2.8,0,0,0,.83,2.06A2.69,2.69,0,0,0,4.87,174.15Z"/><path class="cls-1" d="M19.79,174.27a4.19,4.19,0,0,1-3,1.2,4.19,4.19,0,0,1-3-1.2,4.27,4.27,0,0,1,0-6,4.19,4.19,0,0,1,3-1.2,4.19,4.19,0,0,1,3,1.2,4.27,4.27,0,0,1,0,6Zm-1-5.07a2.83,2.83,0,0,0-4.06,0,3,3,0,0,0,0,4.16,2.83,2.83,0,0,0,4.06,0,3,3,0,0,0,0-4.16Z"/><path class="cls-1" d="M32.29,167.29h1.36v8.1H32.17l-4.59-5.91v5.91H26.22v-8.1h1.36l4.71,6.05Z"/><path class="cls-1" d="M41.83,168.36a1.8,1.8,0,0,0-1,.24.8.8,0,0,0-.38.73.86.86,0,0,0,.38.76,5.85,5.85,0,0,0,1.63.56,4.34,4.34,0,0,1,1.87.85,2,2,0,0,1,.64,1.6,2.13,2.13,0,0,1-.8,1.72,3.22,3.22,0,0,1-2.1.66,4.93,4.93,0,0,1-3.37-1.31l.85-1a3.87,3.87,0,0,0,2.55,1.07,1.74,1.74,0,0,0,1.05-.29.89.89,0,0,0,.39-.75.85.85,0,0,0-.36-.73,4.24,4.24,0,0,0-1.26-.48,10.75,10.75,0,0,1-1.36-.39,3.13,3.13,0,0,1-.82-.47,2,2,0,0,1-.72-1.67,2,2,0,0,1,.82-1.73,3.32,3.32,0,0,1,2-.61,4.83,4.83,0,0,1,1.54.26,4,4,0,0,1,1.32.72l-.73,1a2.71,2.71,0,0,0-1-.54A4,4,0,0,0,41.83,168.36Z"/><path class="cls-1" d="M53.21,168.54v6.85H51.84v-6.85H49.39v-1.25h6.28v1.25Z"/><path class="cls-1" d="M67.09,169.92a2.35,2.35,0,0,1-1.75,2.53l2.12,2.94H65.72l-1.93-2.72H62v2.72H60.63v-8.1h3a4.32,4.32,0,0,1,2.65.63A2.35,2.35,0,0,1,67.09,169.92Zm-1.82,1.15a1.45,1.45,0,0,0,.42-1.16,1.23,1.23,0,0,0-.43-1.09,2.9,2.9,0,0,0-1.53-.29H62v2.9H63.7A2.47,2.47,0,0,0,65.27,171.07Z"/><path class="cls-1" d="M74.36,173.53a2.07,2.07,0,0,0,3,0,2.62,2.62,0,0,0,.56-1.76v-4.48h1.36v4.54a3.62,3.62,0,0,1-1,2.7,3.7,3.7,0,0,1-4.93,0,3.59,3.59,0,0,1-1-2.7v-4.54H73.8v4.48A2.62,2.62,0,0,0,74.36,173.53Z"/><path class="cls-1" d="M88.61,174.15a2.81,2.81,0,0,0,1.21-.24,4.18,4.18,0,0,0,1.07-.76l.88.91a4.05,4.05,0,0,1-3.12,1.42,4.18,4.18,0,0,1-3.05-1.18,4.3,4.3,0,0,1,0-6,4.28,4.28,0,0,1,3.12-1.21,4.11,4.11,0,0,1,3.15,1.39l-.87,1a3.63,3.63,0,0,0-1.1-.77,3,3,0,0,0-1.21-.22,2.87,2.87,0,0,0-2.06.79,2.67,2.67,0,0,0-.83,2,2.8,2.8,0,0,0,.82,2.06A2.72,2.72,0,0,0,88.61,174.15Z"/><path class="cls-1" d="M100,168.54v6.85H98.61v-6.85H96.15v-1.25h6.28v1.25Z"/><path class="cls-1" d="M114,174.27a4.44,4.44,0,0,1-6.07,0,4.25,4.25,0,0,1,0-6,4.44,4.44,0,0,1,6.07,0,4.27,4.27,0,0,1,0,6Zm-1-5.07a2.83,2.83,0,0,0-4.06,0,3,3,0,0,0,0,4.16,2.83,2.83,0,0,0,4.06,0,3,3,0,0,0,0-4.16Z"/><path class="cls-1" d="M126.84,169.92a2.35,2.35,0,0,1-1.75,2.53l2.12,2.94h-1.74l-1.93-2.72h-1.8v2.72h-1.36v-8.1h3a4.32,4.32,0,0,1,2.65.63A2.35,2.35,0,0,1,126.84,169.92ZM125,171.07a1.45,1.45,0,0,0,.42-1.16,1.23,1.23,0,0,0-.43-1.09,2.9,2.9,0,0,0-1.53-.29h-1.74v2.9h1.71A2.47,2.47,0,0,0,125,171.07Z"/><path class="cls-1" d="M138,167.29v1.29h-4.33v2.14h3.89v1.22h-3.89v2.16h4.47v1.29h-5.83v-8.1Z"/><path class="cls-1" d="M145.79,168.36a1.82,1.82,0,0,0-1,.24.82.82,0,0,0-.38.73.88.88,0,0,0,.38.76,6,6,0,0,0,1.63.56,4.39,4.39,0,0,1,1.88.85,2,2,0,0,1,.63,1.6,2.13,2.13,0,0,1-.8,1.72,3.18,3.18,0,0,1-2.1.66,5,5,0,0,1-3.37-1.31l.86-1a3.87,3.87,0,0,0,2.55,1.07,1.74,1.74,0,0,0,1-.29.9.9,0,0,0,.38-.75.85.85,0,0,0-.36-.73,4,4,0,0,0-1.26-.48,10.51,10.51,0,0,1-1.35-.39,3.2,3.2,0,0,1-.83-.47,2,2,0,0,1-.72-1.67,2,2,0,0,1,.82-1.73,3.34,3.34,0,0,1,2-.61,4.83,4.83,0,0,1,1.54.26,4.15,4.15,0,0,1,1.33.72l-.73,1a2.76,2.76,0,0,0-1-.54A4,4,0,0,0,145.79,168.36Z"/><path class="cls-1" d="M41.52,132h.16v23.23H37.43l-13.16-17v13.08a3.88,3.88,0,0,1-3.88,3.87h-.05V132h3.93L37.76,149.3V135.71A3.76,3.76,0,0,1,41.52,132Z"/><path class="cls-1" d="M77.55,152a12.75,12.75,0,0,1-17.42,0,12.2,12.2,0,0,1,0-17.15,12.75,12.75,0,0,1,17.42,0,12.2,12.2,0,0,1,0,17.15Zm-2.88-14.54a8.14,8.14,0,0,0-11.66,0,8.67,8.67,0,0,0,0,11.93,8.14,8.14,0,0,0,11.66,0,8.67,8.67,0,0,0,0-11.93Z"/><path class="cls-1" d="M106.2,155.18h-4.39L92.47,132h1a5,5,0,0,1,4.67,3.12L104,149.3l6-14.58a4.48,4.48,0,0,1,4.15-2.77h1.38Z"/><path class="cls-1" d="M3.92,136.36V132H2.79A2.79,2.79,0,0,0,0,134.74v5.5l1.65-.61A3.49,3.49,0,0,0,3.92,136.36Z"/><path class="cls-1" d="M0,145.12v10.06H3.92V141l-1.44.54A3.79,3.79,0,0,0,0,145.12Z"/><path class="cls-1" d="M138.71,132h-4.19l-5.67,12.88,3-1.1a5.12,5.12,0,0,0,2.9-2.73l1.9-4.3,6.45,14.65a6.42,6.42,0,0,0,5.88,3.83h0Z"/><path class="cls-1" d="M127.67,147.49l-3.39,7.69h.84a5.12,5.12,0,0,0,4.7-3.07l1-2.21,1.87-4.26Z"/><path class="cls-1" d="M137,145.49l-8.62,3.34.12-.91,9.23-3.56h0A1.46,1.46,0,0,1,137,145.49Z"/><path class="cls-1" d="M127.71,149.62l.29-2.07,10.32-4-.12.87a2,2,0,0,1-1,1.54Z"/><path class="cls-1" d="M69.78,81.36v33.29a4.19,4.19,0,0,0,3.59,4.23,4.08,4.08,0,0,0,4.58-4V73.19h0A8.17,8.17,0,0,0,69.78,81.36Z"/><path class="cls-1" d="M78,60.89V9.76A4.2,4.2,0,0,0,74,5.5a4.08,4.08,0,0,0-4.21,4.09V69.06h0A8.17,8.17,0,0,0,78,60.89Z"/><path class="cls-1" d="M77,9.05,73.86,0,34.49,29.17,35,94.76,7,56.44a3.45,3.45,0,0,0-6.24,2V92.7c1.89.9,3.78,1.81,5.65,2.75.76.38,1.61.93,2.49,1.47l0-24,34.15,46.83-.46-87.66Z"/><path class="cls-1" d="M69.78,81.36v31.31c3.6,4.1,8.17,1.6,8.17-2V73.19h0A8.17,8.17,0,0,0,69.78,81.36Z"/><path class="cls-1" d="M78,60.89V9.27A4.19,4.19,0,0,0,74,5,4.08,4.08,0,0,0,69.78,9.1v60h0A8.17,8.17,0,0,0,78,60.89Z"/><path class="cls-1" d="M139.44,101.44a34.31,34.31,0,0,1,8.17-3.79V57.31a3.45,3.45,0,0,0-6.23-2l-28.6,39L112.6,29,73.86,0,70.7,8.57l33.73,23.31.18,86.52a.28.28,0,0,0,.5.17l34.33-46.83Z"/><path class="cls-1" d="M49.27,35.12l13.15-8v82.22c0,5.4-5.69,9.91-13.15,10.43h0Z"/><path class="cls-1" d="M97.53,35,84.37,26.32v82.52c0,5.43,5.7,10,13.16,10.5h0Z"/><path class="cls-1" d="M14,88.88l.24,25.23a5.66,5.66,0,0,0,5.66,5.61H37Z"/><path class="cls-1" d="M.79,91.52H9a0,0,0,0,1,0,0v21.62a6.6,6.6,0,0,1-6.6,6.6H.79a0,0,0,0,1,0,0V91.52A0,0,0,0,1,.79,91.52Z"/><path class="cls-1" d="M139.43,90.19H141a6.6,6.6,0,0,1,6.6,6.6v21.62a0,0,0,0,1,0,0h-8.18a0,0,0,0,1,0,0V90.19A0,0,0,0,1,139.43,90.19Z" transform="translate(287.05 208.61) rotate(-180)"/><path class="cls-1" d="M134.23,88,134,113.26a5.67,5.67,0,0,1-5.67,5.61H111.2Z"/></g></g></svg>