<svg xmlns="http://www.w3.org/2000/svg" viewBox="0 0 359.28 340.02"><defs><style>.cls-1,.cls-2,.cls-3,.cls-5,.cls-6{fill:#aaa;}.cls-1,.cls-2,.cls-3,.cls-4,.cls-5,.cls-6{stroke:#aaa;}.cls-1,.cls-2,.cls-5,.cls-6{stroke-miterlimit:10;}.cls-2,.cls-3,.cls-4{stroke-linecap:round;}.cls-2,.cls-3,.cls-4,.cls-6{stroke-width:0.75px;}.cls-3,.cls-4{stroke-linejoin:round;}.cls-4{fill:none;}.cls-5{font-size:2.59px;font-family:ArialMT, Arial;}</style></defs><g id="Layer_2" data-name="Layer 2"><g id="Capa_1" data-name="Capa 1"><rect class="cls-1" x="315.07" y="274.38" width="8.35" height="2.83" transform="translate(638.49 551.59) rotate(180)"/><rect class="cls-1" x="0.5" y="1.67" width="5.66" height="189.67" transform="translate(6.66 193.01) rotate(180)"/><rect class="cls-1" x="1.26" y="190.79" width="27.06" height="4.64" transform="translate(29.57 386.21) rotate(180)"/><rect class="cls-1" x="306.68" y="274.93" width="15.75" height="4.56" transform="translate(629.12 554.43) rotate(180)"/><path class="cls-1" d="M6.16,7.17l14.77-5.5v5.5Zm0-5.5v5.5l14.77-5.5Z"/><path class="cls-2" d="M6.16,7.17l14.77-5.5v5.5Zm0-5.5v5.5l14.77-5.5Z"/><path class="cls-1" d="M28.31,196.21l52-5.66v5.66Zm0-5.66v5.66l52-5.66Z"/><path class="cls-2" d="M28.31,196.21l52-5.66v5.66Zm0-5.66v5.66l52-5.66Z"/><path class="cls-1" d="M80.33,270.38v3.77"/><path class="cls-2" d="M80.33,270.38v3.77"/><path class="cls-1" d="M80.33,274.15,86,190.55v83.6Zm0-83.6v83.6L86,190.55Z"/><path class="cls-2" d="M80.33,274.15,86,190.55v83.6Zm0-83.6v83.6L86,190.55Z"/><path class="cls-1" d="M86,194.32l1.73-3.77v3.77Zm0-3.77v3.77l1.73-3.77Z"/><path class="cls-2" d="M86,194.32l1.73-3.77v3.77Zm0-3.77v3.77l1.73-3.77Z"/><path class="cls-1" d="M117.41,194.32l24.2-3.77v3.77Zm0-3.77v3.77l24.2-3.77Z"/><path class="cls-2" d="M117.41,194.32l24.2-3.77v3.77Zm0-3.77v3.77l24.2-3.77Z"/><path class="cls-1" d="M86,274.15l55.63-5.66v5.66Zm0-5.66v5.66l55.63-5.66Z"/><path class="cls-2" d="M86,274.15l55.63-5.66v5.66Zm0-5.66v5.66l55.63-5.66Z"/><path class="cls-1" d="M141.61,274.15l3.61-83.6v83.6Zm0-83.6v83.6l3.61-83.6Z"/><path class="cls-2" d="M141.61,274.15l3.61-83.6v83.6Zm0-83.6v83.6l3.61-83.6Z"/><path class="cls-1" d="M145.22,194.32l5.66-3.77v3.77Zm0-3.77v3.77l5.66-3.77Z"/><path class="cls-2" d="M145.22,194.32l5.66-3.77v3.77Zm0-3.77v3.77l5.66-3.77Z"/><path class="cls-1" d="M150.88,194.32l3.77-5.65v5.65Zm0-5.65v5.65l3.77-5.65Z"/><path class="cls-2" d="M150.88,194.32l3.77-5.65v5.65Zm0-5.65v5.65l3.77-5.65Z"/><path class="cls-1" d="M145.22,274.15l9.43-5.66v5.66Zm0-5.66v5.66l9.43-5.66Z"/><path class="cls-2" d="M145.22,274.15l9.43-5.66v5.66Zm0-5.66v5.66l9.43-5.66Z"/><path class="cls-1" d="M154.65,327.89v5.66"/><path class="cls-2" d="M154.65,327.89v5.66"/><path class="cls-1" d="M154.65,333.55l5.5-65.06v65.06Zm0-65.06v65.06l5.5-65.06Z"/><path class="cls-2" d="M154.65,333.55l5.5-65.06v65.06Zm0-65.06v65.06l5.5-65.06Z"/><path class="cls-1" d="M154.65,194.32l14.77-3.77v3.77Zm0-3.77v3.77l14.77-3.77Z"/><path class="cls-2" d="M154.65,194.32l14.77-3.77v3.77Zm0-3.77v3.77l14.77-3.77Z"/><path class="cls-1" d="M199.12,194.32l1.89-3.77v3.77Zm0-3.77v3.77l1.89-3.77Z"/><path class="cls-2" d="M199.12,194.32l1.89-3.77v3.77Zm0-3.77v3.77l1.89-3.77Z"/><path class="cls-1" d="M160.15,274.15,201,268.49v5.66Zm0-5.66v5.66L201,268.49Z"/><path class="cls-2" d="M160.15,274.15,201,268.49v5.66Zm0-5.66v5.66L201,268.49Z"/><path class="cls-1" d="M160.15,333.55l43.21-5.66v5.66Zm0-5.66v5.66l43.21-5.66Z"/><path class="cls-2" d="M160.15,333.55l43.21-5.66v5.66Zm0-5.66v5.66l43.21-5.66Z"/><path class="cls-1" d="M201,274.15l3.61-83.6v83.6Zm0-83.6v83.6l3.61-83.6Z"/><path class="cls-2" d="M201,274.15l3.61-83.6v83.6Zm0-83.6v83.6l3.61-83.6Z"/><path class="cls-1" d="M226.94,153.47l1.88-3.77v3.77Zm0-3.77v3.77l1.88-3.77Z"/><path class="cls-2" d="M226.94,153.47l1.88-3.77v3.77Zm0-3.77v3.77l1.88-3.77Z"/><path class="cls-1" d="M228.82,153.47l3.77-40.39v40.39Zm0-40.39v40.39l3.77-40.39Z"/><path class="cls-2" d="M228.82,153.47l3.77-40.39v40.39Zm0-40.39v40.39l3.77-40.39Z"/><path class="cls-1" d="M119.3,153.47l3.77-40.39v40.39Zm0-40.39v40.39l3.77-40.39Z"/><path class="cls-2" d="M119.3,153.47l3.77-40.39v40.39Zm0-40.39v40.39l3.77-40.39Z"/><path class="cls-1" d="M123.07,153.47l27.81-3.77v3.77Zm0-3.77v3.77l27.81-3.77Z"/><path class="cls-2" d="M123.07,153.47l27.81-3.77v3.77Zm0-3.77v3.77l27.81-3.77Z"/><path class="cls-1" d="M150.88,155.35l3.77-5.65v5.65Zm0-5.65v5.65l3.77-5.65Z"/><path class="cls-2" d="M150.88,155.35l3.77-5.65v5.65Zm0-5.65v5.65l3.77-5.65Z"/><path class="cls-1" d="M154.65,153.47l39-3.77v3.77Zm0-3.77v3.77l39-3.77Z"/><path class="cls-2" d="M154.65,153.47l39-3.77v3.77Zm0-3.77v3.77l39-3.77Z"/><path class="cls-1" d="M214.84,7.17l14-5.5v5.5Zm0-5.5v5.5l14-5.5Z"/><path class="cls-2" d="M214.84,7.17l14-5.5v5.5Zm0-5.5v5.5l14-5.5Z"/><path class="cls-1" d="M228.82,64.84l3.77-63.17V64.84Zm0-63.17V64.84l3.77-63.17Z"/><path class="cls-2" d="M228.82,64.84l3.77-63.17V64.84Zm0-63.17V64.84l3.77-63.17Z"/><path class="cls-1" d="M232.59,7.17l8.33-5.5v5.5Zm0-5.5v5.5l8.33-5.5Z"/><path class="cls-2" d="M232.59,7.17l8.33-5.5v5.5Zm0-5.5v5.5l8.33-5.5Z"/><path class="cls-1" d="M87.71,7.17l31.59-5.5v5.5Zm0-5.5v5.5l31.59-5.5Z"/><path class="cls-2" d="M87.71,7.17l31.59-5.5v5.5Zm0-5.5v5.5l31.59-5.5Z"/><path class="cls-1" d="M119.3,64.84l3.77-63.17V64.84Zm0-63.17V64.84l3.77-63.17Z"/><path class="cls-2" d="M119.3,64.84l3.77-63.17V64.84Zm0-63.17V64.84l3.77-63.17Z"/><path class="cls-1" d="M123.07,7.17l3.61-5.5v5.5Zm0-5.5v5.5l3.61-5.5Z"/><path class="cls-2" d="M123.07,7.17l3.61-5.5v5.5Zm0-5.5v5.5l3.61-5.5Z"/><line class="cls-3" x1="45.13" y1="5.44" x2="85.98" y2="5.44"/><polyline class="cls-3" points="239.51 327.89 240.61 327.89 240.61 327.57 238.41 327.57 238.41 329.46 239.51 329.46 239.51 327.89"/><polyline class="cls-3" points="203.37 327.89 202.11 327.89 202.11 327.57 204.47 327.57 204.47 329.46 203.37 329.46 203.37 327.89"/><path class="cls-4" d="M238.33,293.63a34,34,0,0,0-34,34"/><polyline class="cls-3" points="238.41 293.63 238.41 327.57 236.52 327.57 236.52 293.63"/><line class="cls-3" x1="221.44" y1="327.89" x2="221.44" y2="327.89"/><line class="cls-3" x1="203.36" y1="327.89" x2="239.51" y2="327.89"/><line class="cls-3" x1="7.89" y1="190.55" x2="7.89" y2="188.67"/><line class="cls-3" x1="9.77" y1="190.55" x2="9.77" y2="186.94"/><line class="cls-3" x1="11.66" y1="190.55" x2="11.66" y2="185.05"/><line class="cls-3" x1="13.54" y1="190.55" x2="13.54" y2="183.17"/><line class="cls-3" x1="15.43" y1="190.55" x2="15.43" y2="181.28"/><line class="cls-3" x1="17.31" y1="190.55" x2="17.31" y2="179.39"/><line class="cls-3" x1="19.04" y1="190.55" x2="19.04" y2="177.67"/><line class="cls-3" x1="20.93" y1="190.55" x2="20.93" y2="175.78"/><line class="cls-3" x1="22.81" y1="190.55" x2="22.81" y2="173.89"/><line class="cls-3" x1="24.7" y1="190.55" x2="24.7" y2="172.01"/><line class="cls-3" x1="26.58" y1="190.55" x2="26.58" y2="170.12"/><line class="cls-3" x1="28.31" y1="190.55" x2="28.31" y2="170.12"/><line class="cls-3" x1="30.2" y1="190.55" x2="30.2" y2="170.12"/><line class="cls-3" x1="32.08" y1="190.55" x2="32.08" y2="170.12"/><line class="cls-3" x1="33.97" y1="190.55" x2="33.97" y2="170.12"/><line class="cls-3" x1="35.86" y1="190.55" x2="35.86" y2="170.12"/><line class="cls-3" x1="37.58" y1="190.55" x2="37.58" y2="170.12"/><line class="cls-3" x1="39.47" y1="190.55" x2="39.47" y2="170.12"/><line class="cls-3" x1="41.36" y1="190.55" x2="41.36" y2="170.12"/><line class="cls-3" x1="43.24" y1="190.55" x2="43.24" y2="170.12"/><line class="cls-3" x1="45.13" y1="190.55" x2="45.13" y2="170.12"/><line class="cls-3" x1="46.86" y1="190.55" x2="46.86" y2="170.12"/><line class="cls-3" x1="48.74" y1="190.55" x2="48.74" y2="170.12"/><line class="cls-3" x1="50.63" y1="190.55" x2="50.63" y2="170.12"/><line class="cls-3" x1="52.51" y1="190.55" x2="52.51" y2="170.12"/><line class="cls-3" x1="54.4" y1="190.55" x2="54.4" y2="170.12"/><line class="cls-3" x1="56.28" y1="190.55" x2="56.28" y2="170.12"/><line class="cls-3" x1="58.01" y1="190.55" x2="58.01" y2="170.12"/><line class="cls-3" x1="59.9" y1="190.55" x2="59.9" y2="170.12"/><line class="cls-3" x1="61.78" y1="190.55" x2="61.78" y2="170.12"/><line class="cls-3" x1="63.67" y1="190.55" x2="63.67" y2="170.12"/><line class="cls-3" x1="65.56" y1="190.55" x2="65.56" y2="170.12"/><line class="cls-3" x1="67.28" y1="190.55" x2="67.28" y2="170.12"/><line class="cls-3" x1="69.17" y1="190.55" x2="69.17" y2="170.12"/><line class="cls-3" x1="71.05" y1="190.55" x2="71.05" y2="170.12"/><line class="cls-3" x1="72.94" y1="190.55" x2="72.94" y2="170.12"/><line class="cls-3" x1="74.83" y1="190.55" x2="74.83" y2="170.12"/><line class="cls-3" x1="76.55" y1="190.55" x2="76.55" y2="170.12"/><line class="cls-3" x1="78.44" y1="190.55" x2="78.44" y2="170.12"/><line class="cls-3" x1="80.33" y1="190.55" x2="80.33" y2="170.12"/><line class="cls-3" x1="7.89" y1="188.67" x2="6.16" y2="188.67"/><line class="cls-3" x1="9.77" y1="186.94" x2="6.16" y2="186.94"/><line class="cls-3" x1="11.66" y1="185.05" x2="6.16" y2="185.05"/><line class="cls-3" x1="13.54" y1="183.17" x2="6.16" y2="183.17"/><line class="cls-3" x1="15.43" y1="181.28" x2="6.16" y2="181.28"/><line class="cls-3" x1="17.31" y1="179.39" x2="6.16" y2="179.39"/><line class="cls-3" x1="19.04" y1="177.67" x2="6.16" y2="177.67"/><line class="cls-3" x1="20.93" y1="175.78" x2="6.16" y2="175.78"/><line class="cls-3" x1="22.81" y1="173.89" x2="6.16" y2="173.89"/><line class="cls-3" x1="24.7" y1="172.01" x2="6.16" y2="172.01"/><line class="cls-3" x1="26.58" y1="170.12" x2="6.16" y2="170.12"/><line class="cls-3" x1="26.58" y1="168.39" x2="6.16" y2="168.39"/><line class="cls-3" x1="26.58" y1="166.51" x2="6.16" y2="166.51"/><line class="cls-3" x1="26.58" y1="164.62" x2="6.16" y2="164.62"/><line class="cls-3" x1="26.58" y1="162.74" x2="6.16" y2="162.74"/><line class="cls-3" x1="26.58" y1="160.85" x2="6.16" y2="160.85"/><line class="cls-3" x1="26.58" y1="159.12" x2="6.16" y2="159.12"/><line class="cls-3" x1="26.58" y1="157.24" x2="6.16" y2="157.24"/><line class="cls-3" x1="26.58" y1="155.35" x2="6.16" y2="155.35"/><line class="cls-3" x1="26.58" y1="153.47" x2="6.16" y2="153.47"/><line class="cls-3" x1="26.58" y1="151.58" x2="6.16" y2="151.58"/><line class="cls-3" x1="26.58" y1="149.7" x2="6.16" y2="149.7"/><line class="cls-3" x1="26.58" y1="147.97" x2="6.16" y2="147.97"/><line class="cls-3" x1="26.58" y1="146.08" x2="6.16" y2="146.08"/><line class="cls-3" x1="26.58" y1="144.2" x2="6.16" y2="144.2"/><line class="cls-3" x1="26.58" y1="142.31" x2="6.16" y2="142.31"/><line class="cls-3" x1="26.58" y1="140.42" x2="6.16" y2="140.42"/><line class="cls-3" x1="26.58" y1="138.7" x2="6.16" y2="138.7"/><line class="cls-3" x1="26.58" y1="136.81" x2="6.16" y2="136.81"/><line class="cls-3" x1="141.61" y1="227.95" x2="141.61" y2="227.95"/><line class="cls-3" x1="119.3" y1="194.48" x2="118.98" y2="194.48"/><line class="cls-3" x1="86.14" y1="194.48" x2="85.98" y2="194.48"/><line class="cls-3" x1="116.62" y1="194.48" x2="116.47" y2="194.48"/><line class="cls-3" x1="88.81" y1="194.48" x2="88.65" y2="194.48"/><polyline class="cls-4" points="80.33 274.15 154.65 274.15 154.65 327.89 154.65 327.89 154.65 333.55 203.37 333.55 203.37 327.89 160.15 327.89 160.15 274.15 204.62 274.15 204.62 190.55 199.12 190.55 199.12 194.32 201.01 194.32 201.01 268.49 145.22 268.49 145.22 194.32 169.42 194.32 169.42 190.55 154.65 190.55 154.65 188.66 150.88 188.66 150.88 190.55 117.41 190.55"/><polyline class="cls-4" points="0.81 195.42 80.33 196.21 80.33 270.38 80.33 274.15"/><polyline class="cls-4" points="117.41 190.55 117.41 194.32 141.61 194.32 141.61 268.49 85.98 268.49 85.98 194.32 87.71 194.32 87.71 190.55 6.16 190.55 6.16 7.17 20.93 7.17 20.93 1.67 0.5 1.67 0.5 7.17 0.5 7.17 0.81 195.42"/><line class="cls-3" x1="199.12" y1="327.89" x2="199.12" y2="274.15"/><line class="cls-3" x1="201.01" y1="327.89" x2="201.01" y2="274.15"/><polyline class="cls-3" points="228.82 149.69 226.94 149.69 226.94 153.47 232.59 153.47 232.59 113.08 228.82 113.08 228.82 149.69"/><polyline class="cls-3" points="123.07 149.69 123.07 113.08 119.3 113.08 119.3 153.47 150.88 153.47 150.88 155.35 154.65 155.35 154.65 153.47 193.62 153.47 193.62 149.69 123.07 149.69"/><polyline class="cls-4" points="275.96 251.84 275.96 274.15 353.12 274.15 353.12 251.84 275.96 251.84"/><path class="cls-3" d="M280.21,267a1.49,1.49,0,0,0,1.49,1.49"/><line class="cls-3" x1="281.78" y1="268.49" x2="292.78" y2="268.49"/><path class="cls-3" d="M292.7,268.49a1.49,1.49,0,0,0,1.49-1.49"/><line class="cls-3" x1="294.35" y1="266.92" x2="294.35" y2="257.33"/><path class="cls-3" d="M294.19,257.41a1.49,1.49,0,0,0-1.49-1.49"/><line class="cls-3" x1="292.78" y1="255.92" x2="281.78" y2="255.92"/><path class="cls-3" d="M281.7,255.92a1.49,1.49,0,0,0-1.49,1.49"/><line class="cls-3" x1="280.21" y1="257.33" x2="280.21" y2="266.92"/><path class="cls-3" d="M296.08,267a1.49,1.49,0,0,0,1.49,1.49"/><line class="cls-3" x1="297.65" y1="268.49" x2="308.8" y2="268.49"/><path class="cls-3" d="M308.73,268.49a1.49,1.49,0,0,0,1.49-1.49"/><line class="cls-3" x1="310.22" y1="266.92" x2="310.22" y2="257.33"/><path class="cls-3" d="M310.22,257.41a1.49,1.49,0,0,0-1.49-1.49"/><line class="cls-3" x1="308.8" y1="255.92" x2="297.65" y2="255.92"/><path class="cls-3" d="M297.57,255.92a1.49,1.49,0,0,0-1.49,1.49"/><line class="cls-3" x1="296.23" y1="257.33" x2="296.23" y2="266.92"/><path class="cls-3" d="M295.21,268.81a.7.7,0,0,0-.71.7.71.71,0,1,0,1.42,0,.7.7,0,0,0-.71-.7"/><path class="cls-3" d="M287.2,261a1.34,1.34,0,1,0,1.33,1.33A1.34,1.34,0,0,0,287.2,261"/><path class="cls-3" d="M303.23,261a1.34,1.34,0,1,0,1.33,1.33,1.34,1.34,0,0,0-1.33-1.33"/><polyline class="cls-4" points="278.95 192.44 353.12 192.44 353.12 214.75 278.95 214.75 278.95 192.44"/><polyline class="cls-3" points="232.59 113.08 232.59 7.17 240.92 7.17 240.92 1.67 214.84 1.67 214.84 7.17 228.82 7.17 228.82 113.08 232.59 64.84"/><line class="cls-3" x1="123.07" y1="127.54" x2="184.19" y2="127.54"/><line class="cls-3" x1="123.07" y1="129.42" x2="184.19" y2="129.42"/><line class="cls-3" x1="184.19" y1="127.54" x2="184.19" y2="149.7"/><polyline class="cls-3" points="123.07 113.08 123.07 7.17 126.68 7.17 126.68 1.67 87.71 1.67 87.71 7.17 119.3 7.17 119.3 113.08 123.07 113.08"/><line class="cls-3" x1="28.31" y1="134.92" x2="28.31" y2="168.39"/><line class="cls-3" x1="26.58" y1="134.92" x2="26.58" y2="170.12"/><line class="cls-3" x1="28.31" y1="168.39" x2="82.21" y2="168.39"/><line class="cls-3" x1="26.58" y1="170.12" x2="82.21" y2="170.12"/><line class="cls-3" x1="145.22" y1="227.95" x2="145.22" y2="227.95"/><line class="cls-3" x1="201.01" y1="194.48" x2="200.69" y2="194.48"/><line class="cls-3" x1="167.85" y1="194.48" x2="167.54" y2="194.48"/><line class="cls-3" x1="198.34" y1="194.48" x2="198.02" y2="194.48"/><line class="cls-3" x1="170.52" y1="194.48" x2="170.21" y2="194.48"/><polyline class="cls-3" points="170.05 191.49 170.05 190.39 168.01 190.39 168.01 190.55 167.85 190.55 167.85 190.08 170.21 190.08 170.21 191.49 170.05 191.49"/><polyline class="cls-3" points="167.85 194.79 167.85 194.32 168.01 194.32 168.01 194.48 170.05 194.48 170.05 193.38 170.21 193.38 170.21 194.79 167.85 194.79"/><polyline class="cls-3" points="170.21 192.75 170.21 191.65 170.52 191.65 170.68 191.65 170.68 192.75 170.21 192.75"/><polyline class="cls-3" points="170.05 193.38 170.05 194.16 169.74 194.16 169.74 190.71 170.05 190.71 170.05 191.49 170.21 191.49 170.21 190.71 170.52 190.71 170.52 191.65 170.21 191.65 170.21 192.75 170.52 192.75 170.52 194.16 170.21 194.16 170.21 193.38 170.05 193.38"/><polyline class="cls-3" points="198.34 194.79 198.34 193.38 198.49 193.38 198.49 194.48 200.54 194.48 200.54 194.32 200.69 194.32 200.69 194.79 198.34 194.79"/><polyline class="cls-3" points="198.34 191.49 198.34 190.08 200.69 190.08 200.69 190.55 200.54 190.55 200.54 190.39 198.49 190.39 198.49 191.49 198.34 191.49"/><polyline class="cls-3" points="197.87 192.75 197.87 191.65 198.34 191.65 198.34 192.75 197.87 192.75"/><polyline class="cls-3" points="198.34 193.38 198.34 194.16 198.02 194.16 198.02 192.75 198.34 192.75 198.34 191.65 198.02 191.65 198.02 190.71 198.34 190.71 198.34 191.49 198.49 191.49 198.49 190.71 198.81 190.71 198.81 194.16 198.49 194.16 198.49 193.38 198.34 193.38"/><polyline class="cls-3" points="196.61 221.66 196.61 194.16 198.02 194.16 198.02 221.66"/><line class="cls-3" x1="199.12" y1="192.44" x2="199.12" y2="192.44"/><line class="cls-3" x1="169.42" y1="192.44" x2="169.42" y2="192.44"/><line class="cls-3" x1="184.19" y1="192.44" x2="184.19" y2="192.44"/><line class="cls-3" x1="199.12" y1="193.38" x2="169.42" y2="193.38"/><path class="cls-3" d="M162.82,200.84A.86.86,0,0,0,162,200"/><line class="cls-3" x1="162.04" y1="199.82" x2="150.88" y2="199.82"/><path class="cls-3" d="M150.8,200a.87.87,0,0,0-.86.86"/><line class="cls-3" x1="149.94" y1="200.77" x2="149.94" y2="211.92"/><path class="cls-3" d="M149.94,212a.86.86,0,0,0,.86.86"/><line class="cls-3" x1="150.88" y1="212.86" x2="162.04" y2="212.86"/><path class="cls-3" d="M162,212.86a.85.85,0,0,0,.86-.86"/><line class="cls-3" x1="162.98" y1="211.92" x2="162.98" y2="200.77"/><path class="cls-3" d="M162,212.23a.22.22,0,0,0,.2-.23"/><line class="cls-3" x1="162.19" y1="211.92" x2="162.19" y2="200.77"/><path class="cls-3" d="M162.19,200.84a.22.22,0,0,0-.2-.23"/><path class="cls-3" d="M150.77,200.61a.23.23,0,0,0-.2.23"/><line class="cls-3" x1="150.57" y1="200.77" x2="150.57" y2="211.92"/><path class="cls-3" d="M150.57,212a.23.23,0,0,0,.2.23"/><path class="cls-3" d="M150.71,212.22a47.51,47.51,0,0,0,11.18,0"/><path class="cls-3" d="M161.89,200.63a46.46,46.46,0,0,0-11.18,0"/><path class="cls-3" d="M148.76,206a.55.55,0,1,0,.55.55.55.55,0,0,0-.55-.55"/><path class="cls-3" d="M156.3,205.16a1.34,1.34,0,1,0,1.34,1.34,1.33,1.33,0,0,0-1.34-1.34"/><polyline class="cls-4" points="145.22 216.64 167.54 216.64 167.54 194.32 145.22 194.32 145.22 216.64"/><line class="cls-3" x1="145.22" y1="238.79" x2="201.01" y2="238.79"/><line class="cls-3" x1="145.22" y1="240.68" x2="201.01" y2="240.68"/><path class="cls-3" d="M156.07,227.71a1.81,1.81,0,1,0,3.61,0"/><path class="cls-3" d="M159.68,227.71a1.81,1.81,0,0,0-3.61,0"/><path class="cls-3" d="M153.06,234.27a18.59,18.59,0,0,0,15.08-2.6"/><path class="cls-3" d="M168.17,231.56a4.64,4.64,0,0,0,0-7.69"/><path class="cls-3" d="M168.14,223.91a18.66,18.66,0,0,0-15.08-2.6"/><path class="cls-3" d="M153.06,221.38a1,1,0,0,0-.76,1"/><line class="cls-3" x1="152.45" y1="222.29" x2="152.45" y2="233.14"/><path class="cls-3" d="M152.3,233.21a1,1,0,0,0,.76,1"/><path class="cls-3" d="M146.25,235.21a16.49,16.49,0,0,0,5.73-.29"/><path class="cls-3" d="M151.87,234.69a.54.54,0,0,0,.38-.31.55.55,0,0,0,0-.5"/><path class="cls-3" d="M152.2,221.57a12.35,12.35,0,0,0,0,12.28"/><path class="cls-3" d="M152.22,221.7a.53.53,0,0,0,0-.49.56.56,0,0,0-.38-.32"/><path class="cls-3" d="M152,220.66a17,17,0,0,0-5.73-.29"/><path class="cls-3" d="M146.16,220.41a.71.71,0,0,0-.62.63"/><path class="cls-3" d="M145.59,221a61.17,61.17,0,0,0,0,13.39"/><path class="cls-3" d="M145.54,234.55a.71.71,0,0,0,.62.62"/><polyline class="cls-3" points="151.98 231.41 152.45 231.41 152.45 224.02 151.98 224.02"/><path class="cls-3" d="M151.9,224a.4.4,0,0,0-.39.39"/><line class="cls-3" x1="151.67" y1="224.34" x2="151.67" y2="230.94"/><path class="cls-3" d="M151.51,231a.4.4,0,0,0,.39.4"/><line class="cls-3" x1="157.79" y1="234.71" x2="151.82" y2="234.71"/><line class="cls-3" x1="157.79" y1="220.72" x2="151.82" y2="220.72"/><path class="cls-3" d="M193.54,253.88a.87.87,0,0,0,0,1.73.87.87,0,1,0,0-1.73"/><polyline class="cls-3" points="116.94 191.49 116.94 190.39 118.83 190.39 118.83 190.55 118.98 190.55 118.98 190.08 116.63 190.08 116.63 191.49 116.94 191.49"/><polyline class="cls-3" points="118.98 194.79 118.98 194.32 118.83 194.32 118.83 194.48 116.94 194.48 116.94 193.38 116.63 193.38 116.63 194.79 118.98 194.79"/><polyline class="cls-3" points="116.63 192.75 116.63 191.65 116.47 191.65 116.15 191.65 116.15 192.75 116.63 192.75"/><polyline class="cls-3" points="116.94 193.38 116.94 194.16 117.1 194.16 117.1 190.71 116.94 190.71 116.94 191.49 116.63 191.49 116.63 190.71 116.47 190.71 116.47 191.65 116.63 191.65 116.63 192.75 116.47 192.75 116.47 194.16 116.63 194.16 116.63 193.38 116.94 193.38"/><polyline class="cls-3" points="88.65 194.79 88.65 193.38 88.34 193.38 88.34 194.48 86.45 194.48 86.45 194.32 86.14 194.32 86.14 194.79 88.65 194.79"/><polyline class="cls-3" points="88.65 191.49 88.65 190.08 86.14 190.08 86.14 190.55 86.45 190.55 86.45 190.39 88.34 190.39 88.34 191.49 88.65 191.49"/><polyline class="cls-3" points="88.97 192.75 88.97 191.65 88.65 191.65 88.65 192.75 88.97 192.75"/><polyline class="cls-3" points="88.65 193.38 88.65 194.16 88.81 194.16 88.81 192.75 88.65 192.75 88.65 191.65 88.81 191.65 88.81 190.71 88.65 190.71 88.65 191.49 88.34 191.49 88.34 190.71 88.18 190.71 88.18 194.16 88.34 194.16 88.34 193.38 88.65 193.38"/><polyline class="cls-3" points="90.23 221.66 90.23 194.16 88.81 194.16 88.81 221.66"/><line class="cls-3" x1="87.71" y1="192.44" x2="87.71" y2="192.44"/><line class="cls-3" x1="117.41" y1="192.44" x2="117.41" y2="192.44"/><line class="cls-3" x1="102.64" y1="192.44" x2="102.64" y2="192.44"/><path class="cls-4" d="M88.73,221.82a27.58,27.58,0,0,0,27.58-27.58"/><path class="cls-4" d="M197.89,221.82a27.57,27.57,0,0,1-27.57-27.58"/><line class="cls-3" x1="87.71" y1="193.38" x2="117.41" y2="193.38"/><path class="cls-3" d="M124.87,200a.87.87,0,0,0-.86.86"/><line class="cls-3" x1="124.95" y1="199.82" x2="135.95" y2="199.82"/><path class="cls-3" d="M136.74,200.84a.87.87,0,0,0-.87-.86"/><line class="cls-3" x1="136.9" y1="200.77" x2="136.9" y2="211.92"/><path class="cls-3" d="M135.87,212.86a.86.86,0,0,0,.87-.86"/><line class="cls-3" x1="135.95" y1="212.86" x2="124.95" y2="212.86"/><path class="cls-3" d="M124,212a.86.86,0,0,0,.86.86"/><line class="cls-3" x1="124.01" y1="211.92" x2="124.01" y2="200.77"/><path class="cls-3" d="M124.64,212a.23.23,0,0,0,.21.23"/><line class="cls-3" x1="124.64" y1="211.92" x2="124.64" y2="200.77"/><path class="cls-3" d="M124.85,200.61a.23.23,0,0,0-.21.23"/><path class="cls-3" d="M136.11,200.84a.23.23,0,0,0-.21-.23"/><line class="cls-3" x1="136.27" y1="200.77" x2="136.27" y2="211.92"/><path class="cls-3" d="M135.9,212.23a.23.23,0,0,0,.21-.23"/><path class="cls-3" d="M124.79,212.22a47.43,47.43,0,0,0,11.17,0"/><path class="cls-3" d="M136,200.63a46.38,46.38,0,0,0-11.17,0"/><path class="cls-3" d="M138.07,206a.55.55,0,0,0,0,1.1.55.55,0,0,0,0-1.1"/><path class="cls-3" d="M130.37,205.16a1.34,1.34,0,1,0,1.34,1.34,1.34,1.34,0,0,0-1.34-1.34"/><polyline class="cls-4" points="141.61 216.64 119.3 216.64 119.3 194.32 141.61 194.32 141.61 216.64"/><line class="cls-3" x1="141.61" y1="238.79" x2="85.98" y2="238.79"/><line class="cls-3" x1="141.61" y1="240.68" x2="85.98" y2="240.68"/><path class="cls-3" d="M127,227.71a1.81,1.81,0,1,0,3.61,0"/><path class="cls-3" d="M130.61,227.71a1.81,1.81,0,0,0-3.61,0"/><path class="cls-3" d="M118.53,231.67a18.6,18.6,0,0,0,15.08,2.6"/><path class="cls-3" d="M118.51,223.87a4.64,4.64,0,0,0,0,7.69"/><path class="cls-3" d="M133.61,221.31a18.68,18.68,0,0,0-15.08,2.6"/><path class="cls-3" d="M134.38,222.37a1,1,0,0,0-.76-1"/><line class="cls-3" x1="134.54" y1="222.29" x2="134.54" y2="233.14"/><path class="cls-3" d="M133.62,234.2a1,1,0,0,0,.76-1"/><path class="cls-3" d="M134.86,234.92a16.43,16.43,0,0,0,5.72.29"/><path class="cls-3" d="M134.45,233.88a.58.58,0,0,0,0,.5.54.54,0,0,0,.38.31"/><path class="cls-3" d="M134.47,233.85a12.3,12.3,0,0,0,0-12.28"/><path class="cls-3" d="M134.81,220.89a.56.56,0,0,0-.38.32.56.56,0,0,0,0,.49"/><path class="cls-3" d="M140.58,220.37a16.93,16.93,0,0,0-5.72.29"/><path class="cls-3" d="M141.13,221a.7.7,0,0,0-.61-.63"/><path class="cls-3" d="M141.09,234.41a62.43,62.43,0,0,0,0-13.39"/><path class="cls-3" d="M140.52,235.17a.7.7,0,0,0,.61-.62"/><polyline class="cls-3" points="134.85 231.41 134.54 231.41 134.54 224.02 134.85 224.02"/><path class="cls-3" d="M135.17,224.41a.4.4,0,0,0-.4-.39"/><line class="cls-3" x1="135.17" y1="224.34" x2="135.17" y2="230.94"/><path class="cls-3" d="M134.77,231.41a.4.4,0,0,0,.4-.4"/><line class="cls-3" x1="129.04" y1="234.71" x2="135.01" y2="234.71"/><line class="cls-3" x1="129.04" y1="220.72" x2="135.01" y2="220.72"/><path class="cls-3" d="M93.29,253.88a.87.87,0,1,0,.86.86.85.85,0,0,0-.86-.86"/><line class="cls-3" x1="85.98" y1="240.68" x2="92.43" y2="254.98"/><line class="cls-3" x1="85.98" y1="268.49" x2="94.15" y2="255.13"/><line class="cls-3" x1="141.61" y1="268.49" x2="93.68" y2="253.72"/><line class="cls-3" x1="141.61" y1="240.68" x2="93.05" y2="253.72"/><polyline class="cls-4" points="283.35 133.04 283.35 166.51 340.23 166.51 340.23 133.04 283.35 133.04"/><line class="cls-3" x1="316.82" y1="133.04" x2="316.82" y2="133.04"/><path class="cls-3" d="M317.25,130.09a17.79,17.79,0,0,0-.63,3.07"/><path class="cls-3" d="M317.38,129.5c0,.17-.07.35-.1.52"/><polyline class="cls-3" points="317.6 129.42 317.29 122.51 317.29 122.35 316.82 121.72"/><path class="cls-3" d="M316.87,121.77a.21.21,0,0,0-.17,0,.25.25,0,0,0-.16.1"/><line class="cls-3" x1="316.66" y1="121.72" x2="316.66" y2="133.04"/><path class="cls-3" d="M332.73,133.16a17.79,17.79,0,0,0-.63-3.07"/><path class="cls-3" d="M332.07,130a11.62,11.62,0,0,0-.7-2.45"/><path class="cls-3" d="M330.6,126a10.51,10.51,0,0,0,.61,1.65"/><path class="cls-3" d="M330.81,125.6a1.14,1.14,0,0,0,0,.37"/><path class="cls-3" d="M331,124.86a1.66,1.66,0,0,0-.29.7"/><path class="cls-3" d="M331.59,124l-.68,1"/><path class="cls-3" d="M331.6,123.91a4.29,4.29,0,0,0,.42-.68"/><line class="cls-3" x1="332.22" y1="123.14" x2="332.22" y2="122.51"/><path class="cls-3" d="M332.1,122.64a5.92,5.92,0,0,0-1.49-.49"/><path class="cls-3" d="M330.64,122.15a29.89,29.89,0,0,0-11.77,0"/><path class="cls-3" d="M318.74,122.15a5.92,5.92,0,0,0-1.49.49"/><line class="cls-3" x1="317.29" y1="122.51" x2="317.45" y2="123.14"/><path class="cls-3" d="M317.33,123.23a4.29,4.29,0,0,0,.42.68"/><path class="cls-3" d="M318.44,125l-.68-1"/><path class="cls-3" d="M318.67,125.56a1.66,1.66,0,0,0-.29-.7"/><path class="cls-3" d="M318.52,126a1.14,1.14,0,0,0,0-.37"/><path class="cls-3" d="M318.15,127.67a11.58,11.58,0,0,0,.6-1.65"/><path class="cls-3" d="M318,127.57a11.08,11.08,0,0,0-.71,2.45"/><path class="cls-3" d="M317.25,130.09a17.79,17.79,0,0,0-.63,3.07"/><line class="cls-3" x1="333" y1="133.04" x2="333" y2="121.72"/><path class="cls-3" d="M333,121.83a.21.21,0,0,0-.15-.1.24.24,0,0,0-.18,0"/><polyline class="cls-3" points="332.69 121.72 332.22 122.35 332.22 122.51 332.22 123.14 332.06 129.42"/><path class="cls-3" d="M332.07,130c0-.17-.07-.35-.1-.52"/><path class="cls-3" d="M332.73,133.16a17.79,17.79,0,0,0-.63-3.07"/><line class="cls-3" x1="332.85" y1="135.55" x2="332.85" y2="134.45"/><line class="cls-3" x1="332.69" y1="134.14" x2="332.69" y2="133.04"/><line class="cls-3" x1="332.69" y1="136.65" x2="332.85" y2="135.55"/><line class="cls-3" x1="332.06" y1="138.07" x2="332.38" y2="137.6"/><line class="cls-3" x1="332.53" y1="137.12" x2="332.69" y2="136.65"/><line class="cls-3" x1="332.06" y1="138.07" x2="332.06" y2="138.54"/><polyline class="cls-3" points="332.22 139.01 332.22 139.48 332.69 140.11 332.85 140.11 332.85 139.95 333 139.95 333 139.17"/><line class="cls-3" x1="333" y1="138.85" x2="333" y2="137.91"/><polyline class="cls-3" points="333 137.44 333 136.65 333 135.71"/><line class="cls-3" x1="333" y1="135.24" x2="333" y2="134.45"/><line class="cls-3" x1="333" y1="133.98" x2="333" y2="133.04"/><line class="cls-3" x1="316.82" y1="133.04" x2="316.82" y2="134.14"/><polyline class="cls-3" points="316.82 134.61 316.66 135.55 316.82 136.65 316.98 137.12"/><polyline class="cls-3" points="317.13 137.6 317.45 138.07 317.76 138.54 317.92 138.7"/><polyline class="cls-3" points="318.23 139.01 318.39 139.01 319.02 139.48 319.49 139.8"/><polyline class="cls-3" points="319.96 139.8 320.59 139.95 321.53 140.11"/><polyline class="cls-3" points="322 140.11 322.95 140.27 323.58 140.27"/><polyline class="cls-3" points="324.05 140.27 324.83 140.27 325.46 140.27"/><polyline class="cls-3" points="325.93 140.27 326.56 140.27 327.5 140.11"/><polyline class="cls-3" points="327.98 140.11 328.92 139.95 329.55 139.8"/><polyline class="cls-3" points="330.02 139.8 330.49 139.48 331.12 139.01 331.27 139.01"/><polyline class="cls-3" points="331.59 138.7 331.75 138.54 332.06 138.07 332.38 137.6"/><polyline class="cls-3" points="332.53 137.12 332.69 136.65 332.85 135.55 332.85 134.45"/><line class="cls-3" x1="332.69" y1="134.14" x2="332.69" y2="133.04"/><line class="cls-3" x1="316.66" y1="133.04" x2="316.66" y2="133.98"/><line class="cls-3" x1="316.66" y1="134.45" x2="316.66" y2="135.24"/><polyline class="cls-3" points="316.66 135.71 316.66 136.65 316.66 137.44"/><line class="cls-3" x1="316.66" y1="137.91" x2="316.66" y2="138.85"/><polyline class="cls-3" points="316.66 139.17 316.66 139.95 316.66 140.11 316.82 140.11 317.29 139.48 317.45 139.01"/><line class="cls-3" x1="317.45" y1="138.54" x2="317.45" y2="138.07"/><line class="cls-3" x1="316.82" y1="136.65" x2="316.98" y2="137.12"/><line class="cls-3" x1="317.13" y1="137.6" x2="317.45" y2="138.07"/><line class="cls-3" x1="316.66" y1="135.55" x2="316.82" y2="136.65"/><line class="cls-3" x1="316.82" y1="133.04" x2="316.82" y2="134.14"/><line class="cls-3" x1="316.82" y1="134.61" x2="316.66" y2="135.55"/><line class="cls-3" x1="306.76" y1="133.04" x2="306.76" y2="133.04"/><path class="cls-3" d="M306.65,133.16a17.79,17.79,0,0,0-.63-3.07"/><path class="cls-3" d="M306,130c0-.17-.06-.35-.1-.52"/><polyline class="cls-3" points="305.98 129.42 306.13 122.51 306.29 122.35 306.76 121.72"/><path class="cls-3" d="M306.88,121.83a.23.23,0,0,0-.15-.1.23.23,0,0,0-.18,0"/><line class="cls-3" x1="306.92" y1="121.72" x2="306.92" y2="133.04"/><path class="cls-3" d="M291.32,130.09a17.79,17.79,0,0,0-.63,3.07"/><path class="cls-3" d="M292.06,127.57a11.05,11.05,0,0,0-.7,2.45"/><path class="cls-3" d="M292.06,127.67a11.58,11.58,0,0,0,.6-1.65"/><path class="cls-3" d="M292.59,126a.92.92,0,0,0,0-.37"/><path class="cls-3" d="M292.75,125.56a2,2,0,0,0-.29-.7"/><path class="cls-3" d="M292.35,125l-.67-1"/><path class="cls-3" d="M291.25,123.23a3.2,3.2,0,0,0,.42.68"/><line class="cls-3" x1="291.36" y1="123.14" x2="291.36" y2="122.51"/><path class="cls-3" d="M292.81,122.15a5.92,5.92,0,0,0-1.49.49"/><path class="cls-3" d="M304.55,122.15a29.89,29.89,0,0,0-11.77,0"/><path class="cls-3" d="M306,122.64a6.2,6.2,0,0,0-1.49-.49"/><line class="cls-3" x1="306.13" y1="122.51" x2="306.13" y2="123.14"/><path class="cls-3" d="M305.67,123.91a3.66,3.66,0,0,0,.42-.68"/><path class="cls-3" d="M305.66,124l-.67,1"/><path class="cls-3" d="M304.88,124.86a2,2,0,0,0-.29.7"/><path class="cls-3" d="M304.73,125.6a.92.92,0,0,0,0,.37"/><path class="cls-3" d="M304.68,126a10.48,10.48,0,0,0,.6,1.65"/><path class="cls-3" d="M306,130a11.05,11.05,0,0,0-.7-2.45"/><path class="cls-3" d="M306.65,133.16a17.79,17.79,0,0,0-.63-3.07"/><line class="cls-3" x1="290.58" y1="133.04" x2="290.58" y2="121.72"/><path class="cls-3" d="M290.79,121.77a.23.23,0,0,0-.18,0,.23.23,0,0,0-.15.1"/><polyline class="cls-3" points="290.89 121.72 291.36 122.35 291.36 122.51 291.36 123.14 291.52 129.42"/><path class="cls-3" d="M291.46,129.5c0,.17-.07.35-.1.52"/><path class="cls-3" d="M291.32,130.09a17.79,17.79,0,0,0-.63,3.07"/><line class="cls-3" x1="290.73" y1="135.55" x2="290.73" y2="134.45"/><line class="cls-3" x1="290.73" y1="134.14" x2="290.89" y2="133.04"/><line class="cls-3" x1="290.89" y1="136.65" x2="290.73" y2="135.55"/><line class="cls-3" x1="291.36" y1="138.07" x2="291.21" y2="137.6"/><line class="cls-3" x1="291.05" y1="137.12" x2="290.89" y2="136.65"/><line class="cls-3" x1="291.36" y1="138.07" x2="291.36" y2="138.54"/><polyline class="cls-3" points="291.36 139.01 291.36 139.48 290.89 140.11 290.73 140.11 290.58 139.95 290.58 139.17"/><line class="cls-3" x1="290.58" y1="138.85" x2="290.58" y2="137.91"/><polyline class="cls-3" points="290.58 137.44 290.58 136.65 290.58 135.71"/><line class="cls-3" x1="290.58" y1="135.24" x2="290.58" y2="134.45"/><line class="cls-3" x1="290.58" y1="133.98" x2="290.58" y2="133.04"/><line class="cls-3" x1="306.76" y1="133.04" x2="306.76" y2="134.14"/><polyline class="cls-3" points="306.76 134.61 306.92 135.55 306.61 136.65 306.45 137.12"/><polyline class="cls-3" points="306.29 137.6 306.13 138.07 305.66 138.54 305.66 138.7"/><polyline class="cls-3" points="305.35 139.01 305.19 139.01 304.56 139.48 303.93 139.8"/><polyline class="cls-3" points="303.46 139.8 302.83 139.95 302.05 140.11"/><polyline class="cls-3" points="301.58 140.11 300.63 140.27 299.85 140.27"/><polyline class="cls-3" points="299.53 140.27 298.75 140.27 298.12 140.27"/><polyline class="cls-3" points="297.65 140.27 297.02 140.27 296.08 140.11"/><polyline class="cls-3" points="295.61 140.11 294.66 139.95 294.03 139.8"/><polyline class="cls-3" points="293.56 139.8 292.93 139.48 292.31 139.01"/><polyline class="cls-3" points="291.99 138.7 291.83 138.54 291.36 138.07 291.2 137.6"/><polyline class="cls-3" points="291.05 137.12 290.89 136.65 290.73 135.55 290.73 134.45"/><line class="cls-3" x1="290.73" y1="134.14" x2="290.89" y2="133.04"/><line class="cls-3" x1="306.92" y1="133.04" x2="306.92" y2="133.98"/><line class="cls-3" x1="306.92" y1="134.45" x2="306.92" y2="135.24"/><polyline class="cls-3" points="306.92 135.71 306.92 136.65 306.92 137.44"/><line class="cls-3" x1="306.92" y1="137.91" x2="306.92" y2="138.85"/><polyline class="cls-3" points="306.92 139.17 306.92 139.95 306.92 140.11 306.76 140.11 306.29 139.48 306.13 139.48 306.13 139.01"/><line class="cls-3" x1="306.13" y1="138.54" x2="306.13" y2="138.07"/><line class="cls-3" x1="306.6" y1="136.65" x2="306.45" y2="137.12"/><line class="cls-3" x1="306.29" y1="137.6" x2="306.13" y2="138.07"/><line class="cls-3" x1="306.92" y1="135.55" x2="306.6" y2="136.65"/><line class="cls-3" x1="306.76" y1="133.04" x2="306.76" y2="134.14"/><line class="cls-3" x1="306.76" y1="134.61" x2="306.92" y2="135.55"/><line class="cls-3" x1="316.82" y1="166.51" x2="316.82" y2="166.51"/><path class="cls-3" d="M316.62,166.54a18.1,18.1,0,0,0,.63,3.08"/><path class="cls-3" d="M317.28,169.68c0,.18.07.35.1.53"/><polyline class="cls-3" points="317.6 170.12 317.29 177.04 317.29 177.19 316.82 177.82"/><path class="cls-3" d="M316.54,177.87a.26.26,0,0,0,.16.11.25.25,0,0,0,.17,0"/><line class="cls-3" x1="316.66" y1="177.67" x2="316.66" y2="166.51"/><path class="cls-3" d="M332.1,169.62a18.1,18.1,0,0,0,.63-3.08"/><path class="cls-3" d="M331.37,172.14a11.54,11.54,0,0,0,.7-2.46"/><path class="cls-3" d="M331.21,172a11.31,11.31,0,0,0-.61,1.65"/><path class="cls-3" d="M330.83,173.73a1.15,1.15,0,0,0,0,.37"/><path class="cls-3" d="M330.68,174.15a1.62,1.62,0,0,0,.29.69"/><path class="cls-3" d="M330.91,174.76c.22.32.45.64.68,1"/><path class="cls-3" d="M332,176.47a4.29,4.29,0,0,0-.42-.68"/><line class="cls-3" x1="332.22" y1="176.25" x2="332.22" y2="177.04"/><path class="cls-3" d="M330.61,177.56a5.94,5.94,0,0,0,1.49-.5"/><path class="cls-3" d="M318.87,177.56a30.27,30.27,0,0,0,11.77,0"/><path class="cls-3" d="M317.25,177.06a5.94,5.94,0,0,0,1.49.5"/><line class="cls-3" x1="317.29" y1="177.04" x2="317.45" y2="176.25"/><path class="cls-3" d="M317.75,175.79a4.29,4.29,0,0,0-.42.68"/><path class="cls-3" d="M317.76,175.71c.23-.31.46-.63.68-1"/><path class="cls-3" d="M318.38,174.84a1.62,1.62,0,0,0,.29-.69"/><path class="cls-3" d="M318.54,174.1a1.15,1.15,0,0,0,0-.37"/><path class="cls-3" d="M318.75,173.68a12.54,12.54,0,0,0-.6-1.65"/><path class="cls-3" d="M317.28,169.68a11,11,0,0,0,.71,2.46"/><path class="cls-3" d="M316.62,166.54a18.1,18.1,0,0,0,.63,3.08"/><line class="cls-3" x1="333" y1="166.51" x2="333" y2="177.67"/><path class="cls-3" d="M332.63,177.94a.3.3,0,0,0,.18,0,.22.22,0,0,0,.15-.11"/><polyline class="cls-3" points="332.69 177.82 332.22 177.19 332.22 177.04 332.22 176.25 332.06 170.12"/><path class="cls-3" d="M332,170.21c0-.18.07-.35.1-.53"/><path class="cls-3" d="M332.1,169.62a18.1,18.1,0,0,0,.63-3.08"/><line class="cls-3" x1="332.85" y1="163.99" x2="332.85" y2="164.94"/><line class="cls-3" x1="332.69" y1="165.41" x2="332.69" y2="166.51"/><line class="cls-3" x1="332.69" y1="162.89" x2="332.85" y2="163.99"/><line class="cls-3" x1="332.06" y1="161.48" x2="332.38" y2="161.95"/><line class="cls-3" x1="332.53" y1="162.42" x2="332.69" y2="162.89"/><line class="cls-3" x1="332.06" y1="161.48" x2="332.06" y2="161.01"/><polyline class="cls-3" points="332.22 160.54 332.22 160.07 332.69 159.44 332.85 159.44 332.85 159.59 333 159.59 333 160.22"/><line class="cls-3" x1="333" y1="160.69" x2="333" y2="161.64"/><polyline class="cls-3" points="333 162.11 333 162.9 333 163.68"/><line class="cls-3" x1="333" y1="164.15" x2="333" y2="165.09"/><line class="cls-3" x1="333" y1="165.57" x2="333" y2="166.51"/><line class="cls-3" x1="316.82" y1="166.51" x2="316.82" y2="165.41"/><polyline class="cls-3" points="316.82 164.94 316.66 164 316.82 162.9 316.98 162.42"/><polyline class="cls-3" points="317.13 161.95 317.45 161.48 317.76 161.01 317.92 160.85"/><polyline class="cls-3" points="318.23 160.54 318.39 160.38 319.02 160.07 319.49 159.75"/><polyline class="cls-3" points="319.96 159.59 320.59 159.44 321.53 159.44"/><polyline class="cls-3" points="322 159.44 322.95 159.28 323.58 159.28"/><polyline class="cls-3" points="324.05 159.28 324.83 159.28 325.46 159.28"/><polyline class="cls-3" points="325.93 159.28 326.56 159.28 327.5 159.44"/><polyline class="cls-3" points="327.98 159.44 328.92 159.44 329.55 159.59"/><polyline class="cls-3" points="330.02 159.75 330.49 160.07 331.12 160.38 331.27 160.54"/><polyline class="cls-3" points="331.59 160.85 331.75 161.01 332.06 161.48 332.38 161.95"/><polyline class="cls-3" points="332.53 162.42 332.69 162.9 332.85 164 332.85 164.94"/><line class="cls-3" x1="332.69" y1="165.41" x2="332.69" y2="166.51"/><line class="cls-3" x1="316.66" y1="166.51" x2="316.66" y2="165.57"/><line class="cls-3" x1="316.66" y1="165.09" x2="316.66" y2="164.15"/><polyline class="cls-3" points="316.66 163.68 316.66 162.9 316.66 162.11"/><line class="cls-3" x1="316.66" y1="161.64" x2="316.66" y2="160.69"/><polyline class="cls-3" points="316.66 160.22 316.66 159.59 316.66 159.44 316.82 159.44 317.29 160.07 317.45 160.54"/><line class="cls-3" x1="317.45" y1="161.01" x2="317.45" y2="161.48"/><line class="cls-3" x1="316.82" y1="162.89" x2="316.98" y2="162.42"/><line class="cls-3" x1="317.13" y1="161.95" x2="317.45" y2="161.48"/><line class="cls-3" x1="316.66" y1="163.99" x2="316.82" y2="162.89"/><line class="cls-3" x1="316.82" y1="166.51" x2="316.82" y2="165.41"/><line class="cls-3" x1="316.82" y1="164.94" x2="316.66" y2="163.99"/><line class="cls-3" x1="306.76" y1="166.51" x2="306.76" y2="166.51"/><path class="cls-3" d="M306,169.62a18.1,18.1,0,0,0,.63-3.08"/><path class="cls-3" d="M305.88,170.21c0-.18.07-.35.1-.53"/><polyline class="cls-3" points="305.98 170.12 306.13 177.04 306.29 177.19 306.76 177.82"/><path class="cls-3" d="M306.55,177.94a.28.28,0,0,0,.18,0,.24.24,0,0,0,.15-.11"/><line class="cls-3" x1="306.92" y1="177.67" x2="306.92" y2="166.51"/><path class="cls-3" d="M290.69,166.54a18.1,18.1,0,0,0,.63,3.08"/><path class="cls-3" d="M291.36,169.68a11,11,0,0,0,.7,2.46"/><path class="cls-3" d="M292.66,173.68a12.54,12.54,0,0,0-.6-1.65"/><path class="cls-3" d="M292.61,174.1a.93.93,0,0,0,0-.37"/><path class="cls-3" d="M292.46,174.84a1.91,1.91,0,0,0,.29-.69"/><path class="cls-3" d="M291.68,175.71c.23-.31.45-.63.67-1"/><path class="cls-3" d="M291.67,175.79a3.2,3.2,0,0,0-.42.68"/><line class="cls-3" x1="291.36" y1="176.25" x2="291.36" y2="177.04"/><path class="cls-3" d="M291.32,177.06a5.94,5.94,0,0,0,1.49.5"/><path class="cls-3" d="M292.78,177.56a30.27,30.27,0,0,0,11.77,0"/><path class="cls-3" d="M304.53,177.56a6.23,6.23,0,0,0,1.49-.5"/><line class="cls-3" x1="306.13" y1="177.04" x2="306.13" y2="176.25"/><path class="cls-3" d="M306.09,176.47a3.66,3.66,0,0,0-.42-.68"/><path class="cls-3" d="M305,174.76c.22.32.44.64.67,1"/><path class="cls-3" d="M304.59,174.15a1.91,1.91,0,0,0,.29.69"/><path class="cls-3" d="M304.75,173.73a.93.93,0,0,0,0,.37"/><path class="cls-3" d="M305.28,172a11.26,11.26,0,0,0-.6,1.65"/><path class="cls-3" d="M305.28,172.14a11,11,0,0,0,.7-2.46"/><path class="cls-3" d="M306,169.62a18.1,18.1,0,0,0,.63-3.08"/><line class="cls-3" x1="290.58" y1="166.51" x2="290.58" y2="177.67"/><path class="cls-3" d="M290.46,177.87a.24.24,0,0,0,.15.11.28.28,0,0,0,.18,0"/><polyline class="cls-3" points="290.89 177.82 291.36 177.19 291.36 177.04 291.36 176.25 291.52 170.12"/><path class="cls-3" d="M291.36,169.68c0,.18.06.35.1.53"/><path class="cls-3" d="M290.69,166.54a18.1,18.1,0,0,0,.63,3.08"/><line class="cls-3" x1="290.73" y1="163.99" x2="290.73" y2="164.94"/><line class="cls-3" x1="290.73" y1="165.41" x2="290.89" y2="166.51"/><line class="cls-3" x1="290.89" y1="162.89" x2="290.73" y2="163.99"/><line class="cls-3" x1="291.36" y1="161.48" x2="291.21" y2="161.95"/><line class="cls-3" x1="291.05" y1="162.42" x2="290.89" y2="162.89"/><line class="cls-3" x1="291.36" y1="161.48" x2="291.36" y2="161.01"/><polyline class="cls-3" points="291.36 160.54 291.36 160.07 290.89 159.44 290.73 159.44 290.58 159.59 290.58 160.22"/><line class="cls-3" x1="290.58" y1="160.69" x2="290.58" y2="161.64"/><polyline class="cls-3" points="290.58 162.11 290.58 162.9 290.58 163.68"/><line class="cls-3" x1="290.58" y1="164.15" x2="290.58" y2="165.09"/><line class="cls-3" x1="290.58" y1="165.57" x2="290.58" y2="166.51"/><line class="cls-3" x1="306.76" y1="166.51" x2="306.76" y2="165.41"/><polyline class="cls-3" points="306.76 164.94 306.92 164 306.61 162.9 306.45 162.42"/><polyline class="cls-3" points="306.29 161.95 306.13 161.48 305.66 161.01 305.66 160.85"/><polyline class="cls-3" points="305.35 160.54 305.19 160.38 304.56 160.07 303.93 159.75"/><polyline class="cls-3" points="303.46 159.59 302.83 159.44 302.05 159.44"/><polyline class="cls-3" points="301.58 159.44 300.63 159.28 299.85 159.28"/><polyline class="cls-3" points="299.53 159.28 298.75 159.28 298.12 159.28"/><polyline class="cls-3" points="297.65 159.28 297.02 159.28 296.08 159.44"/><polyline class="cls-3" points="295.61 159.44 294.66 159.44 294.03 159.59"/><polyline class="cls-3" points="293.56 159.75 292.93 160.07 292.31 160.38 292.31 160.54"/><polyline class="cls-3" points="291.99 160.85 291.83 161.01 291.36 161.48 291.2 161.95"/><polyline class="cls-3" points="291.05 162.42 290.89 162.9 290.73 164 290.73 164.94"/><line class="cls-3" x1="290.73" y1="165.41" x2="290.89" y2="166.51"/><line class="cls-3" x1="306.92" y1="166.51" x2="306.92" y2="165.57"/><line class="cls-3" x1="306.92" y1="165.09" x2="306.92" y2="164.15"/><polyline class="cls-3" points="306.92 163.68 306.92 162.9 306.92 162.11"/><line class="cls-3" x1="306.92" y1="161.64" x2="306.92" y2="160.69"/><polyline class="cls-3" points="306.92 160.22 306.92 159.59 306.92 159.44 306.76 159.44 306.29 160.07 306.13 160.07 306.13 160.54"/><line class="cls-3" x1="306.13" y1="161.01" x2="306.13" y2="161.48"/><line class="cls-3" x1="306.6" y1="162.89" x2="306.45" y2="162.42"/><line class="cls-3" x1="306.29" y1="161.95" x2="306.13" y2="161.48"/><line class="cls-3" x1="306.92" y1="163.99" x2="306.6" y2="162.89"/><line class="cls-3" x1="306.76" y1="166.51" x2="306.76" y2="165.41"/><line class="cls-3" x1="306.76" y1="164.94" x2="306.92" y2="163.99"/><polyline class="cls-4" points="232.59 114.65 245.48 114.65 245.48 151.74 232.59 151.74 232.59 114.65"/><polyline class="cls-3" points="232.59 116.54 234.32 116.54 234.32 150.01 232.59 150.01 232.59 116.54"/><polyline class="cls-4" points="228.82 27.6 215.78 27.6 215.78 64.84 228.82 64.84 228.82 27.6"/><polyline class="cls-3" points="228.82 29.48 226.94 29.48 226.94 62.95 228.82 62.95 228.82 29.48"/><polyline class="cls-4" points="119.3 27.6 106.25 27.6 106.25 64.84 119.3 64.84 119.3 27.6"/><polyline class="cls-3" points="119.3 29.48 117.41 29.48 117.41 62.95 119.3 62.95 119.3 29.48"/><polyline class="cls-4" points="165.65 326.95 190.95 326.95 190.95 301.65 165.65 301.65 165.65 326.95"/><line class="cls-3" x1="169.27" y1="326.95" x2="169.27" y2="301.65"/><polyline class="cls-4" points="172.88 321.6 172.88 307.15 187.34 307.15 187.34 317.99 183.72 321.6 172.88 321.6"/><polyline class="cls-4" points="165.65 300.23 190.95 300.23 190.95 275.09 165.65 275.09 165.65 300.23"/><line class="cls-3" x1="169.27" y1="300.23" x2="169.27" y2="275.09"/><path class="cls-4" d="M187.18,287.74a7.15,7.15,0,1,0-7.15,7.15,7.15,7.15,0,0,0,7.15-7.15"/><line class="cls-3" x1="176.97" y1="292.06" x2="176.97" y2="283.26"/><path class="cls-4" d="M176.87,292.14a5.42,5.42,0,1,0,0-8.8"/><line class="cls-3" x1="123.7" y1="172.32" x2="123.7" y2="173.42"/><polyline class="cls-3" points="153.71 155.98 154.81 155.98 154.81 153.94 154.65 153.94 154.65 153.78 154.97 153.78 154.97 156.14 153.71 156.14 153.71 155.98"/><polyline class="cls-3" points="150.41 153.78 150.88 153.78 150.88 153.94 150.57 153.94 150.57 155.98 151.67 155.98 151.67 156.14 150.41 156.14 150.41 153.78"/><polyline class="cls-3" points="152.45 156.14 153.4 156.14 153.4 156.45 153.4 156.61 152.45 156.61 152.45 156.14"/><polyline class="cls-3" points="151.67 155.98 151.04 155.98 151.04 155.67 154.34 155.67 154.34 155.98 153.71 155.98 153.71 156.14 154.34 156.14 154.34 156.45 153.4 156.45 153.4 156.14 152.45 156.14 152.45 156.45 151.04 156.45 151.04 156.14 151.67 156.14 151.67 155.98"/><polyline class="cls-3" points="150.41 187.88 151.67 187.88 151.67 188.19 150.57 188.19 150.57 190.08 150.88 190.08 150.88 190.39 150.41 190.39 150.41 187.88"/><polyline class="cls-3" points="153.71 187.88 154.97 187.88 154.97 190.39 154.65 190.39 154.65 190.08 154.81 190.08 154.81 188.19 153.71 188.19 153.71 187.88"/><polyline class="cls-3" points="152.45 187.41 153.4 187.41 153.4 187.88 152.45 187.88 152.45 187.41"/><polyline class="cls-3" points="151.67 187.88 151.04 187.88 151.04 187.72 152.45 187.72 152.45 187.88 153.4 187.88 153.4 187.72 154.34 187.72 154.34 187.88 153.71 187.88 153.71 188.19 154.34 188.19 154.34 188.35 151.04 188.35 151.04 188.19 151.67 188.19 151.67 187.88"/><polyline class="cls-3" points="119.77 186.31 151.04 186.31 151.04 187.72 119.77 187.72"/><path class="cls-4" d="M151,156.45a31.36,31.36,0,0,0-31.35,31.35"/><line class="cls-3" x1="152.77" y1="188.67" x2="152.77" y2="188.67"/><line class="cls-3" x1="152.77" y1="155.35" x2="152.77" y2="155.35"/><line class="cls-3" x1="152.77" y1="172.01" x2="152.77" y2="172.01"/><line class="cls-3" x1="151.82" y1="155.35" x2="151.82" y2="188.67"/><polyline class="cls-3" points="194.09 152.68 194.09 153.78 192.21 153.78 192.21 153.47 191.89 153.47 191.89 153.94 194.41 153.94 194.41 152.68 194.09 152.68"/><polyline class="cls-3" points="191.89 149.38 191.89 149.69 192.21 149.69 192.21 149.54 194.09 149.54 194.09 150.64 194.41 150.64 194.41 149.38 191.89 149.38"/><polyline class="cls-3" points="194.41 151.42 194.41 152.37 194.56 152.37 194.88 152.37 194.88 151.42 194.41 151.42"/><polyline class="cls-3" points="194.09 150.64 194.09 150.01 193.94 150.01 193.94 153.31 194.09 153.31 194.09 152.68 194.41 152.68 194.41 153.31 194.56 153.31 194.56 152.37 194.41 152.37 194.41 151.42 194.56 151.42 194.56 150.01 194.41 150.01 194.41 150.64 194.09 150.64"/><polyline class="cls-3" points="226.15 149.38 226.15 150.64 226.31 150.64 226.31 149.54 228.35 149.54 228.35 149.69 228.51 149.69 228.51 149.38 226.15 149.38"/><polyline class="cls-3" points="226.15 152.68 226.15 153.94 228.51 153.94 228.51 153.47 228.35 153.47 228.35 153.78 226.31 153.78 226.31 152.68 226.15 152.68"/><polyline class="cls-3" points="225.68 151.42 225.68 152.37 226.15 152.37 226.15 151.42 225.68 151.42"/><polyline class="cls-3" points="226.15 150.64 226.15 150.01 225.99 150.01 225.99 151.42 226.15 151.42 226.15 152.37 225.99 152.37 225.99 153.31 226.15 153.31 226.15 152.68 226.31 152.68 226.31 153.31 226.62 153.31 226.62 150.01 226.31 150.01 226.31 150.64 226.15 150.64"/><polyline class="cls-3" points="224.58 118.58 224.58 150.01 225.99 150.01 225.99 118.58"/><path class="cls-4" d="M225.91,118.74a31.34,31.34,0,0,0-31.34,31.35"/><line class="cls-3" x1="226.94" y1="151.58" x2="226.94" y2="151.58"/><line class="cls-3" x1="193.62" y1="151.58" x2="193.62" y2="151.58"/><line class="cls-3" x1="210.28" y1="151.58" x2="210.28" y2="151.58"/><line class="cls-3" x1="193.62" y1="150.64" x2="226.94" y2="150.64"/><line class="cls-3" x1="239.51" y1="328.52" x2="203.36" y2="328.52"/><line class="cls-3" x1="199.12" y1="193.38" x2="169.42" y2="193.38"/><line class="cls-3" x1="87.71" y1="193.38" x2="117.41" y2="193.38"/><line class="cls-3" x1="151.82" y1="188.67" x2="151.82" y2="155.35"/><line class="cls-3" x1="193.62" y1="150.64" x2="226.94" y2="150.64"/><polyline class="cls-3" points="240.92 7.17 242.81 7.17 242.81 5.44 240.92 5.44 240.92 7.17"/><polyline class="cls-3" points="261.35 7.17 263.08 7.17 263.08 5.44 261.35 5.44 261.35 7.17"/><polyline class="cls-3" points="263.08 7.17 264.96 7.17 264.96 5.44 263.08 5.44 263.08 7.17"/><polyline class="cls-3" points="342.9 7.17 344.79 7.17 344.79 5.44 342.9 5.44 342.9 7.17"/><line class="cls-3" x1="261.35" y1="7.17" x2="242.81" y2="7.17"/><line class="cls-3" x1="242.81" y1="6.39" x2="261.35" y2="6.39"/><line class="cls-3" x1="261.35" y1="5.44" x2="242.81" y2="5.44"/><line class="cls-3" x1="264.96" y1="7.17" x2="342.9" y2="7.17"/><line class="cls-3" x1="342.9" y1="6.39" x2="264.96" y2="6.39"/><line class="cls-3" x1="264.96" y1="5.44" x2="342.9" y2="5.44"/><line class="cls-3" x1="344.79" y1="1.67" x2="240.92" y2="1.67"/><polyline class="cls-3" points="159.21 7.17 161.09 7.17 161.09 5.44 159.21 5.44 159.21 7.17"/><polyline class="cls-3" points="179.64 7.17 181.52 7.17 181.52 5.44 179.64 5.44 179.64 7.17"/><polyline class="cls-3" points="181.52 7.17 183.41 7.17 183.41 5.44 181.52 5.44 181.52 7.17"/><polyline class="cls-3" points="213.11 7.17 214.84 7.17 214.84 5.44 213.11 5.44 213.11 7.17"/><line class="cls-3" x1="179.64" y1="7.17" x2="161.09" y2="7.17"/><line class="cls-3" x1="161.09" y1="6.39" x2="179.64" y2="6.39"/><line class="cls-3" x1="179.64" y1="5.44" x2="161.09" y2="5.44"/><line class="cls-3" x1="183.41" y1="7.17" x2="213.11" y2="7.17"/><line class="cls-3" x1="213.11" y1="6.39" x2="183.41" y2="6.39"/><line class="cls-3" x1="183.41" y1="5.44" x2="213.11" y2="5.44"/><line class="cls-3" x1="214.84" y1="1.67" x2="159.21" y2="1.67"/><polyline class="cls-3" points="20.93 7.17 22.81 7.17 22.81 5.44 20.93 5.44 20.93 7.17"/><polyline class="cls-3" points="41.36 7.17 43.24 7.17 43.24 5.44 41.36 5.44 41.36 7.17"/><polyline class="cls-3" points="43.24 7.17 45.13 7.17 45.13 5.44 43.24 5.44 43.24 7.17"/><polyline class="cls-3" points="85.98 7.17 87.71 7.17 87.71 5.44 85.98 5.44 85.98 7.17"/><line class="cls-3" x1="41.36" y1="7.17" x2="22.81" y2="7.17"/><line class="cls-3" x1="22.81" y1="6.39" x2="41.36" y2="6.39"/><line class="cls-3" x1="41.36" y1="5.44" x2="22.81" y2="5.44"/><line class="cls-3" x1="45.13" y1="7.17" x2="85.98" y2="7.17"/><line class="cls-3" x1="85.98" y1="6.39" x2="45.13" y2="6.39"/><line class="cls-3" x1="87.71" y1="1.67" x2="20.93" y2="1.67"/><line class="cls-3" x1="323.42" y1="53.06" x2="345.73" y2="53.06"/><line class="cls-3" x1="323.42" y1="29.48" x2="323.42" y2="96.27"/><line class="cls-3" x1="323.42" y1="72.85" x2="345.73" y2="72.85"/><line class="cls-3" x1="345.73" y1="92.65" x2="323.42" y2="92.65"/><polyline class="cls-4" points="323.42 96.27 353.12 96.27 353.12 29.48"/><line class="cls-3" x1="345.73" y1="29.48" x2="345.73" y2="96.27"/><line class="cls-3" x1="345.73" y1="33.26" x2="323.42" y2="33.26"/><line class="cls-3" x1="323.42" y1="29.48" x2="353.12" y2="29.48"/><line class="cls-3" x1="340.23" y1="87" x2="340.23" y2="87"/><line class="cls-3" x1="329.08" y1="87" x2="329.08" y2="87"/><line class="cls-3" x1="340.23" y1="78.35" x2="340.23" y2="78.35"/><line class="cls-3" x1="329.08" y1="78.35" x2="329.08" y2="78.35"/><line class="cls-3" x1="340.23" y1="58.56" x2="340.23" y2="58.56"/><line class="cls-3" x1="329.08" y1="58.56" x2="329.08" y2="58.56"/><line class="cls-3" x1="340.23" y1="67.2" x2="340.23" y2="67.2"/><line class="cls-3" x1="329.08" y1="67.2" x2="329.08" y2="67.2"/><line class="cls-3" x1="340.23" y1="47.4" x2="340.23" y2="47.4"/><line class="cls-3" x1="329.08" y1="47.4" x2="329.08" y2="47.4"/><line class="cls-3" x1="340.23" y1="38.76" x2="340.23" y2="38.76"/><line class="cls-3" x1="329.08" y1="38.76" x2="329.08" y2="38.76"/><polyline class="cls-4" points="331.9 16.6 344.63 16.6 344.63 27.6 331.9 27.6 331.9 16.6"/><line class="cls-3" x1="262.29" y1="53.06" x2="239.98" y2="53.06"/><line class="cls-3" x1="262.29" y1="29.48" x2="262.29" y2="96.27"/><line class="cls-3" x1="262.29" y1="72.85" x2="239.98" y2="72.85"/><line class="cls-3" x1="239.98" y1="92.65" x2="262.29" y2="92.65"/><polyline class="cls-4" points="262.29 96.27 232.59 96.27 232.59 29.48"/><line class="cls-3" x1="239.98" y1="29.48" x2="239.98" y2="96.27"/><line class="cls-3" x1="239.98" y1="33.26" x2="262.29" y2="33.26"/><line class="cls-3" x1="262.29" y1="29.48" x2="232.59" y2="29.48"/><line class="cls-3" x1="245.48" y1="87" x2="245.48" y2="87"/><line class="cls-3" x1="256.63" y1="87" x2="256.63" y2="87"/><line class="cls-4" x1="245.48" y1="78.35" x2="245.48" y2="78.35"/><line class="cls-3" x1="256.63" y1="78.35" x2="256.63" y2="78.35"/><line class="cls-3" x1="245.48" y1="58.56" x2="245.48" y2="58.56"/><line class="cls-3" x1="256.63" y1="58.56" x2="256.63" y2="58.56"/><line class="cls-3" x1="245.48" y1="67.2" x2="245.48" y2="67.2"/><line class="cls-3" x1="256.63" y1="67.2" x2="256.63" y2="67.2"/><line class="cls-3" x1="245.48" y1="47.4" x2="245.48" y2="47.4"/><line class="cls-3" x1="256.63" y1="47.4" x2="256.63" y2="47.4"/><line class="cls-3" x1="245.48" y1="38.76" x2="245.48" y2="38.76"/><line class="cls-3" x1="256.63" y1="38.76" x2="256.63" y2="38.76"/><polyline class="cls-4" points="253.65 16.6 241.08 16.6 241.08 27.6 253.65 27.6 253.65 16.6"/><polyline class="cls-4" points="281.78 75.84 300.32 75.84 300.32 49.91 281.78 49.91 281.78 75.84"/><polyline class="cls-4" points="123.07 79.61 197.24 79.61 197.24 29.48 123.07 29.48 123.07 79.61"/><polyline class="cls-4" points="132.34 29.48 132.34 79.61 140.2 71.75 132.34 29.48"/><polyline class="cls-3" points="123.07 27.6 134.22 27.6 134.22 12.83 123.07 12.83 123.07 27.6"/><polyline class="cls-3" points="123.07 81.5 134.22 81.5 134.22 96.27 123.07 96.27 123.07 81.5"/><text class="cls-5" transform="translate(195.51 77.89) rotate(-90)">CAMA 2 PLAZAS 1,35X2,0m</text><polyline class="cls-4" points="6.16 88.88 80.33 88.88 80.33 29.48 6.16 29.48 6.16 88.88"/><polyline class="cls-4" points="15.43 88.88 15.43 29.48 23.29 37.34 15.43 88.88"/><polyline class="cls-4" points="17.31 27.6 6.16 27.6 6.16 12.83 17.31 12.83 17.31 27.6"/><polyline class="cls-4" points="17.31 90.77 6.16 90.77 6.16 105.54 17.31 105.54 17.31 90.77"/><text class="cls-5" transform="translate(78.44 87.16) rotate(-90)">CAMA QUEEN 1,6X2,0m</text><polyline class="cls-3" points="241.86 274.15 241.86 251.84 242.49 251.84 242.49 274.15 241.86 274.15"/><line class="cls-3" x1="242.49" y1="251.83" x2="244.38" y2="251.83"/><line class="cls-3" x1="246.26" y1="251.83" x2="250.03" y2="251.83"/><line class="cls-3" x1="251.76" y1="251.83" x2="255.53" y2="251.83"/><line class="cls-3" x1="257.42" y1="251.83" x2="261.03" y2="251.83"/><line class="cls-3" x1="262.92" y1="251.83" x2="266.69" y2="251.83"/><line class="cls-3" x1="268.58" y1="251.83" x2="272.19" y2="251.83"/><line class="cls-3" x1="274.08" y1="251.83" x2="275.96" y2="251.83"/><path class="cls-3" d="M322.63,271.56a.7.7,0,0,0,.71.7"/><line class="cls-3" x1="322.79" y1="271.48" x2="322.79" y2="254.51"/><path class="cls-3" d="M323.34,253.88a.7.7,0,0,0-.71.7"/><line class="cls-3" x1="323.42" y1="253.72" x2="344.32" y2="253.72"/><path class="cls-3" d="M345,254.58a.7.7,0,0,0-.71-.7"/><line class="cls-3" x1="344.95" y1="254.51" x2="344.95" y2="271.48"/><path class="cls-3" d="M344.24,272.26a.7.7,0,0,0,.71-.7"/><line class="cls-3" x1="344.32" y1="272.26" x2="323.42" y2="272.26"/><path class="cls-3" d="M343.06,258.36a3.69,3.69,0,1,0-3.69,3.69,3.7,3.7,0,0,0,3.69-3.69"/><path class="cls-3" d="M330.65,258.36a2.44,2.44,0,1,0-2.44,2.43,2.44,2.44,0,0,0,2.44-2.43"/><path class="cls-3" d="M330,258.36a1.81,1.81,0,1,0-1.81,1.8,1.81,1.81,0,0,0,1.81-1.8"/><path class="cls-3" d="M331.28,267.63a3.07,3.07,0,1,0-3.07,3.06,3.07,3.07,0,0,0,3.07-3.06"/><path class="cls-3" d="M341.8,267.63a2.44,2.44,0,1,0-2.43,2.43,2.43,2.43,0,0,0,2.43-2.43"/><path class="cls-3" d="M341.17,267.63a1.81,1.81,0,1,0-1.8,1.8,1.8,1.8,0,0,0,1.8-1.8"/><path class="cls-3" d="M342.43,258.36a3.07,3.07,0,1,0-3.06,3.06,3.06,3.06,0,0,0,3.06-3.06"/><line class="cls-3" x1="358.77" y1="85.11" x2="358.77" y2="25.87"/><line class="cls-3" x1="358.77" y1="87" x2="358.77" y2="101.93"/><path class="cls-1" d="M239.51,333.55l2.35-5.66v5.66Zm0-5.66v5.66l2.35-5.66Z"/><path class="cls-2" d="M239.51,333.55l2.35-5.66v5.66Zm0-5.66v5.66l2.35-5.66Z"/><path class="cls-1" d="M241.86,339.52l5.5-65.37v65.37Zm0-65.37v65.37l5.5-65.37Z"/><path class="cls-2" d="M241.86,339.52l5.5-65.37v65.37Zm0-65.37v65.37l5.5-65.37Z"/><path class="cls-1" d="M247.36,333.55v3.61"/><path class="cls-2" d="M247.36,333.55v3.61"/><path class="cls-1" d="M247.36,279.65l70.56-5.5v5.5Zm0-5.5v5.5l70.56-5.5Z"/><path class="cls-2" d="M247.36,279.65l70.56-5.5v5.5Zm0-5.5v5.5l70.56-5.5Z"/><path class="cls-1" d="M344.79,7.17l8.33-5.5v5.5Zm0-5.5v5.5l8.33-5.5Z"/><path class="cls-2" d="M344.79,7.17l8.33-5.5v5.5Zm0-5.5v5.5l8.33-5.5Z"/><path class="cls-1" d="M321.53,279.65l31.59-5.5v5.5Zm0-5.5v5.5l31.59-5.5Z"/><path class="cls-2" d="M321.53,279.65l31.59-5.5v5.5Zm0-5.5v5.5l31.59-5.5Z"/><path class="cls-1" d="M353.12,279.65l5.65-278v278Zm0-278v278l5.65-278Z"/><path class="cls-2" d="M353.12,279.65l5.65-278v278Zm0-278v278l5.65-278Z"/><path class="cls-1" d="M358.77,276v3.62"/><path class="cls-2" d="M358.77,276v3.62"/><polyline class="cls-3" points="317.92 279.65 321.53 279.65 358.77 279.65 358.77 276.03 358.77 276.03 358.77 181.75 358.77 181.75 358.77 177.98 358.77 177.98 358.77 7.17 358.77 7.17 358.77 1.67 344.79 1.67 344.79 7.17 353.12 7.17 353.12 274.15 241.86 274.15 241.86 327.89 239.51 327.89 239.51 333.55 241.86 333.55 241.86 339.52 247.36 339.52 247.36 337.16 247.36 337.16 247.36 333.55 247.36 333.55 247.36 279.65"/><line class="cls-3" x1="247.36" y1="279.65" x2="317.92" y2="279.65"/><line class="cls-3" x1="82.21" y1="168.39" x2="82.21" y2="190.55"/><line class="cls-3" x1="28.31" y1="134.92" x2="6.16" y2="134.92"/><line class="cls-3" x1="145.22" y1="268.49" x2="193.31" y2="253.72"/><line class="cls-3" x1="201.01" y1="268.49" x2="192.84" y2="255.13"/><line class="cls-3" x1="201.01" y1="240.68" x2="194.41" y2="254.98"/><line class="cls-3" x1="145.22" y1="240.68" x2="193.78" y2="253.72"/><line class="cls-3" x1="238.41" y1="328.2" x2="204.46" y2="328.2"/><line class="cls-3" x1="239.51" y1="328.2" x2="238.41" y2="328.2"/><line class="cls-3" x1="204.46" y1="328.2" x2="203.36" y2="328.2"/><line class="cls-3" x1="316.66" y1="127.7" x2="306.92" y2="127.7"/><line class="cls-3" x1="353.12" y1="60.91" x2="345.73" y2="60.91"/><line class="cls-3" x1="239.98" y1="60.91" x2="232.59" y2="60.91"/><line class="cls-3" x1="180.89" y1="234.86" x2="180.89" y2="233.29"/><line class="cls-3" x1="358.77" y1="194.79" x2="358.77" y2="189.92"/><line class="cls-3" x1="247.36" y1="322.08" x2="247.36" y2="317.2"/><line class="cls-3" x1="262.61" y1="279.65" x2="267.32" y2="279.65"/><line class="cls-3" x1="332.06" y1="279.65" x2="336.93" y2="279.65"/><line class="cls-3" x1="353.12" y1="239.89" x2="353.12" y2="244.61"/><line class="cls-3" x1="271.88" y1="274.15" x2="267.16" y2="274.15"/><line class="cls-3" x1="267.16" y1="251.83" x2="271.88" y2="251.83"/><line class="cls-3" x1="295.45" y1="251.83" x2="290.73" y2="251.83"/><line class="cls-3" x1="290.73" y1="214.75" x2="295.45" y2="214.75"/><line class="cls-3" x1="278.95" y1="199.98" x2="278.95" y2="195.27"/><line class="cls-3" x1="353.12" y1="195.27" x2="353.12" y2="199.98"/><line class="cls-3" x1="321.85" y1="192.44" x2="316.98" y2="192.44"/><line class="cls-3" x1="316.98" y1="7.17" x2="321.85" y2="7.17"/><line class="cls-3" x1="312.73" y1="103.5" x2="317.13" y2="103.5"/><polyline class="cls-3" points="262.76 207.99 263.08 208.47 263.71 208.78 264.81 209.09 265.43 209.09 266.38 208.78 267.01 208.47 267.32 207.99 267.32 207.68 267.01 207.21 266.38 206.74 265.43 206.58 264.81 206.58 263.71 206.74 263.08 207.21 262.76 207.68 262.76 207.99"/><polyline class="cls-3" points="287.28 238.48 287.12 238.16 286.49 237.53 290.89 237.53"/><polyline class="cls-3" points="286.49 229.52 286.65 229.99 287.28 230.31 288.38 230.46 289 230.46 290.11 230.31 290.73 229.99 290.89 229.52 290.89 229.05 290.73 228.58 290.11 228.26 289 228.11 288.38 228.11 287.28 228.26 286.65 228.58 286.49 229.05 286.49 229.52"/><line class="cls-3" x1="246.26" y1="242.25" x2="272.19" y2="242.25"/><polyline class="cls-3" points="263.71 248.85 264.18 248.69 264.49 248.06 264.65 246.96 264.65 246.34 264.49 245.39 264.18 244.76 263.71 244.45 263.39 244.45 262.76 244.76 262.45 245.39 262.29 246.34 262.29 246.96 262.45 248.06 262.76 248.69 263.39 248.85 263.71 248.85"/><polyline class="cls-3" points="260.88 244.92 261.19 244.76 260.88 244.45 260.72 244.76 260.88 244.92"/><polyline class="cls-3" points="257.42 247.44 257.58 246.81 257.89 246.34 258.36 246.18 258.52 246.18 259.15 246.34 259.46 246.81 259.62 247.44 259.62 247.59 259.46 248.22 259.15 248.69 258.52 248.85 258.36 248.85 257.89 248.69 257.58 248.22 257.42 247.44 257.42 246.34 257.58 245.39 257.89 244.76 258.36 244.45 258.68 244.45 259.31 244.76 259.46 245.08"/><polyline class="cls-3" points="255.22 248.85 255.69 248.69 256.01 248.06 256.16 246.96 256.16 246.34 256.01 245.39 255.69 244.76 255.22 244.45 254.91 244.45 254.28 244.76 253.96 245.39 253.81 246.34 253.81 246.96 253.96 248.06 254.28 248.69 254.91 248.85 255.22 248.85"/><line class="cls-3" x1="279.73" y1="242.25" x2="349.5" y2="242.25"/><polyline class="cls-3" points="319.8 247.91 319.8 248.06 319.65 248.53 319.49 248.69 319.18 248.85 318.39 248.85 318.08 248.69 317.92 248.53 317.76 248.06 317.76 247.59 317.92 247.28 318.23 246.65 319.96 244.45 317.6 244.45"/><polyline class="cls-3" points="316.19 244.92 316.35 244.76 316.19 244.45 316.03 244.76 316.19 244.92"/><polyline class="cls-3" points="313.83 248.85 314.46 248.69 314.78 248.06 314.93 246.96 314.93 246.34 314.78 245.39 314.46 244.76 313.83 244.45 313.52 244.45 313.05 244.76 312.73 245.39 312.58 246.34 312.58 246.96 312.73 248.06 313.05 248.69 313.52 248.85 313.83 248.85"/><polyline class="cls-3" points="310.69 248.85 311.16 248.69 311.32 248.22 311.32 247.91 311.16 247.44 310.85 247.28 310.22 246.96 309.59 246.81 309.28 246.34 309.12 246.02 309.12 245.39 309.28 244.92 309.43 244.76 309.9 244.45 310.69 244.45 311.16 244.76 311.32 244.92 311.48 245.39 311.48 246.02 311.32 246.34 311 246.81 310.53 246.96 309.75 247.28 309.43 247.44 309.28 247.91 309.28 248.22 309.43 248.69 309.9 248.85 310.69 248.85"/><line class="cls-3" x1="293.09" y1="248.06" x2="293.09" y2="218.36"/><polyline class="cls-3" points="290.42 235.18 290.73 235.34 290.89 235.18 290.73 235.02 290.42 235.18"/><polyline class="cls-3" points="286.49 232.82 286.65 233.29 287.28 233.76 288.38 233.92 289 233.92 290.11 233.76 290.73 233.29 290.89 232.82 290.89 232.51 290.73 232.03 290.11 231.72 289 231.56 288.38 231.56 287.28 231.72 286.65 232.03 286.49 232.51 286.49 232.82"/><line class="cls-3" x1="269.52" y1="210.98" x2="269.52" y2="196.21"/><polyline class="cls-3" points="266.85 205.32 267.01 205.48 267.32 205.32 267.01 205.16 266.85 205.32"/><polyline class="cls-3" points="263.55 201.71 263.08 201.87 262.76 202.34 262.76 202.81 263.08 203.28 263.71 203.59 264.81 203.75 265.75 203.75 266.69 203.59 267.01 203.28 267.32 202.81 267.32 202.49 267.01 202.02 266.69 201.71 266.06 201.55 265.75 201.55 265.12 201.71 264.81 202.02 264.49 202.49 264.49 202.81 264.81 203.28 265.12 203.59 265.75 203.75"/><polyline class="cls-3" points="262.76 199.51 263.08 199.98 263.71 200.29 264.81 200.61 265.43 200.61 266.38 200.29 267.01 199.98 267.32 199.51 267.32 199.19 267.01 198.72 266.38 198.25 265.43 198.09 264.81 198.09 263.71 198.25 263.08 198.72 262.76 199.19 262.76 199.51"/><line class="cls-3" x1="282.56" y1="197.62" x2="349.5" y2="197.62"/><polyline class="cls-3" points="321.38 203.28 321.38 203.44 321.06 203.91 320.9 204.06 320.59 204.22 319.96 204.22 319.65 204.06 319.49 203.91 319.33 203.44 319.33 202.97 319.49 202.65 319.8 202.02 321.53 199.82 319.02 199.82"/><polyline class="cls-3" points="317.76 200.29 317.92 199.98 317.76 199.82 317.6 199.98 317.76 200.29"/><polyline class="cls-3" points="315.4 204.22 315.88 204.06 316.19 203.44 316.35 202.34 316.35 201.71 316.19 200.61 315.88 199.98 315.4 199.82 315.09 199.82 314.46 199.98 314.15 200.61 313.99 201.71 313.99 202.34 314.15 203.44 314.46 204.06 315.09 204.22 315.4 204.22"/><polyline class="cls-3" points="311.95 204.22 312.42 204.06 312.89 203.44 313.05 202.34 313.05 201.71 312.89 200.61 312.42 199.98 311.95 199.82 311.63 199.82 311.16 199.98 310.85 200.61 310.53 201.71 310.53 202.34 310.85 203.44 311.16 204.06 311.63 204.22 311.95 204.22"/><polyline class="cls-3" points="312.73 103.5 315.72 105.22 315.72 102.71"/><polyline class="cls-3" points="316.82 101.45 316.98 101.61 317.13 101.45 316.98 101.3 316.82 101.45"/><polyline class="cls-3" points="314.15 97.84 314.93 98 315.25 98.47 315.56 98.94 315.56 99.1 315.25 99.57 314.93 99.88 314.15 100.04 313.99 100.04 313.36 99.88 312.89 99.57 312.73 99.1 312.73 98.94 312.89 98.47 313.36 98 314.15 97.84 315.25 97.84 316.35 98 316.98 98.47 317.13 98.94 317.13 99.25 316.98 99.72 316.5 99.88"/><polyline class="cls-3" points="314.15 94.54 314.93 94.7 315.25 95.01 315.56 95.48 315.56 95.64 315.25 96.27 314.93 96.58 314.15 96.74 313.99 96.74 313.36 96.58 312.89 96.27 312.73 95.64 312.73 95.48 312.89 95.01 313.36 94.7 314.15 94.54 315.25 94.54 316.35 94.7 316.98 95.01 317.13 95.48 317.13 95.8 316.98 96.42 316.5 96.58"/><line class="cls-3" x1="236.21" y1="108.37" x2="341.02" y2="108.37"/><polyline class="cls-3" points="293.72 115.13 291.83 115.13 292.93 113.4 292.46 113.4 291.99 113.24 291.83 112.92 291.68 112.3 291.68 111.98 291.83 111.35 292.31 110.88 292.78 110.72 293.25 110.72 293.72 110.88 293.88 111.04 294.03 111.51"/><polyline class="cls-3" points="290.42 111.04 290.58 110.88 290.42 110.72 290.26 110.88 290.42 111.04"/><polyline class="cls-3" points="288.06 115.13 288.53 114.97 288.85 114.34 289 113.24 289 112.61 288.85 111.51 288.53 110.88 288.06 110.72 287.59 110.72 287.12 110.88 286.81 111.51 286.65 112.61 286.65 113.24 286.81 114.34 287.12 114.97 287.59 115.13 288.06 115.13"/><polyline class="cls-3" points="285.39 114.03 285.39 114.34 285.23 114.65 285.08 114.97 284.76 115.13 284.13 115.13 283.82 114.97 283.5 114.65 283.35 114.34 283.35 113.87 283.5 113.4 283.98 112.77 285.55 110.72 283.19 110.72"/><line class="cls-3" x1="190.48" y1="7.17" x2="195.19" y2="7.17"/><path class="cls-1" d="M191.74,6.54l.31-.47"/><path class="cls-2" d="M191.74,6.54l.31-.47"/><line class="cls-3" x1="123.07" y1="20.06" x2="123.07" y2="15.19"/><line class="cls-3" x1="228.82" y1="15.19" x2="228.82" y2="20.06"/><line class="cls-3" x1="119.3" y1="15.19" x2="119.3" y2="20.06"/><line class="cls-3" x1="6.16" y1="20.06" x2="6.16" y2="15.19"/><line class="cls-3" x1="30.83" y1="7.17" x2="35.7" y2="7.17"/><path class="cls-1" d="M32.08,6.54l.32-.47"/><path class="cls-2" d="M32.08,6.54l.32-.47"/><line class="cls-3" x1="47.17" y1="138.7" x2="47.17" y2="164.62"/><line class="cls-3" x1="73.17" y1="12.83" x2="73.17" y2="165.04"/><line class="cls-3" x1="188.04" y1="12.83" x2="188.04" y2="124.96"/><line class="cls-3" x1="34.44" y1="9.79" x2="34.44" y2="129.92"/><line class="cls-3" x1="30.2" y1="160.1" x2="82.37" y2="160.1"/><line class="cls-3" x1="49.53" y1="168.39" x2="44.81" y2="168.39"/><polyline class="cls-3" points="40.57 155.98 40.73 156.61 41.36 156.92 42.46 157.08 43.08 157.08 44.18 156.92 44.81 156.61 44.97 155.98 44.97 155.67 44.81 155.19 44.18 154.88 43.08 154.72 42.46 154.72 41.36 154.88 40.73 155.19 40.57 155.67 40.57 155.98"/><polyline class="cls-3" points="44.5 153.31 44.81 153.47 44.97 153.31 44.81 153.15 44.5 153.31"/><polyline class="cls-3" points="41.98 149.69 42.61 149.85 43.08 150.32 43.24 150.79 43.24 150.95 43.08 151.42 42.61 151.74 41.98 151.9 41.83 151.9 41.2 151.74 40.73 151.42 40.57 150.95 40.57 150.79 40.73 150.32 41.2 149.85 41.98 149.69 43.08 149.69 44.18 149.85 44.81 150.32 44.97 150.79 44.97 151.11 44.81 151.58 44.34 151.74"/><polyline class="cls-3" points="40.57 147.5 40.73 148.12 41.36 148.44 42.46 148.59 43.08 148.59 44.18 148.44 44.81 148.12 44.97 147.5 44.97 147.18 44.81 146.71 44.18 146.4 43.08 146.24 42.46 146.24 41.36 146.4 40.73 146.71 40.57 147.18 40.57 147.5"/><line class="cls-3" x1="9.77" y1="120.47" x2="115.52" y2="120.47"/><line class="cls-3" x1="6.16" y1="122.82" x2="6.16" y2="118.11"/><line class="cls-3" x1="119.3" y1="118.11" x2="119.3" y2="122.82"/><polyline class="cls-3" points="67.75 127.22 65.87 127.22 66.97 125.5 66.5 125.5 66.03 125.18 65.87 125.03 65.71 124.4 65.71 123.92 65.87 123.3 66.34 122.98 66.81 122.67 67.28 122.67 67.75 122.98 67.91 123.14 68.07 123.61"/><polyline class="cls-3" points="64.45 123.14 64.61 122.98 64.45 122.67 64.3 122.98 64.45 123.14"/><polyline class="cls-3" points="62.1 127.22 62.57 126.91 62.88 126.28 63.04 125.18 63.04 124.55 62.88 123.61 62.57 122.98 62.1 122.67 61.63 122.67 61.16 122.98 60.84 123.61 60.68 124.55 60.68 125.18 60.84 126.28 61.16 126.91 61.63 127.22 62.1 127.22"/><polyline class="cls-3" points="57.54 127.22 59.27 127.22 59.43 125.18 59.27 125.5 58.8 125.65 58.33 125.65 57.85 125.5 57.38 125.03 57.23 124.4 57.23 123.92 57.38 123.3 57.85 122.98 58.33 122.67 58.8 122.67 59.27 122.98 59.43 123.14 59.58 123.61"/><line class="cls-3" x1="82.21" y1="177.67" x2="82.21" y2="182.38"/><polyline class="cls-6" points="60.53 165.58 60.05 165.9 59.58 166.53 59.58 161.97"/><polyline class="cls-6" points="57.23 162.44 57.38 162.28 57.23 161.97 57.07 162.28 57.23 162.44"/><polyline class="cls-6" points="54.24 166.53 55.81 163.54 53.3 163.54"/><line class="cls-6" x1="54.24" y1="166.52" x2="54.24" y2="161.97"/><polyline class="cls-6" points="50.47 166.53 52.2 166.53 52.35 164.64 52.2 164.8 51.57 164.95 51.1 164.95 50.63 164.8 50.31 164.32 50.16 163.7 50.16 163.22 50.31 162.6 50.63 162.28 51.1 161.97 51.57 161.97 52.2 162.28 52.35 162.44 52.51 162.91"/><line class="cls-3" x1="6.16" y1="182.38" x2="6.16" y2="177.67"/><line class="cls-3" x1="76.71" y1="190.55" x2="71.84" y2="190.55"/><line class="cls-3" x1="71.84" y1="168.39" x2="76.71" y2="168.39"/><line class="cls-3" x1="85.98" y1="259.85" x2="85.98" y2="254.98"/><line class="cls-3" x1="141.61" y1="254.98" x2="141.61" y2="259.85"/><polyline class="cls-3" points="118.98 263.31 118.51 263.46 118.04 264.09 118.04 259.69"/><polyline class="cls-3" points="115.68 260.16 115.84 259.85 115.68 259.69 115.53 259.85 115.68 260.16"/><polyline class="cls-3" points="112.38 264.09 113.95 264.09 114.11 262.21 113.95 262.52 113.48 262.68 113.01 262.68 112.54 262.52 112.07 262.05 111.91 261.42 111.91 260.95 112.07 260.32 112.54 259.85 113.01 259.69 113.48 259.69 113.95 259.85 114.11 260.16 114.27 260.48"/><polyline class="cls-3" points="109.87 264.09 110.5 263.93 110.81 263.31 110.97 262.21 110.97 261.58 110.81 260.48 110.5 259.85 109.87 259.69 109.55 259.69 109.08 259.85 108.77 260.48 108.61 261.58 108.61 262.21 108.77 263.31 109.08 263.93 109.55 264.09 109.87 264.09"/><line class="cls-3" x1="132.34" y1="268.49" x2="127.47" y2="268.49"/><line class="cls-3" x1="127.47" y1="194.32" x2="132.34" y2="194.32"/><polyline class="cls-3" points="88.31 236.75 88.16 236.75 87.69 236.44 87.53 236.28 87.22 235.96 87.22 235.34 87.53 235.02 87.69 234.86 88.16 234.71 88.47 234.71 88.94 234.86 89.57 235.18 91.77 236.91 91.77 234.55"/><polyline class="cls-3" points="91.3 233.13 91.46 233.29 91.77 233.13 91.46 232.98 91.3 233.13"/><polyline class="cls-3" points="87.22 230.78 87.53 231.25 88.16 231.56 89.1 231.72 89.73 231.72 90.83 231.56 91.46 231.25 91.77 230.78 91.77 230.46 91.46 229.84 90.83 229.52 89.73 229.36 89.1 229.36 88.16 229.52 87.53 229.84 87.22 230.46 87.22 230.78"/><polyline class="cls-3" points="87.22 227.32 87.53 227.79 88.16 228.26 89.1 228.42 89.73 228.42 90.83 228.26 91.46 227.79 91.77 227.32 91.77 227.01 91.46 226.54 90.83 226.22 89.73 226.06 89.1 226.06 88.16 226.22 87.53 226.54 87.22 227.01 87.22 227.32"/><line class="cls-3" x1="191.42" y1="268.49" x2="186.55" y2="268.49"/><polyline class="cls-3" points="183.41 236.75 183.09 236.75 182.78 236.44 182.47 236.28 182.31 235.96 182.31 235.34 182.47 235.02 182.78 234.86 183.09 234.71 183.57 234.71 184.04 234.86 184.67 235.18 186.71 236.91 186.71 234.55"/><polyline class="cls-3" points="186.39 233.13 186.55 233.29 186.71 233.13 186.55 232.98 186.39 233.13"/><polyline class="cls-3" points="182.31 230.78 182.47 231.25 183.09 231.56 184.19 231.72 184.82 231.72 185.92 231.56 186.55 231.25 186.71 230.78 186.71 230.46 186.55 229.84 185.92 229.52 184.82 229.36 184.19 229.36 183.09 229.52 182.47 229.84 182.31 230.46 182.31 230.78"/><polyline class="cls-3" points="182.31 227.32 182.47 227.79 183.09 228.26 184.19 228.42 184.82 228.42 185.92 228.26 186.55 227.79 186.71 227.32 186.71 227.01 186.55 226.54 185.92 226.22 184.82 226.06 184.19 226.06 183.09 226.22 182.47 226.54 182.31 227.01 182.31 227.32"/><line class="cls-3" x1="238.09" y1="265.51" x2="208.39" y2="265.51"/><line class="cls-3" x1="241.86" y1="263.15" x2="241.86" y2="268.02"/><line class="cls-3" x1="204.62" y1="268.02" x2="204.62" y2="263.15"/><polyline class="cls-3" points="228.35 271.32 228.04 271.63 227.56 272.26 227.56 267.71"/><polyline class="cls-3" points="225.21 268.18 225.36 268.02 225.21 267.71 225.05 268.02 225.21 268.18"/><polyline class="cls-3" points="222.85 272.26 223.32 271.95 223.64 271.32 223.79 270.38 223.79 269.75 223.64 268.65 223.32 268.02 222.85 267.71 222.54 267.71 221.91 268.02 221.59 268.65 221.44 269.75 221.44 270.38 221.59 271.32 221.91 271.95 222.54 272.26 222.85 272.26"/><polyline class="cls-3" points="219.39 272.26 219.86 271.95 220.34 271.32 220.49 270.38 220.49 269.75 220.34 268.65 219.86 268.02 219.39 267.71 219.08 267.71 218.61 268.02 218.29 268.65 218.14 269.75 218.14 270.38 218.29 271.32 218.61 271.95 219.08 272.26 219.39 272.26"/><line class="cls-3" x1="199.12" y1="283.42" x2="199.12" y2="288.29"/><line class="cls-3" x1="160.15" y1="288.29" x2="160.15" y2="283.42"/><line class="cls-3" x1="177.59" y1="327.89" x2="172.72" y2="327.89"/><line class="cls-3" x1="172.72" y1="274.15" x2="177.59" y2="274.15"/><polyline class="cls-6" points="161.39 306.2 161.23 305.89 160.6 305.26 165 305.26"/><polyline class="cls-6" points="164.69 302.9 164.85 303.06 165 302.9 164.85 302.75 164.69 302.9"/><polyline class="cls-6" points="160.6 299.92 163.59 301.65 163.59 299.13"/><line class="cls-6" x1="160.6" y1="299.92" x2="165" y2="299.92"/><polyline class="cls-6" points="160.6 296.15 160.6 297.88 162.49 298.03 162.33 297.88 162.02 297.4 162.02 296.93 162.33 296.31 162.65 295.99 163.43 295.83 163.75 295.83 164.38 295.99 164.85 296.31 165 296.93 165 297.4 164.85 297.88 164.69 298.03 164.22 298.19"/><line class="cls-3" x1="204.62" y1="304.95" x2="238.09" y2="304.95"/><line class="cls-3" x1="201.01" y1="307.3" x2="201.01" y2="302.59"/><line class="cls-3" x1="241.86" y1="302.59" x2="241.86" y2="307.3"/><polyline class="cls-3" points="226.62 310.76 226.15 310.92 225.68 311.55 225.68 307.15"/><polyline class="cls-3" points="223.32 307.62 223.48 307.31 223.32 307.15 223.16 307.31 223.32 307.62"/><polyline class="cls-3" points="221.44 310.76 221.12 310.92 220.65 311.55 220.65 307.15"/><polyline class="cls-4" points="217.51 311.55 218.14 311.39 218.45 310.76 218.61 309.66 218.61 309.03 218.45 307.93 218.14 307.31 217.51 307.15 217.19 307.15 216.72 307.31 216.41 307.93 216.25 309.03 216.25 309.66 216.41 310.76 216.72 311.39 217.19 311.55 217.51 311.55"/><line class="cls-3" x1="190.32" y1="333.55" x2="195.19" y2="333.55"/><line class="cls-3" x1="184.19" y1="132.72" x2="184.19" y2="137.6"/><line class="cls-3" x1="123.07" y1="137.6" x2="123.07" y2="132.72"/><line class="cls-3" x1="176.18" y1="149.7" x2="171.31" y2="149.7"/><line class="cls-3" x1="171.31" y1="127.54" x2="176.18" y2="127.54"/><line class="cls-3" x1="76.71" y1="168.39" x2="71.84" y2="168.39"/><line class="cls-3" x1="71.84" y1="7.17" x2="76.71" y2="7.17"/><path class="cls-1" d="M73.1,6.54l.31-.47"/><path class="cls-2" d="M73.1,6.54l.31-.47"/><line class="cls-3" x1="115.52" y1="17.7" x2="9.77" y2="17.7"/><polyline class="cls-3" points="67.75 24.3 65.87 24.3 66.97 22.57 66.5 22.57 66.03 22.41 65.87 22.26 65.71 21.47 65.71 21.16 65.87 20.53 66.34 20.06 66.81 19.9 67.28 19.9 67.75 20.06 67.91 20.21 68.07 20.68"/><polyline class="cls-3" points="64.45 20.21 64.61 20.06 64.45 19.9 64.3 20.06 64.45 20.21"/><polyline class="cls-3" points="62.1 24.3 62.57 24.14 62.88 23.51 63.04 22.41 63.04 21.79 62.88 20.68 62.57 20.06 62.1 19.9 61.63 19.9 61.16 20.06 60.84 20.68 60.68 21.79 60.68 22.41 60.84 23.51 61.16 24.14 61.63 24.3 62.1 24.3"/><polyline class="cls-3" points="57.54 24.3 59.27 24.3 59.43 22.41 59.27 22.57 58.8 22.89 58.33 22.89 57.85 22.57 57.38 22.26 57.23 21.47 57.23 21.16 57.38 20.53 57.85 20.06 58.33 19.9 58.8 19.9 59.27 20.06 59.43 20.21 59.58 20.68"/><polyline class="cls-3" points="26.59 76.31 26.59 74.43 28.31 75.37 28.31 74.9 28.47 74.58 28.63 74.43 29.26 74.27 29.73 74.27 30.36 74.43 30.83 74.74 30.98 75.21 30.98 75.68 30.83 76.31 30.51 76.47 30.2 76.63"/><polyline class="cls-3" points="30.51 72.86 30.83 73.01 30.98 72.86 30.83 72.7 30.51 72.86"/><polyline class="cls-3" points="26.59 69.87 29.57 71.44 29.57 68.93"/><line class="cls-3" x1="26.58" y1="69.87" x2="30.98" y2="69.87"/><polyline class="cls-3" points="26.59 66.41 29.57 68.14 29.57 65.63"/><line class="cls-3" x1="26.58" y1="66.41" x2="30.98" y2="66.41"/><polyline class="cls-3" points="67.6 91.55 70.58 93.28 70.58 90.77"/><line class="cls-3" x1="67.6" y1="91.55" x2="72" y2="91.55"/><polyline class="cls-3" points="71.53 89.51 71.84 89.67 72 89.51 71.84 89.35 71.53 89.51"/><polyline class="cls-3" points="67.6 87.94 67.6 86.05 69.33 87 69.33 86.53 69.48 86.21 69.64 86.05 70.27 85.9 70.74 85.9 71.37 86.05 71.84 86.37 72 86.84 72 87.31 71.84 87.94 71.53 88.1 71.21 88.25"/><polyline class="cls-3" points="67.6 83.07 70.58 84.8 70.58 82.28"/><line class="cls-3" x1="67.6" y1="83.07" x2="72" y2="83.07"/><line class="cls-3" x1="123.07" y1="104.6" x2="123.07" y2="99.73"/><polyline class="cls-3" points="180.61 72.54 180.61 70.66 182.18 71.75 182.18 71.13 182.5 70.81 182.65 70.66 183.28 70.5 183.75 70.5 184.38 70.66 184.85 70.97 185.01 71.6 185.01 72.07 184.85 72.54 184.54 72.7 184.22 72.86"/><polyline class="cls-3" points="184.54 69.08 184.85 69.4 185.01 69.08 184.85 68.93 184.54 69.08"/><polyline class="cls-3" points="181.55 67.67 181.4 67.67 180.93 67.51 180.77 67.36 180.61 66.88 180.61 66.25 180.77 65.94 180.93 65.78 181.4 65.63 181.87 65.63 182.18 65.78 182.81 66.1 185.01 67.83 185.01 65.47"/><polyline class="cls-3" points="180.61 62.64 183.6 64.37 183.6 61.85"/><line class="cls-3" x1="180.61" y1="62.64" x2="185.01" y2="62.64"/><line class="cls-3" x1="126.68" y1="17.7" x2="225.05" y2="17.7"/><polyline class="cls-3" points="181.21 23.2 181.21 23.51 181.05 23.83 180.89 24.14 180.42 24.3 179.79 24.3 179.48 24.14 179.32 23.83 179.17 23.51 179.17 23.04 179.32 22.57 179.64 21.94 181.37 19.9 179.01 19.9"/><polyline class="cls-3" points="177.59 20.21 177.75 20.06 177.59 19.9 177.44 20.06 177.59 20.21"/><polyline class="cls-3" points="175.39 24.3 175.87 24.14 176.02 23.67 176.02 23.2 175.87 22.89 175.55 22.57 174.92 22.41 174.45 22.26 173.98 21.79 173.82 21.31 173.82 20.68 173.98 20.21 174.29 20.06 174.77 19.9 175.39 19.9 175.87 20.06 176.02 20.21 176.34 20.68 176.34 21.31 176.02 21.79 175.71 22.26 175.24 22.41 174.61 22.57 174.29 22.89 173.98 23.2 173.98 23.67 174.29 24.14 174.77 24.3 175.39 24.3"/><polyline class="cls-3" points="170.84 24.3 172.57 24.3 172.72 22.41 172.57 22.57 172.09 22.89 171.47 22.89 171 22.57 170.68 22.26 170.52 21.47 170.52 21.16 170.68 20.53 171 20.06 171.47 19.9 172.09 19.9 172.57 20.06 172.72 20.21 172.88 20.68"/><line class="cls-3" x1="180.58" y1="118.2" x2="126.68" y2="118.2"/><polyline class="cls-3" points="158.9 124.02 158.42 124.33 157.95 124.96 157.95 120.4"/><polyline class="cls-3" points="155.59 120.87 155.75 120.72 155.59 120.4 155.44 120.72 155.59 120.87"/><polyline class="cls-3" points="151.98 124.33 152.14 124.64 152.77 124.96 153.08 124.96 153.55 124.64 153.87 124.02 154.02 123.07 154.02 121.97 153.87 121.03 153.55 120.72 153.08 120.4 152.92 120.4 152.45 120.72 151.98 121.03 151.82 121.82 151.82 121.97 151.98 122.6 152.45 123.07 152.92 123.23 153.08 123.23 153.55 123.07 153.87 122.6 154.02 121.97"/><polyline class="cls-3" points="148.84 124.96 150.57 124.96 150.72 123.07 150.57 123.23 149.94 123.39 149.47 123.39 149 123.23 148.68 122.76 148.52 122.13 148.52 121.82 148.68 121.03 149 120.72 149.47 120.4 149.94 120.4 150.57 120.72 150.72 120.87 150.88 121.34"/><line class="cls-3" x1="126.68" y1="102.24" x2="219.55" y2="102.24"/><polyline class="cls-3" points="178.38 107.74 178.38 108.05 178.22 108.37 178.07 108.68 177.75 108.84 176.97 108.84 176.65 108.68 176.49 108.37 176.34 108.05 176.34 107.58 176.49 107.11 176.81 106.48 178.54 104.44 176.18 104.44"/><polyline class="cls-3" points="174.77 104.91 175.08 104.6 174.77 104.44 174.61 104.6 174.77 104.91"/><polyline class="cls-3" points="172.72 104.44 171.15 108.84 173.51 108.84"/><polyline class="cls-3" points="169.11 108.84 169.58 108.68 169.9 108.05 170.05 106.95 170.05 106.33 169.9 105.22 169.58 104.6 169.11 104.44 168.79 104.44 168.17 104.6 167.85 105.22 167.69 106.33 167.69 106.95 167.85 108.05 168.17 108.68 168.79 108.84 169.11 108.84"/><line class="cls-3" x1="136.58" y1="190.55" x2="131.71" y2="190.55"/><line class="cls-3" x1="131.71" y1="153.47" x2="136.58" y2="153.47"/><line class="cls-3" x1="134.22" y1="186.94" x2="134.22" y2="157.24"/><polyline class="cls-3" points="128.25 177.19 128.1 176.88 127.47 176.41 131.87 176.41"/><polyline class="cls-3" points="131.55 174.05 131.71 174.21 131.87 174.05 131.71 173.9 131.55 174.05"/><polyline class="cls-3" points="127.47 171.54 127.63 172.17 128.25 172.48 129.35 172.64 129.98 172.64 131.08 172.48 131.71 172.17 131.87 171.54 131.87 171.22 131.71 170.75 131.08 170.44 129.98 170.28 129.35 170.28 128.25 170.44 127.63 170.75 127.47 171.22 127.47 171.54"/><polyline class="cls-3" points="127.47 168.24 127.63 168.71 128.25 169.02 129.35 169.18 129.98 169.18 131.08 169.02 131.71 168.71 131.87 168.24 131.87 167.92 131.71 167.29 131.08 166.98 129.98 166.82 129.35 166.82 128.25 166.98 127.63 167.29 127.47 167.92 127.47 168.24"/><line class="cls-3" x1="145.22" y1="255.13" x2="145.22" y2="250.42"/><line class="cls-3" x1="201.01" y1="250.42" x2="201.01" y2="255.13"/><polyline class="cls-3" points="178.38 258.59 177.91 258.91 177.44 259.54 177.44 254.98"/><polyline class="cls-3" points="175.08 255.45 175.24 255.29 175.08 254.98 174.92 255.29 175.08 255.45"/><polyline class="cls-3" points="171.62 259.54 173.35 259.54 173.51 257.49 173.35 257.81 172.88 257.96 172.41 257.96 171.94 257.81 171.47 257.33 171.31 256.71 171.31 256.24 171.47 255.61 171.94 255.29 172.41 254.98 172.88 254.98 173.35 255.29 173.51 255.45 173.67 255.92"/><polyline class="cls-3" points="169.27 259.54 169.9 259.22 170.21 258.59 170.37 257.49 170.37 256.86 170.21 255.92 169.9 255.29 169.27 254.98 168.95 254.98 168.48 255.29 168.17 255.92 168.01 256.86 168.01 257.49 168.17 258.59 168.48 259.22 168.95 259.54 169.27 259.54"/><line class="cls-3" x1="159.37" y1="194.32" x2="164.08" y2="194.32"/><line class="cls-3" x1="164.08" y1="268.49" x2="159.37" y2="268.49"/><line class="cls-3" x1="83.78" y1="274.15" x2="88.65" y2="274.15"/><line class="cls-3" x1="154.65" y1="288.45" x2="154.65" y2="293.16"/><line class="cls-3" x1="149.31" y1="274.15" x2="154.02" y2="274.15"/><line class="cls-3" x1="241.86" y1="333.86" x2="239.51" y2="333.86"/><line class="cls-3" x1="160.94" y1="1.51" x2="160.94" y2="1.51"/><line class="cls-3" x1="180.27" y1="1.67" x2="180.27" y2="1.67"/><line class="cls-3" x1="170.05" y1="1.36" x2="170.05" y2="1.36"/><line class="cls-3" x1="135.32" y1="1.04" x2="135.32" y2="1.04"/><path class="cls-1" d="M39.63,195.42l.31-.31"/><line class="cls-3" x1="80.33" y1="202.34" x2="80.33" y2="207.21"/><polyline class="cls-3" points="149 7.17 149 1.67 159.21 1.67 159.21 7.17 149 7.17"/><polyline class="cls-3" points="126.68 7.17 128.57 7.17 128.57 5.44 126.68 5.44 126.68 7.17"/><polyline class="cls-3" points="128.57 7.17 147.11 7.17 149 7.17 149 5.44 147.11 5.44 147.11 7.17"/><line class="cls-3" x1="128.57" y1="6.39" x2="147.11" y2="6.39"/><line class="cls-3" x1="147.11" y1="5.44" x2="128.57" y2="5.44"/><line class="cls-3" x1="149" y1="1.67" x2="126.68" y2="1.67"/><line class="cls-3" x1="0.5" y1="81.81" x2="0.5" y2="7.17"/><line class="cls-3" x1="210.47" y1="271.28" x2="210.47" y2="271.28"/><line class="cls-3" x1="173.6" y1="271.28" x2="173.6" y2="271.28"/><rect class="cls-1" x="95.13" y="87.4" width="52.11" height="3.23" transform="translate(32.17 210.19) rotate(-90)"/><rect class="cls-1" x="204.11" y="85.19" width="53.14" height="3.2" transform="translate(143.9 317.47) rotate(-90)"/><line class="cls-3" x1="319.28" y1="10.96" x2="319.28" y2="189.14"/></g></g></svg>