<svg xmlns="http://www.w3.org/2000/svg" viewBox="0 0 506.36 365.93"><defs><style>.cls-1,.cls-10,.cls-12,.cls-13,.cls-14,.cls-15,.cls-16,.cls-2,.cls-3,.cls-5,.cls-6,.cls-7{fill:#aaa;}.cls-1,.cls-10,.cls-11,.cls-12,.cls-13,.cls-14,.cls-15,.cls-16,.cls-17,.cls-2,.cls-3,.cls-4,.cls-5,.cls-6,.cls-7,.cls-8,.cls-9{stroke:#b7b7b7;}.cls-1,.cls-13,.cls-16,.cls-2,.cls-9{stroke-miterlimit:10;}.cls-16,.cls-2,.cls-3{stroke-width:0;}.cls-10,.cls-11,.cls-12,.cls-14,.cls-15,.cls-16,.cls-17,.cls-3,.cls-4,.cls-5,.cls-6,.cls-7,.cls-8{stroke-linecap:round;}.cls-10,.cls-11,.cls-12,.cls-14,.cls-15,.cls-17,.cls-3,.cls-4,.cls-5,.cls-6,.cls-7,.cls-8{stroke-linejoin:round;}.cls-11,.cls-17,.cls-4,.cls-8,.cls-9{fill:none;}.cls-14,.cls-4{stroke-width:0.96px;}.cls-5{stroke-width:0.24px;}.cls-6{stroke-width:0.12px;}.cls-7,.cls-8{stroke-width:0.48px;}.cls-10,.cls-11{stroke-width:0.5px;}.cls-12,.cls-17{stroke-width:0.36px;}.cls-13{font-size:3.86px;font-family:ArialMT, Arial;}.cls-15{stroke-width:0.72px;}</style></defs><g id="Layer_2" data-name="Layer 2"><g id="Capa_1" data-name="Capa 1"><path class="cls-1" d="M10.77,187.78l8.43,3.51H10.77Zm8.43,0H10.77l8.43,3.51Z"/><path class="cls-2" d="M10.77,187.78l8.43,3.51H10.77Zm8.43,0H10.77l8.43,3.51Z"/><path class="cls-1" d="M1.88,191.29l97.36,8.19H1.88Zm97.36,0H1.88l97.36,8.19Z"/><path class="cls-2" d="M1.88,191.29l97.36,8.19H1.88Zm97.36,0H1.88l97.36,8.19Z"/><path class="cls-1" d="M91.05,199.48l8.19,105.09H91.05Zm8.19,0H91.05l8.19,105.09Z"/><path class="cls-1" d="M91.05,206.39l8.19,105.08H91.05Zm8.19,0H91.05l8.19,105.08Z"/><path class="cls-2" d="M91.05,199.48l8.19,105.09H91.05Zm8.19,0H91.05l8.19,105.09Z"/><path class="cls-1" d="M496.88,344.59l8.19,12.4h-8.19Zm8.19,0h-8.19l8.19,12.4Z"/><path class="cls-2" d="M496.88,344.59l8.19,12.4h-8.19Zm8.19,0h-8.19l8.19,12.4Z"/><path class="cls-1" d="M91.05,310l8.19,47H91.05Zm8.19,0H91.05l8.19,47Z"/><path class="cls-2" d="M91.05,310l8.19,47H91.05Zm8.19,0H91.05l8.19,47Z"/><path class="cls-1" d="M91.05,357l414,8.43h-414Zm414,0h-414l414,8.43Z"/><path class="cls-2" d="M91.05,357l414,8.43h-414Zm414,0h-414l414,8.43Z"/><path class="cls-1" d="M411,.55l94.09,8.19H411Zm94.09,0H411l94.09,8.19Z"/><path class="cls-2" d="M411,.55l94.09,8.19H411Zm94.09,0H411l94.09,8.19Z"/><path class="cls-1" d="M496.88,8.74l8.19,11h-8.19Zm8.19,0h-8.19l8.19,11Z"/><path class="cls-2" d="M496.88,8.74l8.19,11h-8.19Zm8.19,0h-8.19l8.19,11Z"/><path class="cls-1" d="M496.88,151l8.19,20.83h-8.19Zm8.19,0h-8.19l8.19,20.83Z"/><path class="cls-2" d="M496.88,151l8.19,20.83h-8.19Zm8.19,0h-8.19l8.19,20.83Z"/><path class="cls-1" d="M411,171.86l94.09,5.62H411Zm94.09,0H411l94.09,5.62Z"/><path class="cls-2" d="M411,171.86l94.09,5.62H411Zm94.09,0H411l94.09,5.62Z"/><path class="cls-1" d="M496.88,177.48l8.19,12.41h-8.19Zm8.19,0h-8.19l8.19,12.41Z"/><path class="cls-2" d="M496.88,177.48l8.19,12.41h-8.19Zm8.19,0h-8.19l8.19,12.41Z"/><path class="cls-1" d="M190.52,169.06l5.61,2.8h-5.61Zm5.61,0h-5.61l5.61,2.8Z"/><path class="cls-2" d="M190.52,169.06l5.61,2.8h-5.61Zm5.61,0h-5.61l5.61,2.8Z"/><path class="cls-1" d="M190.52,171.86l148.61,5.62H190.52Zm148.61,0H190.52l148.61,5.62Z"/><path class="cls-2" d="M190.52,171.86l148.61,5.62H190.52Zm148.61,0H190.52l148.61,5.62Z"/><path class="cls-1" d="M496.88,53l8.19,15.21h-8.19Zm8.19,0h-8.19l8.19,15.21Z"/><path class="cls-2" d="M496.88,53l8.19,15.21h-8.19Zm8.19,0h-8.19l8.19,15.21Z"/><line class="cls-3" x1="339.13" y1="4.52" x2="343.11" y2="0.55"/><line class="cls-3" x1="339.13" y1="7.57" x2="346.39" y2="0.55"/><line class="cls-3" x1="339.13" y1="10.61" x2="349.43" y2="0.55"/><line class="cls-3" x1="339.13" y1="13.89" x2="352.47" y2="0.55"/><line class="cls-3" x1="341.94" y1="14.35" x2="355.75" y2="0.55"/><line class="cls-3" x1="344.98" y1="14.35" x2="358.79" y2="0.55"/><line class="cls-3" x1="348.03" y1="14.35" x2="361.84" y2="0.55"/><line class="cls-3" x1="351.3" y1="14.35" x2="365.11" y2="0.55"/><line class="cls-3" x1="354.35" y1="14.35" x2="368.15" y2="0.55"/><line class="cls-3" x1="357.39" y1="14.35" x2="371.2" y2="0.55"/><line class="cls-3" x1="360.67" y1="14.35" x2="374.47" y2="0.55"/><line class="cls-3" x1="363.71" y1="14.35" x2="377.52" y2="0.55"/><line class="cls-3" x1="366.75" y1="14.35" x2="380.79" y2="0.55"/><line class="cls-3" x1="370.03" y1="14.35" x2="383.84" y2="0.55"/><line class="cls-3" x1="373.07" y1="14.35" x2="386.88" y2="0.55"/><line class="cls-3" x1="376.35" y1="14.35" x2="390.16" y2="0.55"/><line class="cls-3" x1="379.39" y1="14.35" x2="393.2" y2="0.55"/><line class="cls-3" x1="382.43" y1="14.35" x2="396.24" y2="0.55"/><line class="cls-3" x1="385.71" y1="14.35" x2="399.52" y2="0.55"/><line class="cls-3" x1="388.75" y1="14.35" x2="402.56" y2="0.55"/><line class="cls-3" x1="391.79" y1="14.35" x2="405.6" y2="0.55"/><line class="cls-3" x1="395.07" y1="14.35" x2="408.88" y2="0.55"/><line class="cls-3" x1="398.11" y1="14.35" x2="410.98" y2="1.25"/><line class="cls-3" x1="401.16" y1="14.35" x2="410.98" y2="4.52"/><line class="cls-3" x1="404.43" y1="14.35" x2="410.98" y2="7.57"/><line class="cls-3" x1="407.47" y1="14.35" x2="410.98" y2="10.61"/><line class="cls-3" x1="410.75" y1="14.35" x2="410.98" y2="13.89"/><line class="cls-3" x1="339.13" y1="164.61" x2="340.3" y2="163.67"/><line class="cls-3" x1="339.13" y1="167.65" x2="343.35" y2="163.67"/><line class="cls-3" x1="339.13" y1="170.93" x2="346.62" y2="163.67"/><line class="cls-3" x1="339.13" y1="173.97" x2="349.67" y2="163.67"/><line class="cls-3" x1="339.13" y1="177.25" x2="352.71" y2="163.67"/><line class="cls-3" x1="342.18" y1="177.48" x2="355.98" y2="163.67"/><line class="cls-3" x1="345.22" y1="177.48" x2="359.03" y2="163.67"/><line class="cls-3" x1="348.26" y1="177.48" x2="362.07" y2="163.67"/><line class="cls-3" x1="351.54" y1="177.48" x2="365.35" y2="163.67"/><line class="cls-3" x1="354.58" y1="177.48" x2="368.39" y2="163.67"/><line class="cls-3" x1="357.86" y1="177.48" x2="371.67" y2="163.67"/><line class="cls-3" x1="360.9" y1="177.48" x2="374.71" y2="163.67"/><line class="cls-3" x1="363.94" y1="177.48" x2="377.75" y2="163.67"/><line class="cls-3" x1="367.22" y1="177.48" x2="381.03" y2="163.67"/><line class="cls-3" x1="370.26" y1="177.48" x2="384.07" y2="163.67"/><line class="cls-3" x1="373.3" y1="177.48" x2="387.11" y2="163.67"/><line class="cls-3" x1="376.58" y1="177.48" x2="390.39" y2="163.67"/><line class="cls-3" x1="379.62" y1="177.48" x2="393.43" y2="163.67"/><line class="cls-3" x1="382.67" y1="177.48" x2="396.47" y2="163.67"/><line class="cls-3" x1="385.94" y1="177.48" x2="399.75" y2="163.67"/><line class="cls-3" x1="388.98" y1="177.48" x2="402.79" y2="163.67"/><line class="cls-3" x1="392.03" y1="177.48" x2="406.07" y2="163.67"/><line class="cls-3" x1="395.3" y1="177.48" x2="409.11" y2="163.67"/><line class="cls-3" x1="398.35" y1="177.48" x2="410.98" y2="164.61"/><line class="cls-3" x1="401.62" y1="177.48" x2="410.98" y2="167.89"/><line class="cls-3" x1="404.67" y1="177.48" x2="410.98" y2="170.93"/><line class="cls-3" x1="407.71" y1="177.48" x2="410.98" y2="173.97"/><line class="cls-3" x1="410.98" y1="177.48" x2="410.98" y2="177.25"/><polyline class="cls-1" points="410.99 177.48 410.99 163.67 339.13 163.67 339.13 177.48 410.99 177.48"/><polyline class="cls-4" points="410.99 14.35 410.99 0.55 339.13 0.55 339.13 14.35 410.99 14.35"/><line class="cls-5" x1="505.3" y1="159.23" x2="505.3" y2="159.23"/><line class="cls-5" x1="505.54" y1="169.99" x2="505.54" y2="169.99"/><line class="cls-5" x1="506.01" y1="180.52" x2="506.01" y2="180.52"/><line class="cls-5" x1="505.3" y1="70.76" x2="505.3" y2="70.76"/><line class="cls-5" x1="505.07" y1="99.55" x2="505.07" y2="99.55"/><line class="cls-5" x1="505.54" y1="142.38" x2="505.54" y2="142.38"/><line class="cls-5" x1="506.01" y1="185.21" x2="506.01" y2="185.21"/><line class="cls-5" x1="506.01" y1="32.61" x2="506.01" y2="32.61"/><line class="cls-5" x1="506.24" y1="52.97" x2="506.24" y2="52.97"/><line class="cls-6" x1="10.77" y1="201.82" x2="91.05" y2="201.82"/><line class="cls-6" x1="90.81" y1="251.44" x2="91.05" y2="251.44"/><line class="cls-6" x1="5.39" y1="201.82" x2="0.24" y2="201.82"/><polyline class="cls-7" points="1.88 199.48 3.52 199.48 3.52 199.95 0.24 199.95 0.24 197.38 1.88 197.38 1.88 199.48"/><polyline class="cls-7" points="19.2 187.78 19.2 189.42 19.66 189.42 19.66 186.14 16.86 186.14 16.86 187.78 19.2 187.78"/><polyline class="cls-7" points="19.2 133.95 19.2 132.08 19.66 132.08 19.66 135.59 16.86 135.59 16.86 133.95 19.2 133.95"/><path class="cls-8" d="M70.22,186a50.68,50.68,0,0,0-50.67-50.67"/><polyline class="cls-7" points="70.22 186.14 19.66 186.14 19.66 183.33 70.22 183.33"/><line class="cls-7" x1="19.2" y1="133.95" x2="19.2" y2="187.78"/><polyline class="cls-9" points="132.47 242.08 99.24 242.08 99.24 356.99 132.47 356.99 132.47 242.08"/><path class="cls-10" d="M206.9,286.9a2.23,2.23,0,0,0-2.22-2.23"/><line class="cls-10" x1="206.9" y1="287.01" x2="206.9" y2="303.63"/><path class="cls-10" d="M204.68,305.74a2.23,2.23,0,0,0,2.22-2.23"/><line class="cls-10" x1="204.79" y1="305.97" x2="190.52" y2="305.97"/><path class="cls-10" d="M188.18,303.51a2.22,2.22,0,0,0,2.22,2.23"/><line class="cls-10" x1="188.18" y1="303.63" x2="188.18" y2="287.01"/><path class="cls-10" d="M190.4,284.67a2.22,2.22,0,0,0-2.22,2.23"/><line class="cls-10" x1="190.52" y1="284.91" x2="204.79" y2="284.91"/><path class="cls-10" d="M206.9,310.77a2.22,2.22,0,0,0-2.22-2.22"/><line class="cls-10" x1="206.9" y1="310.89" x2="206.9" y2="327.5"/><path class="cls-10" d="M204.68,329.61a2.23,2.23,0,0,0,2.22-2.22"/><line class="cls-10" x1="204.79" y1="329.61" x2="190.52" y2="329.61"/><path class="cls-10" d="M188.18,327.39a2.22,2.22,0,0,0,2.22,2.22"/><line class="cls-10" x1="188.18" y1="327.5" x2="188.18" y2="310.89"/><path class="cls-10" d="M190.4,308.55a2.21,2.21,0,0,0-2.22,2.22"/><line class="cls-10" x1="190.52" y1="308.78" x2="204.79" y2="308.78"/><path class="cls-10" d="M209.24,307.26a1.06,1.06,0,1,0-1.05,1.05,1,1,0,0,0,1.05-1.05"/><path class="cls-10" d="M199.41,295.32a2,2,0,1,0-2,2,2,2,0,0,0,2-2"/><path class="cls-10" d="M199.41,319a2,2,0,1,0-2,2,2,2,0,0,0,2-2"/><polyline class="cls-9" points="215.32 232.72 215.32 356.99 182.32 356.99 182.32 232.72 215.32 232.72"/><line class="cls-7" x1="317.6" y1="8.74" x2="317.6" y2="116.63"/><line class="cls-7" x1="314.79" y1="8.74" x2="314.79" y2="116.63"/><line class="cls-7" x1="317.6" y1="116.63" x2="284.6" y2="116.63"/><polyline class="cls-9" points="317.37 269.69 267.52 269.69 267.52 354.18 317.37 354.18 317.37 269.69"/><line class="cls-10" x1="317.37" y1="319.55" x2="317.37" y2="319.55"/><path class="cls-10" d="M321.76,320.18a26.27,26.27,0,0,0-4.57-.93"/><path class="cls-10" d="M322.64,320.39q-.39-.09-.78-.15"/><polyline class="cls-10" points="322.75 320.48 333.05 320.25 333.28 320.25 334.22 319.55"/><path class="cls-10" d="M334.16,319.39a.36.36,0,0,0-.1-.49"/><line class="cls-10" x1="334.22" y1="319.08" x2="317.37" y2="319.08"/><path class="cls-10" d="M317.19,343.25a26.29,26.29,0,0,0,4.57-.94"/><path class="cls-10" d="M321.86,342.26a16.65,16.65,0,0,0,3.66-1.05"/><path class="cls-10" d="M327.82,340.08a16.82,16.82,0,0,0-2.46.89"/><path class="cls-10" d="M328.45,340.39a1.32,1.32,0,0,0-.56,0"/><path class="cls-10" d="M329.55,340.62a2.64,2.64,0,0,0-1-.43"/><path class="cls-10" d="M330.84,341.54l-1.42-1"/><path class="cls-10" d="M331,341.56a5.55,5.55,0,0,0,1,.62"/><line class="cls-10" x1="332.11" y1="342.25" x2="333.05" y2="342.48"/><path class="cls-10" d="M332.85,342.31a9.06,9.06,0,0,0,.74-2.22"/><path class="cls-10" d="M333.59,339.9a45,45,0,0,0,0-17.53"/><path class="cls-10" d="M333.59,322.4a9,9,0,0,0-.74-2.21"/><line class="cls-10" x1="333.05" y1="320.25" x2="332.11" y2="320.25"/><path class="cls-10" d="M332,320.31a5.1,5.1,0,0,0-1,.63"/><path class="cls-10" d="M329.42,322l1.42-1"/><path class="cls-10" d="M328.51,322.31a2.8,2.8,0,0,0,1-.43"/><path class="cls-10" d="M327.89,322.08a1.75,1.75,0,0,0,.56,0"/><path class="cls-10" d="M325.36,321.52a18.11,18.11,0,0,0,2.46.9"/><path class="cls-10" d="M325.52,321.28a17.19,17.19,0,0,0-3.66-1"/><path class="cls-10" d="M321.76,320.18a26.27,26.27,0,0,0-4.57-.93"/><line class="cls-10" x1="317.37" y1="343.42" x2="334.22" y2="343.42"/><path class="cls-10" d="M334.06,343.36a.34.34,0,0,0,.15-.23.34.34,0,0,0,0-.26"/><polyline class="cls-10" points="334.22 343.18 333.28 342.48 333.05 342.48 332.11 342.25 322.75 342.01"/><path class="cls-10" d="M321.86,342.26l.78-.15"/><path class="cls-10" d="M317.19,343.25a26.29,26.29,0,0,0,4.57-.94"/><line class="cls-10" x1="313.62" y1="343.42" x2="315.26" y2="343.18"/><line class="cls-10" x1="315.96" y1="343.18" x2="317.37" y2="343.18"/><line class="cls-10" x1="311.98" y1="343.18" x2="313.62" y2="343.42"/><line class="cls-10" x1="310.11" y1="342.25" x2="310.58" y2="342.72"/><line class="cls-10" x1="311.28" y1="342.95" x2="311.98" y2="343.18"/><line class="cls-10" x1="310.11" y1="342.25" x2="309.41" y2="342.25"/><polyline class="cls-10" points="308.71 342.25 308.01 342.48 307.77 342.48 307.07 343.18 306.84 343.18 306.84 343.42 307.07 343.42 308.24 343.42"/><line class="cls-10" x1="308.94" y1="343.42" x2="310.35" y2="343.42"/><polyline class="cls-10" points="311.05 343.42 311.99 343.42 313.39 343.42"/><line class="cls-10" x1="314.09" y1="343.42" x2="315.5" y2="343.42"/><line class="cls-10" x1="316.2" y1="343.42" x2="317.37" y2="343.42"/><line class="cls-10" x1="317.37" y1="319.55" x2="315.96" y2="319.55"/><polyline class="cls-10" points="315.26 319.31 313.62 319.31 311.99 319.55 311.28 319.78"/><polyline class="cls-10" points="310.58 320.01 310.11 320.48 309.18 320.95 308.94 321.18"/><polyline class="cls-10" points="308.47 321.65 308.47 321.89 307.77 322.82 307.54 323.52"/><polyline class="cls-10" points="307.3 324.23 307.07 325.16 306.84 326.57"/><polyline class="cls-10" points="306.84 327.27 306.84 328.67 306.84 329.61"/><polyline class="cls-10" points="306.84 330.31 306.84 331.25 306.84 332.42"/><polyline class="cls-10" points="306.84 333.12 306.84 334.06 306.84 335.46"/><polyline class="cls-10" points="306.84 336.16 307.07 337.57 307.3 338.5"/><polyline class="cls-10" points="307.54 339.2 307.77 339.91 308.47 340.84 308.47 341.08"/><polyline class="cls-10" points="308.94 341.55 309.18 341.78 310.11 342.25 310.58 342.72"/><polyline class="cls-10" points="311.28 342.95 311.99 343.18 313.62 343.42 315.26 343.18"/><line class="cls-10" x1="315.96" y1="343.18" x2="317.37" y2="343.18"/><line class="cls-10" x1="317.37" y1="319.08" x2="316.2" y2="319.08"/><line class="cls-10" x1="315.5" y1="319.08" x2="314.09" y2="319.08"/><polyline class="cls-10" points="313.39 319.08 311.99 319.08 311.05 319.08"/><line class="cls-10" x1="310.35" y1="319.08" x2="308.94" y2="319.08"/><polyline class="cls-10" points="308.24 319.08 307.07 319.08 307.07 319.31 306.84 319.31 307.07 319.55 307.77 320.25 308.01 320.25 308.71 320.25"/><line class="cls-10" x1="309.41" y1="320.48" x2="310.11" y2="320.48"/><line class="cls-10" x1="311.98" y1="319.55" x2="311.28" y2="319.78"/><line class="cls-10" x1="310.58" y1="320.01" x2="310.11" y2="320.48"/><line class="cls-10" x1="313.62" y1="319.31" x2="311.98" y2="319.55"/><line class="cls-10" x1="317.37" y1="319.55" x2="315.96" y2="319.55"/><line class="cls-10" x1="315.26" y1="319.31" x2="313.62" y2="319.31"/><line class="cls-10" x1="317.37" y1="304.57" x2="317.37" y2="304.57"/><path class="cls-10" d="M317.19,304.4a26.29,26.29,0,0,0,4.57-.94"/><path class="cls-10" d="M321.86,303.4l.78-.14"/><polyline class="cls-10" points="322.75 303.4 333.05 303.63 333.28 303.63 334.22 304.57"/><path class="cls-10" d="M334.06,304.74a.34.34,0,0,0,.15-.22.36.36,0,0,0,0-.27"/><line class="cls-10" x1="334.22" y1="304.8" x2="317.37" y2="304.8"/><path class="cls-10" d="M321.76,281.57a26.29,26.29,0,0,0-4.57-.94"/><path class="cls-10" d="M325.52,282.67a16.65,16.65,0,0,0-3.66-1.05"/><path class="cls-10" d="M325.36,282.67a18.11,18.11,0,0,0,2.46.9"/><path class="cls-10" d="M327.89,283.46a1.75,1.75,0,0,0,.56,0"/><path class="cls-10" d="M328.51,283.69a2.8,2.8,0,0,0,1-.43"/><path class="cls-10" d="M329.42,283.1c.47-.32.95-.66,1.42-1"/><path class="cls-10" d="M332,281.46a5.1,5.1,0,0,0-1,.63"/><line class="cls-10" x1="332.11" y1="281.63" x2="333.05" y2="281.63"/><path class="cls-10" d="M333.59,283.78a9.13,9.13,0,0,0-.74-2.21"/><path class="cls-10" d="M333.59,301.28a45,45,0,0,0,0-17.53"/><path class="cls-10" d="M332.85,303.46a9.2,9.2,0,0,0,.74-2.22"/><line class="cls-10" x1="333.05" y1="303.63" x2="332.11" y2="303.63"/><path class="cls-10" d="M331,302.94a5.1,5.1,0,0,0,1,.63"/><path class="cls-10" d="M330.84,302.92l-1.42-1"/><path class="cls-10" d="M329.55,301.77a2.64,2.64,0,0,0-1-.43"/><path class="cls-10" d="M328.45,301.54a1.32,1.32,0,0,0-.56,0"/><path class="cls-10" d="M327.82,301.46a18.11,18.11,0,0,0-2.46.9"/><path class="cls-10" d="M321.86,303.4a16.1,16.1,0,0,0,3.66-1"/><path class="cls-10" d="M317.19,304.4a26.29,26.29,0,0,0,4.57-.94"/><line class="cls-10" x1="317.37" y1="280.46" x2="334.22" y2="280.46"/><path class="cls-10" d="M334.16,280.78a.37.37,0,0,0,0-.27.39.39,0,0,0-.15-.23"/><polyline class="cls-10" points="334.22 280.93 333.28 281.63 333.05 281.63 332.11 281.63 322.75 281.87"/><path class="cls-10" d="M322.64,281.77l-.78-.15"/><path class="cls-10" d="M321.76,281.57a26.29,26.29,0,0,0-4.57-.94"/><line class="cls-10" x1="313.62" y1="280.69" x2="315.26" y2="280.69"/><line class="cls-10" x1="315.96" y1="280.69" x2="317.37" y2="280.69"/><line class="cls-10" x1="311.98" y1="280.93" x2="313.62" y2="280.69"/><line class="cls-10" x1="310.11" y1="281.63" x2="310.58" y2="281.4"/><line class="cls-10" x1="311.28" y1="281.16" x2="311.98" y2="280.93"/><line class="cls-10" x1="310.11" y1="281.63" x2="309.41" y2="281.63"/><polyline class="cls-10" points="308.71 281.63 308.01 281.63 307.77 281.63 307.07 280.93 307.07 280.69 306.84 280.69 307.07 280.69 307.07 280.46 308.24 280.46"/><line class="cls-10" x1="308.94" y1="280.46" x2="310.35" y2="280.46"/><polyline class="cls-10" points="311.05 280.46 311.99 280.46 313.39 280.46"/><line class="cls-10" x1="314.09" y1="280.46" x2="315.5" y2="280.46"/><line class="cls-10" x1="316.2" y1="280.46" x2="317.37" y2="280.46"/><line class="cls-10" x1="317.37" y1="304.57" x2="315.96" y2="304.57"/><polyline class="cls-10" points="315.26 304.57 313.62 304.57 311.99 304.33 311.28 304.1"/><polyline class="cls-10" points="310.58 303.87 310.11 303.63 309.18 302.93 308.94 302.93"/><polyline class="cls-10" points="308.47 302.23 307.77 301.29 307.54 300.35"/><polyline class="cls-10" points="307.3 299.65 307.07 298.72 306.84 297.31"/><polyline class="cls-10" points="306.84 296.84 306.84 295.44 306.84 294.27"/><polyline class="cls-10" points="306.84 293.57 306.84 292.63 306.84 291.69"/><polyline class="cls-10" points="306.84 290.99 306.84 290.06 306.84 288.65"/><polyline class="cls-10" points="306.84 287.95 307.07 286.55 307.3 285.61"/><polyline class="cls-10" points="307.54 284.91 307.77 283.97 308.47 283.04"/><polyline class="cls-10" points="308.94 282.57 309.18 282.33 310.11 281.63 310.58 281.4"/><polyline class="cls-10" points="311.28 281.16 311.99 280.93 313.62 280.69 315.26 280.69"/><line class="cls-10" x1="315.96" y1="280.69" x2="317.37" y2="280.69"/><line class="cls-10" x1="317.37" y1="304.8" x2="316.2" y2="304.8"/><line class="cls-10" x1="315.5" y1="304.8" x2="314.09" y2="304.8"/><polyline class="cls-10" points="313.39 304.8 311.99 304.8 311.05 304.8"/><line class="cls-10" x1="310.35" y1="304.8" x2="308.94" y2="304.8"/><polyline class="cls-10" points="308.24 304.8 307.07 304.8 307.07 304.57 306.84 304.57 307.07 304.57 307.77 303.63 308.01 303.63 308.71 303.63"/><line class="cls-10" x1="309.41" y1="303.63" x2="310.11" y2="303.63"/><line class="cls-10" x1="311.98" y1="304.33" x2="311.28" y2="304.1"/><line class="cls-10" x1="310.58" y1="303.86" x2="310.11" y2="303.63"/><line class="cls-10" x1="313.62" y1="304.57" x2="311.98" y2="304.33"/><line class="cls-10" x1="317.37" y1="304.57" x2="315.96" y2="304.57"/><line class="cls-10" x1="315.26" y1="304.57" x2="313.62" y2="304.57"/><line class="cls-10" x1="267.52" y1="319.55" x2="267.52" y2="319.55"/><path class="cls-10" d="M267.46,319.25a26.27,26.27,0,0,0-4.57.93"/><path class="cls-10" d="M263,320.24c-.26,0-.52.09-.77.15"/><polyline class="cls-10" points="262.37 320.48 252.07 320.25 251.84 320.25 251.6 320.25 250.67 319.55"/><path class="cls-10" d="M250.59,318.9a.36.36,0,0,0-.1.49"/><line class="cls-10" x1="250.9" y1="319.08" x2="267.52" y2="319.08"/><path class="cls-10" d="M262.89,342.31a26.29,26.29,0,0,0,4.57.94"/><path class="cls-10" d="M259.37,341.21a16.57,16.57,0,0,0,3.65,1.05"/><path class="cls-10" d="M259.29,341a16.82,16.82,0,0,0-2.46-.89"/><path class="cls-10" d="M256.76,340.42a1.32,1.32,0,0,0-.56,0"/><path class="cls-10" d="M256.37,340.19a2.6,2.6,0,0,0-1,.43"/><path class="cls-10" d="M255.23,340.54l-1.42,1"/><path class="cls-10" d="M252.91,342.18a5.91,5.91,0,0,0,1-.62"/><line class="cls-10" x1="253.01" y1="342.25" x2="252.07" y2="342.48"/><path class="cls-10" d="M251.3,340.09a9,9,0,0,0,.73,2.22"/><path class="cls-10" d="M251.06,322.37a45,45,0,0,0,0,17.53"/><path class="cls-10" d="M252,320.19a9,9,0,0,0-.73,2.21"/><line class="cls-10" x1="252.07" y1="320.25" x2="253.01" y2="320.25"/><path class="cls-10" d="M253.93,320.94a5.39,5.39,0,0,0-1-.63"/><path class="cls-10" d="M253.81,321l1.42,1"/><path class="cls-10" d="M255.34,321.88a2.76,2.76,0,0,0,1,.43"/><path class="cls-10" d="M256.2,322.11a1.75,1.75,0,0,0,.56,0"/><path class="cls-10" d="M256.83,322.42a18.11,18.11,0,0,0,2.46-.9"/><path class="cls-10" d="M263,320.24a17.1,17.1,0,0,0-3.65,1"/><path class="cls-10" d="M267.46,319.25a26.27,26.27,0,0,0-4.57.93"/><line class="cls-10" x1="267.52" y1="343.42" x2="250.9" y2="343.42"/><path class="cls-10" d="M250.49,342.87a.34.34,0,0,0-.05.26.34.34,0,0,0,.15.23"/><polyline class="cls-10" points="250.67 343.18 251.6 342.48 251.84 342.48 252.07 342.48 253.01 342.25 262.37 342.01"/><path class="cls-10" d="M262.25,342.11l.77.15"/><path class="cls-10" d="M262.89,342.31a26.29,26.29,0,0,0,4.57.94"/><line class="cls-10" x1="271.26" y1="343.42" x2="269.86" y2="343.18"/><line class="cls-10" x1="269.16" y1="343.18" x2="267.52" y2="343.18"/><line class="cls-10" x1="272.9" y1="343.18" x2="271.26" y2="343.42"/><line class="cls-10" x1="275.01" y1="342.25" x2="274.3" y2="342.72"/><line class="cls-10" x1="273.6" y1="342.95" x2="272.9" y2="343.18"/><line class="cls-10" x1="275.01" y1="342.25" x2="275.71" y2="342.25"/><polyline class="cls-10" points="276.41 342.25 277.11 342.48 277.35 342.48 278.05 343.18 278.05 343.42 276.88 343.42"/><line class="cls-10" x1="276.18" y1="343.42" x2="274.77" y2="343.42"/><polyline class="cls-10" points="274.07 343.42 272.9 343.42 271.73 343.42"/><line class="cls-10" x1="271.03" y1="343.42" x2="269.62" y2="343.42"/><line class="cls-10" x1="268.92" y1="343.42" x2="267.52" y2="343.42"/><line class="cls-10" x1="267.52" y1="319.55" x2="269.16" y2="319.55"/><polyline class="cls-10" points="269.86 319.31 271.26 319.31 272.9 319.55 273.6 319.78"/><polyline class="cls-10" points="274.3 320.01 275.01 320.48 275.94 320.95 275.94 321.18"/><polyline class="cls-10" points="276.41 321.65 276.64 321.89 277.11 322.82 277.58 323.52"/><polyline class="cls-10" points="277.81 324.23 278.05 325.16 278.05 326.57"/><polyline class="cls-10" points="278.05 327.27 278.28 328.67 278.28 329.61"/><polyline class="cls-10" points="278.28 330.31 278.28 331.25 278.28 332.42"/><polyline class="cls-10" points="278.28 333.12 278.28 334.06 278.05 335.46"/><polyline class="cls-10" points="278.05 336.16 278.05 337.57 277.81 338.5"/><polyline class="cls-10" points="277.58 339.2 277.11 339.91 276.64 340.84 276.41 341.08"/><polyline class="cls-10" points="275.94 341.55 275.94 341.78 275.01 342.25 274.3 342.72"/><polyline class="cls-10" points="273.6 342.95 272.9 343.18 271.26 343.42 269.86 343.18"/><line class="cls-10" x1="269.16" y1="343.18" x2="267.52" y2="343.18"/><line class="cls-10" x1="267.52" y1="319.08" x2="268.92" y2="319.08"/><line class="cls-10" x1="269.62" y1="319.08" x2="271.03" y2="319.08"/><polyline class="cls-10" points="271.73 319.08 272.9 319.08 274.07 319.08"/><line class="cls-10" x1="274.77" y1="319.08" x2="276.18" y2="319.08"/><polyline class="cls-10" points="276.88 319.08 278.05 319.08 278.05 319.31 278.05 319.55 277.35 320.25 277.11 320.25 276.41 320.25"/><line class="cls-10" x1="275.71" y1="320.48" x2="275.01" y2="320.48"/><line class="cls-10" x1="272.9" y1="319.55" x2="273.6" y2="319.78"/><line class="cls-10" x1="274.3" y1="320.01" x2="275.01" y2="320.48"/><line class="cls-10" x1="271.26" y1="319.31" x2="272.9" y2="319.55"/><line class="cls-10" x1="267.52" y1="319.55" x2="269.16" y2="319.55"/><line class="cls-10" x1="269.86" y1="319.31" x2="271.26" y2="319.31"/><line class="cls-10" x1="267.52" y1="304.57" x2="267.52" y2="304.57"/><path class="cls-10" d="M262.89,303.46a26.29,26.29,0,0,0,4.57.94"/><path class="cls-10" d="M262.25,303.26l.77.14"/><polyline class="cls-10" points="262.37 303.4 252.07 303.63 251.84 303.63 251.6 303.63 250.67 304.57"/><path class="cls-10" d="M250.49,304.25a.36.36,0,0,0-.05.27.34.34,0,0,0,.15.22"/><line class="cls-10" x1="250.9" y1="304.8" x2="267.52" y2="304.8"/><path class="cls-10" d="M267.46,280.63a26.29,26.29,0,0,0-4.57.94"/><path class="cls-10" d="M263,281.62a16.57,16.57,0,0,0-3.65,1.05"/><path class="cls-10" d="M256.83,283.57a18.11,18.11,0,0,0,2.46-.9"/><path class="cls-10" d="M256.2,283.49a1.75,1.75,0,0,0,.56,0"/><path class="cls-10" d="M255.34,283.26a2.76,2.76,0,0,0,1,.43"/><path class="cls-10" d="M253.81,282.1c.47.34.95.68,1.42,1"/><path class="cls-10" d="M253.93,282.09a5.39,5.39,0,0,0-1-.63"/><line class="cls-10" x1="253.01" y1="281.63" x2="252.07" y2="281.63"/><path class="cls-10" d="M252,281.57a9.1,9.1,0,0,0-.73,2.21"/><path class="cls-10" d="M251.06,283.75a45,45,0,0,0,0,17.53"/><path class="cls-10" d="M251.3,301.24a9.17,9.17,0,0,0,.73,2.22"/><line class="cls-10" x1="252.07" y1="303.63" x2="253.01" y2="303.63"/><path class="cls-10" d="M252.91,303.57a5.39,5.39,0,0,0,1-.63"/><path class="cls-10" d="M255.23,301.92l-1.42,1"/><path class="cls-10" d="M256.37,301.34a2.6,2.6,0,0,0-1,.43"/><path class="cls-10" d="M256.76,301.57a1.32,1.32,0,0,0-.56,0"/><path class="cls-10" d="M259.29,302.36a18.11,18.11,0,0,0-2.46-.9"/><path class="cls-10" d="M259.37,302.36a16,16,0,0,0,3.65,1"/><path class="cls-10" d="M262.89,303.46a26.29,26.29,0,0,0,4.57.94"/><line class="cls-10" x1="267.52" y1="280.46" x2="250.9" y2="280.46"/><path class="cls-10" d="M250.59,280.28a.39.39,0,0,0-.15.23.37.37,0,0,0,.05.27"/><polyline class="cls-10" points="250.67 280.93 251.6 281.63 251.84 281.63 252.07 281.63 253.01 281.63 262.37 281.87"/><path class="cls-10" d="M263,281.62c-.26.05-.52.09-.77.15"/><path class="cls-10" d="M267.46,280.63a26.29,26.29,0,0,0-4.57.94"/><line class="cls-10" x1="271.26" y1="280.69" x2="269.86" y2="280.69"/><line class="cls-10" x1="269.16" y1="280.69" x2="267.52" y2="280.69"/><line class="cls-10" x1="272.9" y1="280.93" x2="271.26" y2="280.69"/><line class="cls-10" x1="275.01" y1="281.63" x2="274.3" y2="281.4"/><line class="cls-10" x1="273.6" y1="281.16" x2="272.9" y2="280.93"/><line class="cls-10" x1="275.01" y1="281.63" x2="275.71" y2="281.63"/><polyline class="cls-10" points="276.41 281.63 277.11 281.63 277.35 281.63 278.05 280.93 278.05 280.69 278.05 280.46 276.88 280.46"/><line class="cls-10" x1="276.18" y1="280.46" x2="274.77" y2="280.46"/><polyline class="cls-10" points="274.07 280.46 272.9 280.46 271.73 280.46"/><line class="cls-10" x1="271.03" y1="280.46" x2="269.62" y2="280.46"/><line class="cls-10" x1="268.92" y1="280.46" x2="267.52" y2="280.46"/><line class="cls-10" x1="267.52" y1="304.57" x2="269.16" y2="304.57"/><polyline class="cls-10" points="269.86 304.57 271.26 304.57 272.9 304.33 273.6 304.1"/><polyline class="cls-10" points="274.3 303.87 275.01 303.63 275.94 302.93"/><polyline class="cls-10" points="276.41 302.23 276.64 302.23 277.11 301.29 277.58 300.35"/><polyline class="cls-10" points="277.81 299.65 278.05 298.72 278.05 297.31"/><polyline class="cls-10" points="278.05 296.84 278.28 295.44 278.28 294.27"/><polyline class="cls-10" points="278.28 293.57 278.28 292.63 278.28 291.69"/><polyline class="cls-10" points="278.28 290.99 278.28 290.06 278.05 288.65"/><polyline class="cls-10" points="278.05 287.95 278.05 286.55 277.81 285.61"/><polyline class="cls-10" points="277.58 284.91 277.11 283.97 276.64 283.04 276.41 283.04"/><polyline class="cls-10" points="275.94 282.57 275.94 282.33 275.01 281.63 274.3 281.4"/><polyline class="cls-10" points="273.6 281.16 272.9 280.93 271.26 280.69 269.86 280.69"/><line class="cls-10" x1="269.16" y1="280.69" x2="267.52" y2="280.69"/><line class="cls-10" x1="267.52" y1="304.8" x2="268.92" y2="304.8"/><line class="cls-10" x1="269.62" y1="304.8" x2="271.03" y2="304.8"/><polyline class="cls-10" points="271.73 304.8 272.9 304.8 274.07 304.8"/><line class="cls-10" x1="274.77" y1="304.8" x2="276.18" y2="304.8"/><polyline class="cls-10" points="276.88 304.8 278.05 304.8 278.05 304.57 277.35 303.63 277.11 303.63 276.41 303.63"/><line class="cls-10" x1="275.71" y1="303.63" x2="275.01" y2="303.63"/><line class="cls-10" x1="272.9" y1="304.33" x2="273.6" y2="304.1"/><line class="cls-10" x1="274.3" y1="303.86" x2="275.01" y2="303.63"/><line class="cls-10" x1="271.26" y1="304.57" x2="272.9" y2="304.33"/><line class="cls-10" x1="267.52" y1="304.57" x2="269.16" y2="304.57"/><line class="cls-10" x1="269.86" y1="304.57" x2="271.26" y2="304.57"/><polyline class="cls-9" points="466.45 171.87 466.45 152.44 410.99 152.44 410.99 171.87 466.45 171.87"/><polyline class="cls-10" points="463.64 171.87 463.64 169.06 413.79 169.06 413.79 171.87 463.64 171.87"/><polyline class="cls-7" points="191.69 120.14 190.28 120.14 190.28 117.33 190.52 117.33 190.52 116.86 189.81 116.86 189.81 120.61 191.69 120.61 191.69 120.14"/><polyline class="cls-7" points="196.6 116.86 196.13 116.86 196.13 117.33 196.37 117.33 196.37 120.14 194.73 120.14 194.73 120.61 196.6 120.61 196.6 116.86"/><polyline class="cls-7" points="193.56 120.61 192.16 120.61 192.16 120.84 192.16 121.31 193.56 121.31 193.56 120.61"/><polyline class="cls-7" points="194.73 120.14 195.67 120.14 195.67 119.91 190.75 119.91 190.75 120.14 191.69 120.14 191.69 120.61 190.75 120.61 190.75 120.84 192.16 120.84 192.16 120.61 193.56 120.61 193.56 120.84 195.67 120.84 195.67 120.61 194.73 120.61 194.73 120.14"/><polyline class="cls-7" points="196.6 167.89 194.73 167.89 194.73 168.12 196.37 168.12 196.37 171.16 196.13 171.16 196.13 171.4 196.6 171.4 196.6 167.89"/><polyline class="cls-7" points="191.69 167.89 189.81 167.89 189.81 171.4 190.52 171.4 190.52 171.16 190.28 171.16 190.28 168.12 191.69 168.12 191.69 167.89"/><polyline class="cls-7" points="193.56 167.18 192.16 167.18 192.16 167.89 193.56 167.89 193.56 167.18"/><polyline class="cls-7" points="194.73 167.89 195.67 167.89 195.67 167.65 193.56 167.65 193.56 167.89 192.16 167.89 192.16 167.65 190.75 167.65 190.75 167.89 191.69 167.89 191.69 168.12 190.75 168.12 190.75 168.59 195.67 168.59 195.67 168.12 194.73 168.12 194.73 167.89"/><polyline class="cls-7" points="242.47 165.54 195.67 165.54 195.67 167.65 242.47 167.65"/><path class="cls-8" d="M242.24,167.53a46.69,46.69,0,0,0-46.69-46.69"/><line class="cls-7" x1="194.73" y1="119.44" x2="194.73" y2="169.06"/><polyline class="cls-7" points="496.88 189.89 496.88 192.69 499.45 192.69 499.45 189.89 496.88 189.89"/><polyline class="cls-7" points="496.88 220.31 496.88 222.89 499.45 222.89 499.45 220.31 496.88 220.31"/><polyline class="cls-7" points="496.88 222.89 496.88 225.69 499.45 225.69 499.45 222.89 496.88 222.89"/><polyline class="cls-7" points="496.88 341.78 496.88 344.59 499.45 344.59 499.45 341.78 496.88 341.78"/><line class="cls-7" x1="496.88" y1="220.31" x2="496.88" y2="192.69"/><line class="cls-7" x1="498.05" y1="192.69" x2="498.05" y2="220.31"/><line class="cls-7" x1="499.45" y1="220.31" x2="499.45" y2="192.69"/><line class="cls-7" x1="496.88" y1="225.69" x2="496.88" y2="341.78"/><line class="cls-7" x1="498.05" y1="341.78" x2="498.05" y2="225.69"/><line class="cls-7" x1="499.45" y1="225.69" x2="499.45" y2="341.78"/><line class="cls-7" x1="505.07" y1="344.59" x2="505.07" y2="189.89"/><polyline class="cls-7" points="496.88 68.18 496.88 70.99 499.45 70.99 499.45 68.18 496.88 68.18"/><polyline class="cls-7" points="496.88 98.61 496.88 101.42 499.45 101.42 499.45 98.61 496.88 98.61"/><polyline class="cls-7" points="496.88 101.42 496.88 104.23 499.45 104.23 499.45 101.42 496.88 101.42"/><polyline class="cls-7" points="496.88 148.46 496.88 151.03 499.45 151.03 499.45 148.46 496.88 148.46"/><line class="cls-7" x1="496.88" y1="98.61" x2="496.88" y2="70.99"/><line class="cls-7" x1="498.05" y1="70.99" x2="498.05" y2="98.61"/><line class="cls-7" x1="499.45" y1="98.61" x2="499.45" y2="70.99"/><line class="cls-7" x1="496.88" y1="104.23" x2="496.88" y2="148.46"/><line class="cls-7" x1="498.05" y1="148.46" x2="498.05" y2="104.23"/><line class="cls-7" x1="499.45" y1="104.23" x2="499.45" y2="148.46"/><line class="cls-7" x1="505.07" y1="151.03" x2="505.07" y2="68.18"/><line class="cls-10" x1="428.54" y1="312.76" x2="428.54" y2="345.99"/><line class="cls-10" x1="463.64" y1="312.76" x2="364.18" y2="312.76"/><line class="cls-10" x1="399.05" y1="312.76" x2="399.05" y2="345.99"/><line class="cls-10" x1="369.56" y1="345.99" x2="369.56" y2="312.76"/><polyline class="cls-9" points="364.18 312.76 364.18 356.99 463.64 356.99"/><line class="cls-10" x1="463.64" y1="345.99" x2="364.18" y2="345.99"/><line class="cls-10" x1="458.03" y1="345.99" x2="458.03" y2="312.76"/><line class="cls-10" x1="463.64" y1="312.76" x2="463.64" y2="356.99"/><line class="cls-11" x1="377.98" y1="337.8" x2="377.98" y2="337.8"/><line class="cls-10" x1="377.98" y1="321.18" x2="377.98" y2="321.18"/><line class="cls-10" x1="390.86" y1="337.8" x2="390.86" y2="337.8"/><line class="cls-10" x1="390.86" y1="321.18" x2="390.86" y2="321.18"/><line class="cls-10" x1="420.35" y1="337.8" x2="420.35" y2="337.8"/><line class="cls-10" x1="420.35" y1="321.18" x2="420.35" y2="321.18"/><line class="cls-10" x1="407.47" y1="337.8" x2="407.47" y2="337.8"/><line class="cls-10" x1="407.47" y1="321.18" x2="407.47" y2="321.18"/><line class="cls-10" x1="436.96" y1="337.8" x2="436.96" y2="337.8"/><line class="cls-10" x1="436.96" y1="321.18" x2="436.96" y2="321.18"/><line class="cls-10" x1="449.84" y1="337.8" x2="449.84" y2="337.8"/><line class="cls-10" x1="449.84" y1="321.18" x2="449.84" y2="321.18"/><polyline class="cls-10" points="482.84 325.4 482.84 344.35 466.45 344.35 466.45 325.4 482.84 325.4"/><line class="cls-10" x1="428.54" y1="221.72" x2="428.54" y2="188.48"/><line class="cls-10" x1="463.64" y1="221.72" x2="364.18" y2="221.72"/><line class="cls-10" x1="399.05" y1="221.72" x2="399.05" y2="188.48"/><line class="cls-10" x1="369.56" y1="188.48" x2="369.56" y2="221.72"/><polyline class="cls-9" points="364.18 221.72 364.18 177.48 463.64 177.48"/><line class="cls-10" x1="463.64" y1="188.48" x2="364.18" y2="188.48"/><line class="cls-10" x1="458.03" y1="188.48" x2="458.03" y2="221.72"/><line class="cls-10" x1="463.64" y1="221.72" x2="463.64" y2="177.48"/><line class="cls-10" x1="377.98" y1="196.67" x2="377.98" y2="196.67"/><line class="cls-10" x1="377.98" y1="213.29" x2="377.98" y2="213.29"/><line class="cls-10" x1="390.86" y1="196.67" x2="390.86" y2="196.67"/><line class="cls-10" x1="390.86" y1="213.29" x2="390.86" y2="213.29"/><line class="cls-10" x1="420.35" y1="196.67" x2="420.35" y2="196.67"/><line class="cls-10" x1="420.35" y1="213.29" x2="420.35" y2="213.29"/><line class="cls-10" x1="407.47" y1="196.67" x2="407.47" y2="196.67"/><line class="cls-10" x1="407.47" y1="213.29" x2="407.47" y2="213.29"/><line class="cls-10" x1="436.96" y1="196.67" x2="436.96" y2="196.67"/><line class="cls-10" x1="436.96" y1="213.29" x2="436.96" y2="213.29"/><line class="cls-10" x1="449.84" y1="196.67" x2="449.84" y2="196.67"/><line class="cls-10" x1="449.84" y1="213.29" x2="449.84" y2="213.29"/><polyline class="cls-11" points="482.84 208.84 482.84 190.12 466.45 190.12 466.45 208.84 482.84 208.84"/><polyline class="cls-9" points="394.6 250.74 394.6 278.35 433.22 278.35 433.22 250.74 394.6 250.74"/><polyline class="cls-10" points="99.24 191.29 132.47 191.29 132.47 192.23 99.24 192.23 99.24 191.29"/><line class="cls-10" x1="132.47" y1="192.23" x2="132.47" y2="195.03"/><line class="cls-10" x1="132.47" y1="197.84" x2="132.47" y2="203.46"/><line class="cls-10" x1="132.47" y1="206.03" x2="132.47" y2="211.65"/><line class="cls-10" x1="132.47" y1="214.46" x2="132.47" y2="219.84"/><line class="cls-10" x1="132.47" y1="222.65" x2="132.47" y2="228.27"/><line class="cls-10" x1="132.47" y1="231.08" x2="132.47" y2="236.46"/><line class="cls-10" x1="132.47" y1="239.27" x2="132.47" y2="242.08"/><path class="cls-7" d="M103.1,282.8a1,1,0,0,0-1,1.05"/><line class="cls-10" x1="103.22" y1="283.03" x2="128.5" y2="283.03"/><path class="cls-10" d="M129.43,283.85a1,1,0,0,0-1.05-1.05"/><line class="cls-10" x1="129.67" y1="283.97" x2="129.67" y2="315.1"/><path class="cls-10" d="M128.38,316a1,1,0,0,0,1.05-1"/><line class="cls-10" x1="128.5" y1="316.03" x2="103.22" y2="316.03"/><path class="cls-7" d="M102.05,315a1,1,0,0,0,1,1"/><line class="cls-7" x1="102.05" y1="315.1" x2="102.05" y2="283.97"/><path class="cls-10" d="M122.76,313.23a5.5,5.5,0,1,0-5.5-5.5,5.5,5.5,0,0,0,5.5,5.5"/><path class="cls-10" d="M122.76,294.74a3.63,3.63,0,1,0-3.63-3.63,3.64,3.64,0,0,0,3.63,3.63"/><path class="cls-10" d="M122.76,293.8a2.69,2.69,0,1,0-2.69-2.69,2.68,2.68,0,0,0,2.69,2.69"/><path class="cls-10" d="M109,296.61a5.5,5.5,0,1,0-5.5-5.5,5.5,5.5,0,0,0,5.5,5.5"/><path class="cls-10" d="M109,295.67a4.56,4.56,0,1,0-4.56-4.56,4.57,4.57,0,0,0,4.56,4.56"/><path class="cls-10" d="M109,311.35a3.63,3.63,0,1,0-3.62-3.62,3.62,3.62,0,0,0,3.62,3.62"/><path class="cls-10" d="M109,310.42a2.7,2.7,0,1,0-2.69-2.69,2.69,2.69,0,0,0,2.69,2.69"/><path class="cls-10" d="M122.76,312.29a4.57,4.57,0,1,0-4.56-4.56,4.57,4.57,0,0,0,4.56,4.56"/><polyline class="cls-7" points="496.88 19.74 496.88 22.55 499.45 22.55 499.45 19.74 496.88 19.74"/><polyline class="cls-7" points="496.88 22.55 496.88 50.16 496.88 52.97 499.45 52.97 499.45 50.16 496.88 50.16"/><line class="cls-7" x1="498.05" y1="22.55" x2="498.05" y2="50.16"/><line class="cls-7" x1="499.45" y1="50.16" x2="499.45" y2="22.55"/><line class="cls-7" x1="505.07" y1="52.97" x2="505.07" y2="19.74"/><path class="cls-12" d="M215.21,102.59a1.29,1.29,0,0,0,1.29-1.29"/><line class="cls-12" x1="215.33" y1="102.82" x2="198.71" y2="102.82"/><path class="cls-12" d="M197.3,101.3a1.29,1.29,0,0,0,1.29,1.29"/><line class="cls-12" x1="197.54" y1="101.42" x2="197.54" y2="84.8"/><path class="cls-12" d="M198.59,83.4a1.28,1.28,0,0,0-1.29,1.28"/><line class="cls-12" x1="198.71" y1="83.4" x2="215.33" y2="83.4"/><path class="cls-12" d="M216.5,84.68a1.28,1.28,0,0,0-1.29-1.28"/><line class="cls-12" x1="216.73" y1="84.8" x2="216.73" y2="101.42"/><path class="cls-12" d="M215.56,84.68a.35.35,0,0,0-.31-.34"/><line class="cls-12" x1="215.79" y1="84.8" x2="215.79" y2="101.42"/><path class="cls-12" d="M215.25,101.65a.35.35,0,0,0,.31-.35"/><path class="cls-12" d="M198.24,101.3a.35.35,0,0,0,.31.35"/><line class="cls-12" x1="198.47" y1="101.42" x2="198.47" y2="84.8"/><path class="cls-12" d="M198.55,84.34a.35.35,0,0,0-.31.34"/><path class="cls-12" d="M215.34,84.36a70.25,70.25,0,0,0-16.65,0"/><path class="cls-12" d="M198.69,101.62a69.21,69.21,0,0,0,16.65,0"/><path class="cls-12" d="M195.55,93.69a.82.82,0,1,0-.82-.81.82.82,0,0,0,.82.81"/><path class="cls-12" d="M207,94.86a2,2,0,1,0-2-2,2,2,0,0,0,2,2"/><polyline class="cls-9" points="190.52 72.4 223.75 72.4 223.75 111.01 190.52 111.01 190.52 72.4"/><polyline class="cls-7" points="232.88 115.23 232.88 116.86 229.84 116.86 229.84 116.63 229.6 116.63 229.6 117.33 233.11 117.33 233.11 115.23 232.88 115.23"/><polyline class="cls-7" points="229.6 110.31 229.6 111.01 229.84 111.01 229.84 110.78 232.88 110.78 232.88 112.42 233.11 112.42 233.11 110.31 229.6 110.31"/><polyline class="cls-7" points="233.11 113.35 233.11 114.99 233.58 114.99 233.81 114.99 233.81 113.35 233.11 113.35"/><polyline class="cls-7" points="232.88 112.42 232.88 111.25 232.64 111.25 232.64 116.4 232.88 116.4 232.88 115.23 233.11 115.23 233.11 116.4 233.58 116.4 233.58 114.99 233.11 114.99 233.11 113.35 233.58 113.35 233.58 111.25 233.11 111.25 233.11 112.42 232.88 112.42"/><polyline class="cls-7" points="275.01 110.31 275.01 112.42 275.24 112.42 275.24 110.78 278.28 110.78 278.28 111.01 278.52 111.01 278.52 110.31 275.01 110.31"/><polyline class="cls-7" points="275.01 115.23 275.01 117.33 278.52 117.33 278.52 116.63 278.28 116.63 278.28 116.86 275.24 116.86 275.24 115.23 275.01 115.23"/><polyline class="cls-7" points="274.3 113.35 274.3 114.99 275.01 114.99 275.01 113.35 274.3 113.35"/><polyline class="cls-7" points="275.01 112.42 275.01 111.25 274.54 111.25 274.54 113.35 275.01 113.35 275.01 114.99 274.54 114.99 274.54 116.4 275.01 116.4 275.01 115.23 275.24 115.23 275.24 116.4 275.71 116.4 275.71 111.25 275.24 111.25 275.24 112.42 275.01 112.42"/><polyline class="cls-7" points="272.67 70.29 272.67 111.25 274.54 111.25 274.54 70.29"/><path class="cls-9" d="M274.42,70.06a41.07,41.07,0,0,0-41.07,41.07"/><line class="cls-7" x1="276.18" y1="112.42" x2="231.94" y2="112.42"/><polyline class="cls-8" points="190.52 69.59 242.94 69.59 242.94 8.74"/><polyline class="cls-9" points="190.52 66.78 240.37 66.78 240.37 8.74"/><path class="cls-12" d="M259.44,24.89a2.69,2.69,0,1,0,0,5.38"/><path class="cls-12" d="M259.44,30.27a2.69,2.69,0,0,0,0-5.38"/><path class="cls-12" d="M249.91,20.41a27.71,27.71,0,0,0,3.87,22.46"/><path class="cls-12" d="M253.72,42.91a6.9,6.9,0,0,0,11.44,0"/><path class="cls-12" d="M265.34,42.87a27.71,27.71,0,0,0,3.87-22.46"/><path class="cls-12" d="M269.11,20.41a1.53,1.53,0,0,0-1.48-1.14"/><line class="cls-12" x1="267.75" y1="19.27" x2="251.6" y2="19.27"/><path class="cls-12" d="M251.48,19.27A1.53,1.53,0,0,0,250,20.41"/><path class="cls-12" d="M248.51,10a25,25,0,0,0,.43,8.53"/><path class="cls-12" d="M249.05,18.63a.8.8,0,0,0,.47.57.82.82,0,0,0,.73,0"/><path class="cls-12" d="M268.59,19.13a18.37,18.37,0,0,0-18.29,0"/><path class="cls-12" d="M268.63,19.16a.84.84,0,0,0,.74,0,.82.82,0,0,0,.47-.57"/><path class="cls-12" d="M270,18.56a25,25,0,0,0,.42-8.53"/><path class="cls-12" d="M270.32,10.13a1.05,1.05,0,0,0-.93-.92"/><path class="cls-12" d="M269.41,9.28a92.31,92.31,0,0,0-19.94,0"/><path class="cls-12" d="M249.5,9.21a1,1,0,0,0-.93.92"/><polyline class="cls-12" points="254.18 18.8 254.18 19.27 264.94 19.27 264.94 18.8"/><path class="cls-12" d="M264.94,18.68a.58.58,0,0,0-.58-.58"/><line class="cls-12" x1="264.47" y1="18.33" x2="254.64" y2="18.33"/><path class="cls-12" d="M254.53,18.1a.58.58,0,0,0-.59.58"/><line class="cls-12" x1="249.03" y1="27.46" x2="249.03" y2="18.57"/><line class="cls-12" x1="270.09" y1="27.46" x2="270.09" y2="18.57"/><polyline class="cls-10" points="215.32 356.99 215.32 282.33 218.13 282.33 218.13 356.99 215.32 356.99"/><polyline class="cls-9" points="380.79 14.35 380.79 124.82 469.03 124.82 469.03 14.35 380.79 14.35"/><polyline class="cls-9" points="380.79 28.16 469.03 28.16 457.32 39.87 380.79 28.16"/><polyline class="cls-1" points="471.84 30.97 471.84 14.35 494.07 14.35 494.07 30.97 471.84 30.97"/><polyline class="cls-10" points="377.99 30.97 377.99 14.35 355.75 14.35 355.75 30.97 377.99 30.97"/><text class="cls-13" transform="translate(383.37 122.25)">CAMA QUEEN 1,6X2,0m</text><polyline class="cls-4" points="5.39 199.48 10.77 199.48 91.05 199.48 91.05 304.57"/><polyline class="cls-9" points="91.05 304.57 91.05 309.95 91.05 365.42 96.43 365.42 96.43 365.42 236.86 365.42 236.86 365.42 242.47 365.42 242.47 365.42 496.88 365.42 496.88 365.42 505.07 365.42 505.07 344.59 496.88 344.59 496.88 356.99 99.24 356.99 99.24 191.29 19.2 191.29 19.2 187.78 10.77 187.78 10.77 191.29 1.88 191.29 1.88 199.48 5.39 199.48"/><polyline class="cls-14" points="496.88 8.74 410.99 8.74 410.99 0.55 496.88 0.55 505.07 0.55 505.07 0.55 505.07 19.74 496.88 19.74 496.88 8.74"/><polyline class="cls-14" points="410.99 177.48 496.88 177.48 496.88 189.89 505.07 189.89 505.07 151.03 496.88 151.03 496.88 171.87 410.99 171.87 410.99 177.48"/><polyline class="cls-14" points="339.13 177.48 339.13 171.87 196.13 171.87 196.13 169.06 190.52 169.06 190.52 177.48 339.13 177.48"/><polyline class="cls-15" points="231.94 116.63 231.94 111.01 190.52 111.01"/><line class="cls-7" x1="182.33" y1="116.63" x2="107.67" y2="116.63"/><line class="cls-7" x1="182.33" y1="113.82" x2="107.67" y2="113.82"/><polyline class="cls-15" points="190.52 111.01 190.52 8.74 278.99 8.74 278.99 111.01 276.18 111.01 276.18 116.63 284.6 116.63 284.6 8.74 339.13 8.74 339.13 0.55 190.52 0.55 190.52 0.55 182.32 0.55 182.32 116.63"/><line class="cls-15" x1="182.33" y1="41.97" x2="110.47" y2="41.97"/><line class="cls-15" x1="182.33" y1="50.16" x2="107.67" y2="50.16"/><line class="cls-15" x1="19.2" y1="14.35" x2="102.05" y2="14.35"/><line class="cls-15" x1="102.05" y1="14.35" x2="102.05" y2="111.01"/><line class="cls-15" x1="107.67" y1="50.16" x2="107.67" y2="116.63"/><polyline class="cls-15" points="102.05 5.93 10.77 5.93 10.77 133.95 19.2 133.95 19.2 14.35"/><line class="cls-15" x1="19.2" y1="116.63" x2="107.67" y2="116.63"/><line class="cls-15" x1="19.2" y1="111.01" x2="102.05" y2="111.01"/><polyline class="cls-14" points="505.07 68.18 496.88 68.18 496.88 52.97 505.07 52.97 505.07 68.18"/><line class="cls-10" x1="111.88" y1="185.67" x2="111.88" y2="122.01"/><line class="cls-10" x1="115.39" y1="191.29" x2="108.13" y2="191.29"/><line class="cls-3" x1="108.13" y1="116.63" x2="115.39" y2="116.63"/><polyline class="cls-10" points="103.22 161.57 102.75 161.1 101.81 160.4 108.6 160.4"/><polyline class="cls-10" points="107.9 156.89 108.13 157.12 108.6 156.89 108.13 156.65 107.9 156.89"/><polyline class="cls-10" points="101.81 154.31 101.81 151.5 104.39 152.91 104.39 152.21 104.62 151.74 105.09 151.5 106.03 151.27 106.5 151.27 107.67 151.5 108.13 151.97 108.6 152.67 108.6 153.61 108.13 154.31 107.9 154.55 107.2 154.78"/><polyline class="cls-10" points="101.81 146.59 101.81 149.16 104.62 149.4 104.39 149.16 104.16 148.46 104.16 147.76 104.39 146.82 105.09 146.35 106.03 146.12 106.5 146.12 107.67 146.35 108.13 146.82 108.6 147.76 108.6 148.46 108.13 149.16 107.9 149.4 107.2 149.63"/><line class="cls-10" x1="207.13" y1="105.4" x2="207.13" y2="14.35"/><line class="cls-3" x1="210.64" y1="111.01" x2="203.62" y2="111.01"/><line class="cls-3" x1="203.62" y1="8.74" x2="210.64" y2="8.74"/><line class="cls-3" x1="207.13" y1="12.25" x2="207.13" y2="5.23"/><path class="cls-1" d="M208.77,9.91,205.5,7.57,206,7.1Zm-.47.47.47-.47L205.5,7.57Z"/><path class="cls-16" d="M208.77,9.91,205.5,7.57,206,7.1Zm-.47.47.47-.47L205.5,7.57Z"/><polyline class="cls-10" points="198.47 67.72 198.01 67.01 197.07 66.31 203.86 66.31"/><polyline class="cls-3" points="203.16 62.8 203.39 63.03 203.86 62.8 203.39 62.57 203.16 62.8"/><polyline class="cls-10" points="197.07 59.52 197.54 60.23 198.01 60.46 198.71 60.46 199.41 60.23 199.64 59.76 199.88 58.82 200.35 58.12 201.05 57.42 201.52 57.18 202.45 57.18 203.16 57.42 203.39 57.65 203.86 58.59 203.86 59.52 203.39 60.23 203.16 60.46 202.45 60.69 201.52 60.69 201.05 60.46 200.35 59.99 199.88 59.29 199.64 58.35 199.41 57.65 198.71 57.42 198.01 57.42 197.54 57.65 197.07 58.59 197.07 59.52"/><polyline class="cls-10" points="197.07 52.74 197.07 55.31 199.88 55.55 199.64 55.31 199.41 54.38 199.41 53.67 199.64 52.97 200.35 52.5 201.28 52.27 201.99 52.27 202.92 52.5 203.39 52.97 203.86 53.67 203.86 54.38 203.39 55.31 203.16 55.55 202.45 55.78"/><line class="cls-10" x1="196.13" y1="45.72" x2="273.37" y2="45.72"/><line class="cls-3" x1="190.52" y1="49.23" x2="190.52" y2="41.97"/><line class="cls-3" x1="278.98" y1="41.97" x2="278.98" y2="49.23"/><line class="cls-3" x1="275.47" y1="45.72" x2="282.5" y2="45.72"/><path class="cls-1" d="M277.81,47.35l2.34-3.51.47.71Zm-.46-.46.46.46,2.34-3.51Z"/><path class="cls-16" d="M277.81,47.35l2.34-3.51.47.71Zm-.46-.46.46.46,2.34-3.51Z"/><polyline class="cls-10" points="227.03 36.82 227.5 36.59 228.2 35.65 228.2 42.2"/><polyline class="cls-10" points="231.94 41.74 231.47 41.97 231.94 42.2 232.18 41.97 231.94 41.74"/><polyline class="cls-10" points="237.09 36.59 236.86 35.89 236.16 35.65 235.69 35.65 234.75 35.89 234.28 36.82 234.05 38.46 234.05 40.1 234.28 41.27 234.75 41.97 235.69 42.2 235.92 42.2 236.62 41.97 237.09 41.27 237.32 40.33 237.32 40.1 237.09 39.16 236.62 38.46 235.92 38.23 235.69 38.23 234.75 38.46 234.28 39.16 234.05 40.1"/><polyline class="cls-10" points="240.37 35.65 239.67 35.89 239.2 36.82 238.96 38.46 238.96 39.4 239.2 41.03 239.67 41.97 240.37 42.2 240.84 42.2 241.77 41.97 242.24 41.03 242.47 39.4 242.47 38.46 242.24 36.82 241.77 35.89 240.84 35.65 240.37 35.65"/><line class="cls-10" x1="209.94" y1="253.55" x2="104.86" y2="253.55"/><line class="cls-10" x1="215.33" y1="249.8" x2="215.33" y2="257.06"/><line class="cls-3" x1="99.24" y1="257.06" x2="99.24" y2="249.8"/><polyline class="cls-10" points="149.56 245.12 149.56 244.89 149.79 244.18 150.03 243.95 150.5 243.48 151.43 243.48 152.13 243.95 152.37 244.18 152.6 244.89 152.6 245.35 152.37 246.06 151.9 246.99 149.32 250.27 152.84 250.27"/><polyline class="cls-10" points="154.71 249.57 154.47 249.8 154.71 250.27 155.18 249.8 154.71 249.57"/><polyline class="cls-10" points="157.52 244.89 158.22 244.42 158.92 243.48 158.92 250.27"/><polyline class="cls-10" points="163.37 243.48 162.67 243.95 162.2 244.89 161.96 246.29 161.96 247.23 162.2 248.87 162.67 249.8 163.37 250.27 163.84 250.27 164.77 249.8 165.24 248.87 165.47 247.23 165.47 246.29 165.24 244.89 164.77 243.95 163.84 243.48 163.37 243.48"/><line class="cls-10" x1="220.94" y1="262.91" x2="491.26" y2="262.91"/><line class="cls-10" x1="215.33" y1="266.42" x2="215.33" y2="259.4"/><line class="cls-3" x1="496.88" y1="259.4" x2="496.88" y2="266.42"/><polyline class="cls-10" points="351.07 252.84 348.73 252.84 348.26 255.89 348.73 255.42 349.43 255.18 350.13 255.18 350.84 255.42 351.3 256.12 351.77 257.06 351.77 257.76 351.3 258.69 350.84 259.16 350.13 259.63 349.43 259.63 348.73 259.16 348.26 258.93 348.03 258.23"/><polyline class="cls-10" points="353.64 258.93 353.41 259.16 353.64 259.63 353.88 259.16 353.64 258.93"/><polyline class="cls-10" points="357.15 252.84 356.45 253.31 355.99 254.25 355.75 255.89 355.75 256.82 355.99 258.23 356.45 259.16 357.15 259.63 357.62 259.63 358.56 259.16 359.03 258.23 359.26 256.82 359.26 255.89 359.03 254.25 358.56 253.31 357.62 252.84 357.15 252.84"/><polyline class="cls-10" points="363.94 255.18 363.71 256.12 363.24 256.82 362.54 257.06 362.3 257.06 361.6 256.82 360.9 256.12 360.67 255.18 360.67 254.95 360.9 253.78 361.6 253.31 362.3 252.84 362.54 252.84 363.24 253.31 363.71 253.78 363.94 255.18 363.94 256.82 363.71 258.23 363.24 259.16 362.54 259.63 362.07 259.63 361.37 259.16 360.9 258.69"/><line class="cls-10" x1="237.79" y1="238.1" x2="237.79" y2="351.61"/><line class="cls-3" x1="241.3" y1="356.99" x2="234.05" y2="356.99"/><polyline class="cls-10" points="229.37 302.69 229.13 302.69 228.43 302.46 228.2 302.23 227.73 301.76 227.73 300.59 228.2 300.12 228.43 299.89 229.13 299.65 229.6 299.65 230.3 299.89 231.24 300.35 234.52 302.93 234.52 299.42"/><polyline class="cls-10" points="233.81 297.31 234.05 297.55 234.52 297.31 234.05 297.08 233.81 297.31"/><polyline class="cls-10" points="229.37 295.2 229.13 295.2 228.43 294.97 228.2 294.5 227.73 294.04 227.73 293.1 228.2 292.63 228.43 292.4 229.13 292.16 229.6 292.16 230.3 292.4 231.24 292.87 234.52 295.44 234.52 291.93"/><polyline class="cls-10" points="227.73 287.25 227.73 289.82 230.54 290.06 230.3 289.82 230.07 289.12 230.07 288.18 230.3 287.48 231.01 287.01 231.94 286.78 232.41 286.78 233.35 287.01 234.05 287.48 234.52 288.18 234.52 289.12 234.05 289.82 233.81 290.06 233.11 290.29"/><line class="cls-10" x1="482.13" y1="14.35" x2="482.13" y2="166.25"/><line class="cls-3" x1="478.39" y1="8.74" x2="485.64" y2="8.74"/><line class="cls-3" x1="485.64" y1="171.86" x2="478.39" y2="171.86"/><polyline class="cls-10" points="473.71 98.14 473.47 98.14 472.77 97.91 472.54 97.67 472.07 97.2 472.07 96.03 472.54 95.57 472.77 95.33 473.47 95.1 473.94 95.1 474.64 95.33 475.58 95.8 478.86 98.38 478.86 94.86"/><polyline class="cls-10" points="478.15 92.76 478.39 92.99 478.86 92.76 478.39 92.52 478.15 92.76"/><polyline class="cls-10" points="474.41 87.61 475.35 87.84 475.81 88.31 476.28 89.01 476.28 89.25 475.81 89.95 475.35 90.65 474.41 90.89 473.94 90.89 473.01 90.65 472.54 89.95 472.07 89.25 472.07 89.01 472.54 88.31 473.01 87.84 474.41 87.61 475.81 87.61 477.45 87.84 478.39 88.31 478.86 89.01 478.86 89.48 478.39 90.42 477.92 90.65"/><polyline class="cls-10" points="472.07 82.69 472.07 85.27 474.88 85.5 474.64 85.27 474.41 84.57 474.41 83.63 474.64 82.93 475.35 82.46 476.28 82.23 476.75 82.23 477.92 82.46 478.39 82.93 478.86 83.63 478.86 84.57 478.39 85.27 478.15 85.5 477.45 85.74"/><line class="cls-10" x1="323.22" y1="72.63" x2="491.26" y2="72.63"/><line class="cls-3" x1="317.6" y1="76.14" x2="317.6" y2="68.89"/><line class="cls-3" x1="496.88" y1="68.89" x2="496.88" y2="76.14"/><polyline class="cls-10" points="399.52 62.57 402.32 62.57 400.69 65.14 401.62 65.14 402.09 65.38 402.32 65.84 402.56 66.78 402.56 67.48 402.32 68.42 401.86 68.89 400.92 69.35 400.22 69.35 399.52 68.89 399.28 68.65 399.05 67.95"/><polyline class="cls-10" points="404.67 68.65 404.2 68.89 404.67 69.35 404.9 68.89 404.67 68.65"/><polyline class="cls-10" points="406.77 64.2 406.77 63.97 407.01 63.27 407.24 63.03 407.94 62.57 408.88 62.57 409.35 63.03 409.58 63.27 409.81 63.97 409.81 64.44 409.58 65.14 409.11 66.08 406.54 69.35 410.05 69.35"/><polyline class="cls-10" points="414.26 62.57 411.69 67.01 415.43 67.01"/><line class="cls-10" x1="414.26" y1="62.57" x2="414.26" y2="69.35"/><line class="cls-10" x1="300.75" y1="111.01" x2="300.75" y2="14.35"/><line class="cls-3" x1="304.26" y1="116.63" x2="297.24" y2="116.63"/><line class="cls-3" x1="297.24" y1="8.74" x2="304.26" y2="8.74"/><polyline class="cls-10" points="292.09 70.29 291.62 69.82 290.69 69.12 297.47 69.12"/><polyline class="cls-10" points="296.77 65.61 297.01 65.84 297.47 65.61 297.01 65.38 296.77 65.61"/><polyline class="cls-10" points="293.03 60.23 293.96 60.46 294.67 60.93 294.9 61.87 294.9 62.1 294.67 62.8 293.96 63.27 293.03 63.5 292.56 63.5 291.62 63.27 291.15 62.8 290.69 62.1 290.69 61.87 291.15 60.93 291.62 60.46 293.03 60.23 294.67 60.23 296.07 60.46 297.01 60.93 297.47 61.87 297.47 62.33 297.01 63.03 296.54 63.27"/><polyline class="cls-10" points="290.69 55.55 290.69 57.89 293.5 58.35 293.26 57.89 293.03 57.18 293.03 56.48 293.26 55.78 293.96 55.31 294.9 54.84 295.6 54.84 296.54 55.31 297.01 55.78 297.47 56.48 297.47 57.18 297.01 57.89 296.77 58.35 296.07 58.59"/><line class="cls-10" x1="474.64" y1="182.86" x2="474.64" y2="351.61"/><line class="cls-3" x1="471.13" y1="177.48" x2="478.16" y2="177.48"/><line class="cls-3" x1="478.16" y1="356.99" x2="471.13" y2="356.99"/><polyline class="cls-10" points="464.81 274.84 464.81 272.04 467.15 273.44 467.15 272.74 467.62 272.27 467.86 272.04 468.79 271.8 469.5 271.8 470.43 272.04 471.13 272.5 471.37 273.2 471.37 274.14 471.13 274.84 470.67 275.08 469.96 275.31"/><polyline class="cls-10" points="470.67 269.69 471.13 269.93 471.37 269.69 471.13 269.46 470.67 269.69"/><polyline class="cls-10" points="466.22 267.35 465.99 267.35 465.28 267.12 465.05 266.89 464.81 266.42 464.81 265.48 465.05 265.01 465.28 264.78 465.99 264.55 466.69 264.55 467.15 264.78 468.09 265.25 471.37 267.82 471.37 264.08"/><polyline class="cls-10" points="464.81 259.63 464.81 262.2 467.62 262.44 467.15 262.2 466.92 261.5 466.92 260.57 467.15 259.87 467.86 259.4 468.79 259.16 469.5 259.16 470.43 259.4 471.13 259.87 471.37 260.57 471.37 261.5 471.13 262.2 470.67 262.44 469.96 262.67"/><line class="cls-15" x1="231.94" y1="116.63" x2="182.33" y2="116.63"/><polyline class="cls-9" points="336.79 177.48 336.79 196.67 281.56 196.67 281.56 177.48 336.79 177.48"/><polyline class="cls-10" points="333.99 177.48 333.99 180.06 284.13 180.06 284.13 177.48 333.99 177.48"/><polyline class="cls-7" points="55.94 115.23 55.94 116.86 53.13 116.86 53.13 116.63 52.67 116.63 52.67 117.33 56.41 117.33 56.41 115.23 55.94 115.23"/><polyline class="cls-7" points="52.67 110.31 52.67 111.01 53.13 111.01 53.13 110.78 55.94 110.78 55.94 112.42 56.41 112.42 56.41 110.31 52.67 110.31"/><polyline class="cls-7" points="56.41 113.35 56.41 114.99 56.64 114.99 56.88 114.99 56.88 113.35 56.41 113.35"/><polyline class="cls-7" points="55.94 112.42 55.94 111.25 55.71 111.25 55.71 116.4 55.94 116.4 55.94 115.23 56.41 115.23 56.41 116.4 56.64 116.4 56.64 114.99 56.41 114.99 56.41 113.35 56.64 113.35 56.64 111.25 56.41 111.25 56.41 112.42 55.94 112.42"/><polyline class="cls-7" points="98.07 110.31 98.07 112.42 98.3 112.42 98.3 110.78 101.35 110.78 101.35 111.01 101.58 111.01 101.58 110.31 98.07 110.31"/><polyline class="cls-7" points="98.07 115.23 98.07 117.33 101.58 117.33 101.58 116.63 101.35 116.63 101.35 116.86 98.3 116.86 98.3 115.23 98.07 115.23"/><polyline class="cls-7" points="97.37 113.35 97.37 114.99 98.07 114.99 98.07 113.35 97.37 113.35"/><polyline class="cls-7" points="98.07 112.42 98.07 111.25 97.84 111.25 97.84 113.35 98.07 113.35 98.07 114.99 97.84 114.99 97.84 116.4 98.07 116.4 98.07 115.23 98.3 115.23 98.3 116.4 98.77 116.4 98.77 111.25 98.3 111.25 98.3 112.42 98.07 112.42"/><polyline class="cls-7" points="95.73 70.29 95.73 111.25 97.84 111.25 97.84 70.29"/><path class="cls-9" d="M97.72,70.06a41.08,41.08,0,0,0-41.08,41.07"/><line class="cls-7" x1="99.24" y1="112.42" x2="55.01" y2="112.42"/><path class="cls-12" d="M43.89,102.59a1.29,1.29,0,0,0,1.29-1.29"/><line class="cls-12" x1="44.01" y1="102.82" x2="27.39" y2="102.82"/><path class="cls-12" d="M26,101.3a1.29,1.29,0,0,0,1.29,1.29"/><line class="cls-12" x1="25.98" y1="101.42" x2="25.98" y2="84.8"/><path class="cls-12" d="M27.27,83.4A1.28,1.28,0,0,0,26,84.68"/><line class="cls-12" x1="27.39" y1="83.4" x2="44.01" y2="83.4"/><path class="cls-12" d="M45.18,84.68a1.28,1.28,0,0,0-1.29-1.28"/><line class="cls-12" x1="45.41" y1="84.8" x2="45.41" y2="101.42"/><path class="cls-12" d="M44.24,84.68a.35.35,0,0,0-.31-.34"/><line class="cls-12" x1="44.47" y1="84.8" x2="44.47" y2="101.42"/><path class="cls-12" d="M43.93,101.65a.35.35,0,0,0,.31-.35"/><path class="cls-12" d="M26.92,101.3a.35.35,0,0,0,.31.35"/><line class="cls-12" x1="27.15" y1="101.42" x2="27.15" y2="84.8"/><path class="cls-12" d="M27.23,84.34a.35.35,0,0,0-.31.34"/><path class="cls-12" d="M44,84.36a70.25,70.25,0,0,0-16.65,0"/><path class="cls-12" d="M27.37,101.62a69.21,69.21,0,0,0,16.65,0"/><path class="cls-12" d="M24.23,93.69a.82.82,0,1,0-.82-.81.82.82,0,0,0,.82.81"/><path class="cls-12" d="M35.7,94.86a2,2,0,1,0-2-2,2,2,0,0,0,2,2"/><polyline class="cls-9" points="19.2 72.4 52.43 72.4 52.43 111.01 19.2 111.01 19.2 72.4"/><path class="cls-12" d="M40.5,43.26a2.7,2.7,0,0,0-5.39,0"/><path class="cls-12" d="M35.11,43.26a2.7,2.7,0,0,0,5.39,0"/><path class="cls-12" d="M53.33,37.36a27.71,27.71,0,0,0-22.46-3.87"/><path class="cls-12" d="M53.14,49a6.9,6.9,0,0,0,0-11.44"/><path class="cls-12" d="M30.87,52.79a27.71,27.71,0,0,0,22.46-3.87"/><path class="cls-12" d="M29.73,51.22a1.52,1.52,0,0,0,1.14,1.47"/><line class="cls-12" x1="29.73" y1="51.33" x2="29.73" y2="35.18"/><path class="cls-12" d="M30.87,33.59a1.53,1.53,0,0,0-1.14,1.48"/><path class="cls-12" d="M29,32.75a25,25,0,0,0-8.53-.42"/><path class="cls-12" d="M29.39,34.07a.84.84,0,0,0,0-.74.87.87,0,0,0-.57-.47"/><path class="cls-12" d="M29.59,34.11a18.37,18.37,0,0,0,0,18.29"/><path class="cls-12" d="M28.86,53.65a.81.81,0,0,0,.53-1.2"/><path class="cls-12" d="M20.49,54.19A25,25,0,0,0,29,53.76"/><path class="cls-12" d="M19.44,53.2a1,1,0,0,0,.92.93"/><path class="cls-12" d="M19.51,33.29a91.05,91.05,0,0,0,0,19.94"/><path class="cls-12" d="M20.36,32.38a1.05,1.05,0,0,0-.92.93"/><polyline class="cls-12" points="29.03 37.99 29.73 37.99 29.73 48.76 29.03 48.76"/><path class="cls-12" d="M28.33,48.17a.58.58,0,0,0,.58.59"/><line class="cls-12" x1="28.56" y1="48.29" x2="28.56" y2="38.46"/><path class="cls-12" d="M28.91,37.76a.58.58,0,0,0-.58.58"/><line class="cls-12" x1="37.92" y1="32.84" x2="28.79" y2="32.84"/><line class="cls-12" x1="37.92" y1="53.91" x2="28.79" y2="53.91"/><line class="cls-3" x1="26.45" y1="5.93" x2="19.2" y2="5.93"/><polyline class="cls-9" points="165.01 55.78 165.01 93.46 127.56 93.46 127.56 55.78 165.01 55.78"/><line class="cls-12" x1="165.01" y1="61.16" x2="127.56" y2="61.16"/><polyline class="cls-17" points="157.05 66.55 135.52 66.55 135.52 88.08 151.67 88.08 157.05 82.69 157.05 66.55"/><path class="cls-1" d="M110.47,5.93h-8.42"/><path class="cls-16" d="M110.47,5.93h-8.42"/><path class="cls-1" d="M182.33.55l156.8,8.19H182.33Zm156.8,0H182.33l156.8,8.19Z"/><path class="cls-16" d="M182.33.55l156.8,8.19H182.33Zm156.8,0H182.33l156.8,8.19Z"/><path class="cls-1" d="M10.77,5.93l99.7,8.42H10.77Zm99.7,0H10.77l99.7,8.42Z"/><path class="cls-16" d="M10.77,5.93l99.7,8.42H10.77Zm99.7,0H10.77l99.7,8.42Z"/><path class="cls-1" d="M182.33,8.74,190.52,42h-8.19Zm8.19,0h-8.19L190.52,42Z"/><path class="cls-16" d="M182.33,8.74,190.52,42h-8.19Zm8.19,0h-8.19L190.52,42Z"/><path class="cls-1" d="M102.05,14.35,110.47,42h-8.42Zm8.42,0h-8.42L110.47,42Z"/><path class="cls-16" d="M102.05,14.35,110.47,42h-8.42Zm8.42,0h-8.42L110.47,42Z"/><path class="cls-1" d="M102.05,42l88.47,8.19H102.05Zm88.47,0H102.05l88.47,8.19Z"/><path class="cls-16" d="M102.05,42l88.47,8.19H102.05Zm88.47,0H102.05l88.47,8.19Z"/><path class="cls-1" d="M182.33,50.16,190.52,111h-8.19Zm8.19,0h-8.19L190.52,111Z"/><path class="cls-16" d="M182.33,50.16,190.52,111h-8.19Zm8.19,0h-8.19L190.52,111Z"/><path class="cls-1" d="M10.77,14.35,19.2,111H10.77Zm8.43,0H10.77L19.2,111Z"/><path class="cls-16" d="M10.77,14.35,19.2,111H10.77Zm8.43,0H10.77L19.2,111Z"/><path class="cls-1" d="M102.05,50.16,107.67,111h-5.62Zm5.62,0h-5.62L107.67,111Z"/><path class="cls-16" d="M102.05,50.16,107.67,111h-5.62Zm5.62,0h-5.62L107.67,111Z"/><path class="cls-1" d="M182.33,111l49.61,5.62H182.33Zm49.61,0H182.33l49.61,5.62Z"/><path class="cls-16" d="M182.33,111l49.61,5.62H182.33Zm49.61,0H182.33l49.61,5.62Z"/><path class="cls-1" d="M99.24,111l8.43,5.62H99.24Zm8.43,0H99.24l8.43,5.62Z"/><path class="cls-16" d="M99.24,111l8.43,5.62H99.24Zm8.43,0H99.24l8.43,5.62Z"/><path class="cls-1" d="M10.77,111,55,116.63H10.77ZM55,111H10.77L55,116.63Z"/><path class="cls-16" d="M10.77,111,55,116.63H10.77ZM55,111H10.77L55,116.63Z"/><path class="cls-1" d="M190.52,116.63l5.61,2.81h-5.61Zm5.61,0h-5.61l5.61,2.81Z"/><path class="cls-16" d="M190.52,116.63l5.61,2.81h-5.61Zm5.61,0h-5.61l5.61,2.81Z"/><path class="cls-1" d="M10.77,116.63,19.2,134H10.77Zm8.43,0H10.77L19.2,134Z"/><path class="cls-16" d="M10.77,116.63,19.2,134H10.77Zm8.43,0H10.77L19.2,134Z"/><polyline class="cls-14" points="190.52 119.44 196.13 119.44 196.13 116.63 231.94 116.63 231.94 111.01 190.52 111.01 190.52 8.74 339.13 8.74 339.13 0.55 190.52 0.55 190.52 0.55 182.32 0.55 182.32 41.97 110.47 41.97 110.47 5.93 102.05 5.93 102.05 5.93 10.77 5.93 10.77 133.95 19.2 133.95 19.2 116.63 55.01 116.63 55.01 111.01 19.2 111.01 19.2 14.35 102.05 14.35 102.05 111.01 99.24 111.01 99.24 116.63 107.67 116.63 107.67 50.16 182.32 50.16 182.32 116.63 190.52 116.63 190.52 119.44"/><line class="cls-14" x1="196.13" y1="119.44" x2="196.13" y2="119.44"/><line class="cls-14" x1="196.13" y1="116.63" x2="196.13" y2="116.63"/><line class="cls-14" x1="231.94" y1="116.63" x2="231.94" y2="116.63"/><line class="cls-14" x1="231.94" y1="111.01" x2="231.94" y2="111.01"/><line class="cls-14" x1="190.52" y1="111.01" x2="190.52" y2="111.01"/><line class="cls-14" x1="190.52" y1="8.74" x2="190.52" y2="8.74"/><line class="cls-14" x1="339.13" y1="8.74" x2="339.13" y2="8.74"/><line class="cls-14" x1="182.33" y1="41.97" x2="182.33" y2="41.97"/><line class="cls-14" x1="110.47" y1="41.97" x2="110.47" y2="41.97"/><line class="cls-14" x1="102.05" y1="5.93" x2="102.05" y2="5.93"/><line class="cls-14" x1="10.77" y1="5.93" x2="10.77" y2="5.93"/><line class="cls-14" x1="10.77" y1="133.95" x2="10.77" y2="133.95"/><line class="cls-14" x1="19.2" y1="133.95" x2="19.2" y2="133.95"/><line class="cls-14" x1="19.2" y1="116.63" x2="19.2" y2="116.63"/><line class="cls-14" x1="55.01" y1="116.63" x2="55.01" y2="116.63"/><line class="cls-14" x1="55.01" y1="111.01" x2="55.01" y2="111.01"/><line class="cls-14" x1="19.2" y1="111.01" x2="19.2" y2="111.01"/><line class="cls-14" x1="19.2" y1="14.35" x2="19.2" y2="14.35"/><line class="cls-14" x1="102.05" y1="14.35" x2="102.05" y2="14.35"/><line class="cls-14" x1="102.05" y1="111.01" x2="102.05" y2="111.01"/><line class="cls-14" x1="99.24" y1="111.01" x2="99.24" y2="111.01"/><line class="cls-14" x1="99.24" y1="116.63" x2="99.24" y2="116.63"/><line class="cls-14" x1="107.67" y1="116.63" x2="107.67" y2="116.63"/><line class="cls-14" x1="107.67" y1="50.16" x2="107.67" y2="50.16"/><line class="cls-14" x1="182.33" y1="50.16" x2="182.33" y2="50.16"/><line class="cls-14" x1="182.33" y1="116.63" x2="182.33" y2="116.63"/><line class="cls-14" x1="190.52" y1="116.63" x2="190.52" y2="116.63"/><line class="cls-3" x1="181.39" y1="41.97" x2="174.13" y2="41.97"/><line class="cls-10" x1="176.47" y1="55.78" x2="176.47" y2="111.01"/><line class="cls-3" x1="172.73" y1="50.16" x2="179.98" y2="50.16"/><line class="cls-3" x1="179.98" y1="116.63" x2="172.73" y2="116.63"/><polyline class="cls-10" points="167.81 91.12 167.35 90.65 166.41 89.95 173.2 89.95"/><polyline class="cls-10" points="172.5 86.2 172.73 86.67 173.2 86.2 172.73 85.97 172.5 86.2"/><polyline class="cls-10" points="168.05 84.1 167.81 84.1 167.11 83.86 166.88 83.63 166.41 82.93 166.41 81.99 166.88 81.52 167.11 81.29 167.81 81.06 168.28 81.06 168.99 81.29 169.92 81.76 173.2 84.33 173.2 80.82"/><polyline class="cls-10" points="166.41 77.78 166.88 78.48 167.81 78.95 169.22 79.18 170.16 79.18 171.79 78.95 172.73 78.48 173.2 77.78 173.2 77.31 172.73 76.38 171.79 75.91 170.16 75.67 169.22 75.67 167.81 75.91 166.88 76.38 166.41 77.31 166.41 77.78"/><line class="cls-10" x1="41.2" y1="19.74" x2="41.2" y2="105.4"/><line class="cls-3" x1="37.45" y1="14.35" x2="44.71" y2="14.35"/><line class="cls-3" x1="44.71" y1="111.01" x2="37.45" y2="111.01"/><polyline class="cls-10" points="32.54 70.29 32.07 69.82 31.13 69.12 37.69 69.12"/><polyline class="cls-10" points="37.22 65.61 37.45 65.84 37.69 65.61 37.45 65.38 37.22 65.61"/><polyline class="cls-10" points="37.69 62.57 31.13 59.99 31.13 63.5"/><polyline class="cls-10" points="31.13 55.55 31.13 57.89 33.94 58.35 33.71 57.89 33.47 57.18 33.47 56.48 33.71 55.78 34.41 55.31 35.35 54.84 35.81 54.84 36.75 55.31 37.45 55.78 37.69 56.48 37.69 57.18 37.45 57.89 37.22 58.35 36.52 58.59"/><line class="cls-10" x1="24.58" y1="30.27" x2="96.43" y2="30.27"/><line class="cls-3" x1="19.2" y1="33.78" x2="19.2" y2="26.76"/><line class="cls-3" x1="102.05" y1="26.76" x2="102.05" y2="33.78"/><polyline class="cls-10" points="52.9 21.61 53.37 21.14 54.07 20.2 54.07 26.99"/><polyline class="cls-10" points="57.81 26.29 57.35 26.52 57.81 26.99 58.05 26.52 57.81 26.29"/><polyline class="cls-10" points="62.73 20.2 60.16 20.2 59.92 23.01 60.16 22.78 61.09 22.55 61.79 22.55 62.49 22.78 62.96 23.48 63.2 24.42 63.2 25.12 62.96 26.06 62.49 26.52 61.79 26.99 61.09 26.99 60.16 26.52 59.92 26.29 59.69 25.59"/><polyline class="cls-10" points="66.24 20.2 65.54 20.67 65.07 21.61 64.84 23.01 64.84 24.18 65.07 25.59 65.54 26.52 66.24 26.99 66.71 26.99 67.64 26.52 68.11 25.59 68.35 24.18 68.35 23.01 68.11 21.61 67.64 20.67 66.71 20.2 66.24 20.2"/></g></g></svg>